<?xml version="1.0" encoding="UTF-8" standalone="no"?>
<!-- Created with Inkscape (http://www.inkscape.org/) -->

<svg
   xmlns:dc="http://purl.org/dc/elements/1.1/"
   xmlns:cc="http://creativecommons.org/ns#"
   xmlns:rdf="http://www.w3.org/1999/02/22-rdf-syntax-ns#"
   xmlns:svg="http://www.w3.org/2000/svg"
   xmlns="http://www.w3.org/2000/svg"
   xmlns:sodipodi="http://sodipodi.sourceforge.net/DTD/sodipodi-0.dtd"
   xmlns:inkscape="http://www.inkscape.org/namespaces/inkscape"
   width="1258.8685mm"
   height="2020mm"
   viewBox="0 0 4460.5578 7157.4803"
   id="svg2"
   version="1.1"
   inkscape:version="0.91 r13725"
   sodipodi:docname="russian.svg">
  <defs
     id="defs4" />
  <sodipodi:namedview
     id="base"
     pagecolor="#ffffff"
     bordercolor="#666666"
     borderopacity="1.0"
     inkscape:pageopacity="0.0"
     inkscape:pageshadow="2"
     inkscape:zoom="0.16"
     inkscape:cx="220.64736"
     inkscape:cy="6120.4094"
     inkscape:document-units="px"
     inkscape:current-layer="layer1"
     showgrid="false"
     fit-margin-top="10"
     fit-margin-left="10"
     fit-margin-right="10"
     fit-margin-bottom="10"
     inkscape:window-width="1600"
     inkscape:window-height="852"
     inkscape:window-x="0"
     inkscape:window-y="25"
     inkscape:window-maximized="1" />
  <metadata
     id="metadata7">
    <rdf:RDF>
      <cc:Work
         rdf:about="">
        <dc:format>image/svg+xml</dc:format>
        <dc:type
           rdf:resource="http://purl.org/dc/dcmitype/StillImage" />
        <dc:title></dc:title>
      </cc:Work>
    </rdf:RDF>
  </metadata>
  <g
     inkscape:label="Layer 1"
     inkscape:groupmode="layer"
     id="layer1"
     transform="translate(-160.06693,6269.424)">
    <path
       style="fill:none;fill-rule:evenodd;stroke:#ff0000;stroke-width:11.85870266px;stroke-linecap:butt;stroke-linejoin:miter;stroke-opacity:1"
       d="m 201.42935,-6227.8472 c 0,0 730.23912,1.6599 1365.76925,56.7704 143.4706,12.4412 632.5433,585.5568 719.0916,649.7055 61.9502,45.9169 100.1171,131.0508 100.9251,208.1581 43.409,4142.1335 1520.1847,5014.7172 1520.1847,5014.7172 207.8266,196.05471 410.0084,517.24138 410.0084,517.24138 161.5066,314.74858 258.6206,624.47417 258.6206,624.47417 0,0 -517.852,-177.27444 -971.4044,-378.46918 C 3569.12,449.00059 2112.1574,-1715.4758 2103.3634,-5332.1367 c -0.012,-4.9992 -396.9918,-169.4002 -605.5508,-340.6223 -47.2398,-38.7828 -138.7721,-119.8486 -138.7721,-119.8486 0,0 -34.452,-99.483 -37.8469,-151.3877 -7.5955,-116.1287 -154.1057,-100.9149 -176.619,-101.6843 -378.56108,-12.9368 -946.59079,-27.1344 -943.14525,-25.9859 z"
       id="path3347"
       inkscape:connector-curvature="0"
       sodipodi:nodetypes="cssssscssscsscc" />
  </g>
</svg>
