<?xml version="1.0"?>
<svg xmlns="http://www.w3.org/2000/svg" xmlns:xlink="http://www.w3.org/1999/xlink" viewBox="0 0 331.600000 296.000000" width="165.800000mm" height="148.000000mm" version="1.1">
<rect x="1.000000" y="1.000000" width="330.600000" height="295.000000" rx="0" ry="0" style="stroke:none;fill:#cccccc;"/>
<rect x="0.000000" y="0.000000" width="330.600000" height="295.000000" rx="0" ry="0" style="stroke:none;fill:#ffffff;"/>
<text x="10.000000" y="7.000000" font-family="Arial" font-size="7"></text>
<rect x="85.900000" y="145.000000" width="25.800000" height="24.000000" rx="0" ry="0" style="stroke:none;fill:#cccccc;"/>
<rect x="84.900000" y="144.000000" width="25.800000" height="24.000000" rx="0" ry="0" style="stroke:none;fill:#f44800;"/>
<text x="97.800000" y="158.000000" font-family="Arial" font-size="7" text-anchor="middle" fill="#FFFFFF">12345</text>
<circle cx="86.900000" cy="146.000000" r="1"/>
<rect x="127.700000" y="141.000000" width="24.000000" height="24.000000" rx="0" ry="0" style="stroke:none;fill:#cccccc;"/>
<rect x="126.700000" y="140.000000" width="24.000000" height="24.000000" rx="0" ry="0" style="stroke:none;fill:#4B71A1;"/>
<text x="138.700000" y="154.000000" font-family="Arial" font-size="7" text-anchor="middle" fill="#FFFFFF">+</text>
<circle cx="128.700000" cy="142.000000" r="1"/>
<line x1="123.700000" y1="147.000000" x2="126.700000" y2="148.000000"  transform="rotate(0.000000,126.700000,148.000000)" style="stroke: black; stroke-width:0.25;"/>
<line x1="123.700000" y1="149.000000" x2="126.700000" y2="148.000000"  transform="rotate(0.000000,126.700000,148.000000)" style="stroke: black; stroke-width:0.25;"/>
<line x1="123.700000" y1="155.000000" x2="126.700000" y2="156.000000"  transform="rotate(0.000000,126.700000,156.000000)" style="stroke: black; stroke-width:0.25;"/>
<line x1="123.700000" y1="157.000000" x2="126.700000" y2="156.000000"  transform="rotate(0.000000,126.700000,156.000000)" style="stroke: black; stroke-width:0.25;"/>
<rect x="133.000000" y="97.000000" width="51.600000" height="24.000000" rx="0" ry="0" style="stroke:none;fill:#cccccc;"/>
<rect x="132.000000" y="96.000000" width="51.600000" height="24.000000" rx="0" ry="0" style="stroke:none;fill:#f44800;"/>
<text x="157.800000" y="110.000000" font-family="Arial" font-size="7" text-anchor="middle" fill="#FFFFFF">1103515245</text>
<circle cx="181.600000" cy="118.000000" r="1"/>
<rect x="93.000000" y="101.000000" width="24.000000" height="24.000000" rx="0" ry="0" style="stroke:none;fill:#cccccc;"/>
<rect x="92.000000" y="100.000000" width="24.000000" height="24.000000" rx="0" ry="0" style="stroke:none;fill:#4B71A1;"/>
<text x="104.000000" y="114.000000" font-family="Arial" font-size="7" text-anchor="middle" fill="#FFFFFF">*</text>
<circle cx="114.000000" cy="122.000000" r="1"/>
<line x1="119.000000" y1="115.000000" x2="116.000000" y2="116.000000"  transform="rotate(0.000000,116.000000,116.000000)" style="stroke: black; stroke-width:0.25;"/>
<line x1="119.000000" y1="117.000000" x2="116.000000" y2="116.000000"  transform="rotate(0.000000,116.000000,116.000000)" style="stroke: black; stroke-width:0.25;"/>
<line x1="119.000000" y1="107.000000" x2="116.000000" y2="108.000000"  transform="rotate(0.000000,116.000000,108.000000)" style="stroke: black; stroke-width:0.25;"/>
<line x1="119.000000" y1="109.000000" x2="116.000000" y2="108.000000"  transform="rotate(0.000000,116.000000,108.000000)" style="stroke: black; stroke-width:0.25;"/>
<rect x="126.800000" y="55.000000" width="24.000000" height="24.000000" rx="0" ry="0" style="stroke:none;fill:#cccccc;"/>
<rect x="125.800000" y="54.000000" width="24.000000" height="24.000000" rx="0" ry="0" style="stroke:none;fill:#f44800;"/>
<text x="137.800000" y="68.000000" font-family="Arial" font-size="7" text-anchor="middle" fill="#FFFFFF">-1</text>
<circle cx="147.800000" cy="76.000000" r="1"/>
<line x1="116.800000" y1="45.000000" x2="116.800000" y2="87.000000"  style="stroke: black; stroke-linecap:round; stroke-width:0.25; stroke-dasharray:3,3;"/>
<line x1="116.800000" y1="87.000000" x2="158.800000" y2="87.000000"  style="stroke: black; stroke-linecap:round; stroke-width:0.25; stroke-dasharray:3,3;"/>
<line x1="158.800000" y1="87.000000" x2="158.800000" y2="45.000000"  style="stroke: black; stroke-linecap:round; stroke-width:0.25; stroke-dasharray:3,3;"/>
<line x1="116.800000" y1="45.000000" x2="121.800000" y2="45.000000"  style="stroke: black; stroke-linecap:round; stroke-width:0.25; stroke-dasharray:3,3;"/>
<line x1="141.150000" y1="45.000000" x2="158.800000" y2="45.000000"  style="stroke: black; stroke-linecap:round; stroke-width:0.25; stroke-dasharray:3,3;"/>
<text x="121.800000" y="47.000000" font-family="Arial" font-size="7">mask</text>
<rect x="53.000000" y="75.000000" width="24.000000" height="24.000000" rx="0" ry="0" style="stroke:none;fill:#cccccc;"/>
<rect x="52.000000" y="74.000000" width="24.000000" height="24.000000" rx="0" ry="0" style="stroke:none;fill:#4B71A1;"/>
<text x="64.000000" y="88.000000" font-family="Arial" font-size="7" text-anchor="middle" fill="#FFFFFF">&amp;</text>
<circle cx="74.000000" cy="96.000000" r="1"/>
<line x1="79.000000" y1="89.000000" x2="76.000000" y2="90.000000"  transform="rotate(0.000000,76.000000,90.000000)" style="stroke: black; stroke-width:0.25;"/>
<line x1="79.000000" y1="91.000000" x2="76.000000" y2="90.000000"  transform="rotate(0.000000,76.000000,90.000000)" style="stroke: black; stroke-width:0.25;"/>
<line x1="79.000000" y1="81.000000" x2="76.000000" y2="82.000000"  transform="rotate(0.000000,76.000000,82.000000)" style="stroke: black; stroke-width:0.25;"/>
<line x1="79.000000" y1="83.000000" x2="76.000000" y2="82.000000"  transform="rotate(0.000000,76.000000,82.000000)" style="stroke: black; stroke-width:0.25;"/>
<line x1="185.600000" y1="152.000000" x2="185.600000" y2="148.000000"  style="stroke:black; stroke-linecap:round; stroke-width:0.25;"/>
<line x1="185.600000" y1="148.000000" x2="189.600000" y2="148.000000"  style="stroke:black; stroke-linecap:round; stroke-width:0.25;"/>
<line x1="189.600000" y1="148.000000" x2="189.600000" y2="152.000000"  style="stroke:black; stroke-linecap:round; stroke-width:0.25;"/>
<line x1="35.000000" y1="35.000000" x2="35.000000" y2="177.000000"  style="stroke: black; stroke-linecap:round; stroke-width:0.25; stroke-dasharray:3,3;"/>
<line x1="35.000000" y1="177.000000" x2="200.600000" y2="177.000000"  style="stroke: black; stroke-linecap:round; stroke-width:0.25; stroke-dasharray:3,3;"/>
<line x1="200.600000" y1="177.000000" x2="200.600000" y2="35.000000"  style="stroke: black; stroke-linecap:round; stroke-width:0.25; stroke-dasharray:3,3;"/>
<line x1="35.000000" y1="35.000000" x2="40.000000" y2="35.000000"  style="stroke: black; stroke-linecap:round; stroke-width:0.25; stroke-dasharray:3,3;"/>
<line x1="65.800000" y1="35.000000" x2="200.600000" y2="35.000000"  style="stroke: black; stroke-linecap:round; stroke-width:0.25; stroke-dasharray:3,3;"/>
<text x="40.000000" y="37.000000" font-family="Arial" font-size="7">random</text>
<rect x="93.000000" y="197.000000" width="51.600000" height="24.000000" rx="0" ry="0" style="stroke:none;fill:#cccccc;"/>
<rect x="92.000000" y="196.000000" width="51.600000" height="24.000000" rx="0" ry="0" style="stroke:none;fill:#f44800;"/>
<text x="117.800000" y="210.000000" font-family="Arial" font-size="7" text-anchor="middle" fill="#FFFFFF">2.14748e+09</text>
<circle cx="94.000000" cy="198.000000" r="1"/>
<line x1="83.000000" y1="187.000000" x2="83.000000" y2="229.000000"  style="stroke: black; stroke-linecap:round; stroke-width:0.25; stroke-dasharray:3,3;"/>
<line x1="83.000000" y1="229.000000" x2="152.600000" y2="229.000000"  style="stroke: black; stroke-linecap:round; stroke-width:0.25; stroke-dasharray:3,3;"/>
<line x1="152.600000" y1="229.000000" x2="152.600000" y2="187.000000"  style="stroke: black; stroke-linecap:round; stroke-width:0.25; stroke-dasharray:3,3;"/>
<line x1="83.000000" y1="187.000000" x2="88.000000" y2="187.000000"  style="stroke: black; stroke-linecap:round; stroke-width:0.25; stroke-dasharray:3,3;"/>
<line x1="117.025000" y1="187.000000" x2="152.600000" y2="187.000000"  style="stroke: black; stroke-linecap:round; stroke-width:0.25; stroke-dasharray:3,3;"/>
<text x="88.000000" y="189.000000" font-family="Arial" font-size="7">RANDMAX</text>
<rect x="226.600000" y="121.000000" width="24.000000" height="24.000000" rx="0" ry="0" style="stroke:none;fill:#cccccc;"/>
<rect x="225.600000" y="120.000000" width="24.000000" height="24.000000" rx="0" ry="0" style="stroke:none;fill:#4B71A1;"/>
<text x="237.600000" y="134.000000" font-family="Arial" font-size="7" text-anchor="middle" fill="#FFFFFF">/</text>
<circle cx="227.600000" cy="122.000000" r="1"/>
<line x1="222.600000" y1="127.000000" x2="225.600000" y2="128.000000"  transform="rotate(0.000000,225.600000,128.000000)" style="stroke: black; stroke-width:0.25;"/>
<line x1="222.600000" y1="129.000000" x2="225.600000" y2="128.000000"  transform="rotate(0.000000,225.600000,128.000000)" style="stroke: black; stroke-width:0.25;"/>
<line x1="222.600000" y1="135.000000" x2="225.600000" y2="136.000000"  transform="rotate(0.000000,225.600000,136.000000)" style="stroke: black; stroke-width:0.25;"/>
<line x1="222.600000" y1="137.000000" x2="225.600000" y2="136.000000"  transform="rotate(0.000000,225.600000,136.000000)" style="stroke: black; stroke-width:0.25;"/>
<line x1="25.000000" y1="25.000000" x2="25.000000" y2="239.000000"  style="stroke: black; stroke-linecap:round; stroke-width:0.25; stroke-dasharray:3,3;"/>
<line x1="25.000000" y1="239.000000" x2="258.600000" y2="239.000000"  style="stroke: black; stroke-linecap:round; stroke-width:0.25; stroke-dasharray:3,3;"/>
<line x1="258.600000" y1="239.000000" x2="258.600000" y2="25.000000"  style="stroke: black; stroke-linecap:round; stroke-width:0.25; stroke-dasharray:3,3;"/>
<line x1="25.000000" y1="25.000000" x2="30.000000" y2="25.000000"  style="stroke: black; stroke-linecap:round; stroke-width:0.25; stroke-dasharray:3,3;"/>
<line x1="52.575000" y1="25.000000" x2="258.600000" y2="25.000000"  style="stroke: black; stroke-linecap:round; stroke-width:0.25; stroke-dasharray:3,3;"/>
<text x="30.000000" y="27.000000" font-family="Arial" font-size="7">noise</text>
<rect x="26.700000" y="249.000000" width="232.200000" height="24.000000" rx="0" ry="0" style="stroke:none;fill:#cccccc;"/>
<rect x="25.700000" y="248.000000" width="232.200000" height="24.000000" rx="0" ry="0" style="stroke:none;fill:#477881;"/>
<text x="141.800000" y="262.000000" font-family="Arial" font-size="7" text-anchor="middle" fill="#FFFFFF">hslider(gain, 0.0f, 0.0f, 1.0f, 0.10000000000000001f)</text>
<circle cx="27.700000" cy="250.000000" r="1"/>
<rect x="276.600000" y="137.000000" width="24.000000" height="24.000000" rx="0" ry="0" style="stroke:none;fill:#cccccc;"/>
<rect x="275.600000" y="136.000000" width="24.000000" height="24.000000" rx="0" ry="0" style="stroke:none;fill:#4B71A1;"/>
<text x="287.600000" y="150.000000" font-family="Arial" font-size="7" text-anchor="middle" fill="#FFFFFF">*</text>
<circle cx="277.600000" cy="138.000000" r="1"/>
<line x1="272.600000" y1="143.000000" x2="275.600000" y2="144.000000"  transform="rotate(0.000000,275.600000,144.000000)" style="stroke: black; stroke-width:0.25;"/>
<line x1="272.600000" y1="145.000000" x2="275.600000" y2="144.000000"  transform="rotate(0.000000,275.600000,144.000000)" style="stroke: black; stroke-width:0.25;"/>
<line x1="272.600000" y1="151.000000" x2="275.600000" y2="152.000000"  transform="rotate(0.000000,275.600000,152.000000)" style="stroke: black; stroke-width:0.25;"/>
<line x1="272.600000" y1="153.000000" x2="275.600000" y2="152.000000"  transform="rotate(0.000000,275.600000,152.000000)" style="stroke: black; stroke-width:0.25;"/>
<line x1="15.000000" y1="15.000000" x2="15.000000" y2="281.000000"  style="stroke: black; stroke-linecap:round; stroke-width:0.25; stroke-dasharray:3,3;"/>
<line x1="15.000000" y1="281.000000" x2="316.600000" y2="281.000000"  style="stroke: black; stroke-linecap:round; stroke-width:0.25; stroke-dasharray:3,3;"/>
<line x1="316.600000" y1="281.000000" x2="316.600000" y2="15.000000"  style="stroke: black; stroke-linecap:round; stroke-width:0.25; stroke-dasharray:3,3;"/>
<line x1="15.000000" y1="15.000000" x2="20.000000" y2="15.000000"  style="stroke: black; stroke-linecap:round; stroke-width:0.25; stroke-dasharray:3,3;"/>
<line x1="49.025000" y1="15.000000" x2="316.600000" y2="15.000000"  style="stroke: black; stroke-linecap:round; stroke-width:0.25; stroke-dasharray:3,3;"/>
<text x="20.000000" y="17.000000" font-family="Arial" font-size="7">process</text>
<line x1="318.600000" y1="147.000000" x2="321.600000" y2="148.000000"  transform="rotate(0.000000,321.600000,148.000000)" style="stroke: black; stroke-width:0.25;"/>
<line x1="318.600000" y1="149.000000" x2="321.600000" y2="148.000000"  transform="rotate(0.000000,321.600000,148.000000)" style="stroke: black; stroke-width:0.25;"/>
<line x1="48.000000" y1="86.000000" x2="48.000000" y2="86.000000"  style="stroke:black; stroke-linecap:round; stroke-width:0.25;"/>
<line x1="48.000000" y1="86.000000" x2="48.000000" y2="136.000000"  style="stroke:black; stroke-linecap:round; stroke-width:0.25;"/>
<line x1="48.000000" y1="136.000000" x2="48.000000" y2="136.000000"  style="stroke:black; stroke-linecap:round; stroke-width:0.25;"/>
<line x1="48.000000" y1="136.000000" x2="80.900000" y2="136.000000"  style="stroke:black; stroke-linecap:round; stroke-width:0.25;"/>
<line x1="52.000000" y1="86.000000" x2="48.000000" y2="86.000000"  style="stroke:black; stroke-linecap:round; stroke-width:0.25;"/>
<line x1="80.000000" y1="82.000000" x2="76.000000" y2="82.000000"  style="stroke:black; stroke-linecap:round; stroke-width:0.25;"/>
<line x1="80.000000" y1="90.000000" x2="76.000000" y2="90.000000"  style="stroke:black; stroke-linecap:round; stroke-width:0.25;"/>
<line x1="80.000000" y1="90.000000" x2="80.000000" y2="90.000000"  style="stroke:black; stroke-linecap:round; stroke-width:0.25;"/>
<line x1="80.000000" y1="112.000000" x2="80.000000" y2="90.000000"  style="stroke:black; stroke-linecap:round; stroke-width:0.25;"/>
<line x1="80.900000" y1="136.000000" x2="97.800000" y2="136.000000"  style="stroke:black; stroke-linecap:round; stroke-width:0.25;"/>
<line x1="88.000000" y1="66.000000" x2="88.000000" y2="66.000000"  style="stroke:black; stroke-linecap:round; stroke-width:0.25;"/>
<line x1="88.000000" y1="66.000000" x2="88.000000" y2="82.000000"  style="stroke:black; stroke-linecap:round; stroke-width:0.25;"/>
<line x1="88.000000" y1="82.000000" x2="80.000000" y2="82.000000"  style="stroke:black; stroke-linecap:round; stroke-width:0.25;"/>
<line x1="88.000000" y1="112.000000" x2="80.000000" y2="112.000000"  style="stroke:black; stroke-linecap:round; stroke-width:0.25;"/>
<line x1="92.000000" y1="112.000000" x2="88.000000" y2="112.000000"  style="stroke:black; stroke-linecap:round; stroke-width:0.25;"/>
<line x1="97.800000" y1="136.000000" x2="114.700000" y2="136.000000"  style="stroke:black; stroke-linecap:round; stroke-width:0.25;"/>
<line x1="110.700000" y1="156.000000" x2="114.700000" y2="156.000000"  style="stroke:black; stroke-linecap:round; stroke-width:0.25;"/>
<line x1="111.800000" y1="66.000000" x2="88.000000" y2="66.000000"  style="stroke:black; stroke-linecap:round; stroke-width:0.25;"/>
<line x1="114.700000" y1="156.000000" x2="122.700000" y2="156.000000"  style="stroke:black; stroke-linecap:round; stroke-width:0.25;"/>
<line x1="114.700000" y1="136.000000" x2="122.700000" y2="136.000000"  style="stroke:black; stroke-linecap:round; stroke-width:0.25;"/>
<line x1="120.000000" y1="108.000000" x2="116.000000" y2="108.000000"  style="stroke:black; stroke-linecap:round; stroke-width:0.25;"/>
<line x1="120.000000" y1="116.000000" x2="116.000000" y2="116.000000"  style="stroke:black; stroke-linecap:round; stroke-width:0.25;"/>
<line x1="120.000000" y1="116.000000" x2="120.000000" y2="116.000000"  style="stroke:black; stroke-linecap:round; stroke-width:0.25;"/>
<line x1="120.000000" y1="128.000000" x2="120.000000" y2="116.000000"  style="stroke:black; stroke-linecap:round; stroke-width:0.25;"/>
<line x1="121.800000" y1="66.000000" x2="111.800000" y2="66.000000"  style="stroke:black; stroke-linecap:round; stroke-width:0.25;"/>
<line x1="122.700000" y1="148.000000" x2="126.700000" y2="148.000000"  style="stroke:black; stroke-linecap:round; stroke-width:0.25;"/>
<line x1="122.700000" y1="156.000000" x2="126.700000" y2="156.000000"  style="stroke:black; stroke-linecap:round; stroke-width:0.25;"/>
<line x1="122.700000" y1="136.000000" x2="122.700000" y2="148.000000"  style="stroke:black; stroke-linecap:round; stroke-width:0.25;"/>
<line x1="122.700000" y1="148.000000" x2="122.700000" y2="148.000000"  style="stroke:black; stroke-linecap:round; stroke-width:0.25;"/>
<line x1="125.800000" y1="66.000000" x2="121.800000" y2="66.000000"  style="stroke:black; stroke-linecap:round; stroke-width:0.25;"/>
<line x1="128.000000" y1="108.000000" x2="120.000000" y2="108.000000"  style="stroke:black; stroke-linecap:round; stroke-width:0.25;"/>
<line x1="128.000000" y1="128.000000" x2="120.000000" y2="128.000000"  style="stroke:black; stroke-linecap:round; stroke-width:0.25;"/>
<line x1="132.000000" y1="108.000000" x2="128.000000" y2="108.000000"  style="stroke:black; stroke-linecap:round; stroke-width:0.25;"/>
<line x1="143.600000" y1="208.000000" x2="147.600000" y2="208.000000"  style="stroke:black; stroke-linecap:round; stroke-width:0.25;"/>
<line x1="147.600000" y1="208.000000" x2="157.600000" y2="208.000000"  style="stroke:black; stroke-linecap:round; stroke-width:0.25;"/>
<line x1="150.700000" y1="152.000000" x2="154.700000" y2="152.000000"  style="stroke:black; stroke-linecap:round; stroke-width:0.25;"/>
<line x1="154.700000" y1="152.000000" x2="187.600000" y2="152.000000"  style="stroke:black; stroke-linecap:round; stroke-width:0.25;"/>
<line x1="157.600000" y1="208.000000" x2="205.600000" y2="208.000000"  style="stroke:black; stroke-linecap:round; stroke-width:0.25;"/>
<line x1="157.800000" y1="128.000000" x2="128.000000" y2="128.000000"  style="stroke:black; stroke-linecap:round; stroke-width:0.25;"/>
<line x1="187.600000" y1="128.000000" x2="187.600000" y2="128.000000"  style="stroke:black; stroke-linecap:round; stroke-width:0.25;"/>
<line x1="187.600000" y1="148.000000" x2="187.600000" y2="128.000000"  style="stroke:black; stroke-linecap:round; stroke-width:0.25;"/>
<line x1="187.600000" y1="152.000000" x2="189.600000" y2="152.000000"  style="stroke:black; stroke-linecap:round; stroke-width:0.25;"/>
<line x1="187.600000" y1="128.000000" x2="157.800000" y2="128.000000"  style="stroke:black; stroke-linecap:round; stroke-width:0.25;"/>
<line x1="189.600000" y1="152.000000" x2="195.600000" y2="152.000000"  style="stroke:black; stroke-linecap:round; stroke-width:0.25;"/>
<line x1="195.600000" y1="152.000000" x2="205.600000" y2="152.000000"  style="stroke:black; stroke-linecap:round; stroke-width:0.25;"/>
<line x1="205.600000" y1="128.000000" x2="221.600000" y2="128.000000"  style="stroke:black; stroke-linecap:round; stroke-width:0.25;"/>
<line x1="205.600000" y1="152.000000" x2="205.600000" y2="128.000000"  style="stroke:black; stroke-linecap:round; stroke-width:0.25;"/>
<line x1="205.600000" y1="152.000000" x2="205.600000" y2="152.000000"  style="stroke:black; stroke-linecap:round; stroke-width:0.25;"/>
<line x1="205.600000" y1="208.000000" x2="213.600000" y2="208.000000"  style="stroke:black; stroke-linecap:round; stroke-width:0.25;"/>
<line x1="213.600000" y1="136.000000" x2="221.600000" y2="136.000000"  style="stroke:black; stroke-linecap:round; stroke-width:0.25;"/>
<line x1="213.600000" y1="208.000000" x2="213.600000" y2="136.000000"  style="stroke:black; stroke-linecap:round; stroke-width:0.25;"/>
<line x1="221.600000" y1="128.000000" x2="225.600000" y2="128.000000"  style="stroke:black; stroke-linecap:round; stroke-width:0.25;"/>
<line x1="221.600000" y1="136.000000" x2="225.600000" y2="136.000000"  style="stroke:black; stroke-linecap:round; stroke-width:0.25;"/>
<line x1="249.600000" y1="132.000000" x2="253.600000" y2="132.000000"  style="stroke:black; stroke-linecap:round; stroke-width:0.25;"/>
<line x1="253.600000" y1="132.000000" x2="263.600000" y2="132.000000"  style="stroke:black; stroke-linecap:round; stroke-width:0.25;"/>
<line x1="257.900000" y1="260.000000" x2="261.900000" y2="260.000000"  style="stroke:black; stroke-linecap:round; stroke-width:0.25;"/>
<line x1="261.900000" y1="260.000000" x2="263.600000" y2="260.000000"  style="stroke:black; stroke-linecap:round; stroke-width:0.25;"/>
<line x1="263.600000" y1="152.000000" x2="271.600000" y2="152.000000"  style="stroke:black; stroke-linecap:round; stroke-width:0.25;"/>
<line x1="263.600000" y1="260.000000" x2="263.600000" y2="152.000000"  style="stroke:black; stroke-linecap:round; stroke-width:0.25;"/>
<line x1="263.600000" y1="260.000000" x2="263.600000" y2="260.000000"  style="stroke:black; stroke-linecap:round; stroke-width:0.25;"/>
<line x1="263.600000" y1="132.000000" x2="271.600000" y2="132.000000"  style="stroke:black; stroke-linecap:round; stroke-width:0.25;"/>
<line x1="271.600000" y1="132.000000" x2="271.600000" y2="144.000000"  style="stroke:black; stroke-linecap:round; stroke-width:0.25;"/>
<line x1="271.600000" y1="144.000000" x2="271.600000" y2="144.000000"  style="stroke:black; stroke-linecap:round; stroke-width:0.25;"/>
<line x1="271.600000" y1="144.000000" x2="275.600000" y2="144.000000"  style="stroke:black; stroke-linecap:round; stroke-width:0.25;"/>
<line x1="271.600000" y1="152.000000" x2="275.600000" y2="152.000000"  style="stroke:black; stroke-linecap:round; stroke-width:0.25;"/>
<line x1="299.600000" y1="148.000000" x2="303.600000" y2="148.000000"  style="stroke:black; stroke-linecap:round; stroke-width:0.25;"/>
<line x1="303.600000" y1="148.000000" x2="303.600000" y2="148.000000"  style="stroke:black; stroke-linecap:round; stroke-width:0.25;"/>
<line x1="303.600000" y1="148.000000" x2="307.600000" y2="148.000000"  style="stroke:black; stroke-linecap:round; stroke-width:0.25;"/>
<line x1="307.600000" y1="148.000000" x2="311.600000" y2="148.000000"  style="stroke:black; stroke-linecap:round; stroke-width:0.25;"/>
<line x1="311.600000" y1="148.000000" x2="321.600000" y2="148.000000"  style="stroke:black; stroke-linecap:round; stroke-width:0.25;"/>
</svg>
