<svg width="2000px" height="2000px" version="1.1"
     xmlns="http://www.w3.org/2000/svg">
  <circle cx="-283" cy="-820" r="680" style="fill:rgb(209,206,222);opacity:0.10518184349;" />
  <circle cx="-17" cy="1771" r="291" style="fill:rgb(236,184,221);opacity:0.201905600467;" />
  <circle cx="-439" cy="-270" r="897" style="fill:rgb(205,241,244);opacity:0.189019914111;" />
  <circle cx="903" cy="621" r="355" style="fill:rgb(166,170,244);opacity:0.186466089611;" />
  <circle cx="-226" cy="4" r="890" style="fill:rgb(224,158,163);opacity:0.324009958073;" />
  <circle cx="1461" cy="-759" r="249" style="fill:rgb(152,202,179);opacity:0.046205516141;" />
  <circle cx="244" cy="1384" r="386" style="fill:rgb(165,210,244);opacity:0.133009531516;" />
  <circle cx="806" cy="936" r="250" style="fill:rgb(240,208,244);opacity:0.407484991217;" />
  <circle cx="-411" cy="-781" r="723" style="fill:rgb(169,226,246);opacity:0.465196947063;" />
  <circle cx="-359" cy="-839" r="535" style="fill:rgb(161,217,242);opacity:0.18815773583;" />
  <circle cx="284" cy="1110" r="598" style="fill:rgb(207,174,220);opacity:0.457510346362;" />
  <circle cx="1255" cy="1050" r="849" style="fill:rgb(219,253,245);opacity:0.469694541558;" />
  <circle cx="-706" cy="-952" r="659" style="fill:rgb(247,200,208);opacity:0.300119909665;" />
  <circle cx="810" cy="-78" r="268" style="fill:rgb(241,163,245);opacity:0.246193272795;" />
  <circle cx="1791" cy="-974" r="178" style="fill:rgb(202,153,217);opacity:0.413659626871;" />
  <circle cx="-816" cy="908" r="605" style="fill:rgb(212,155,202);opacity:0.365361405094;" />
  <circle cx="1759" cy="-802" r="477" style="fill:rgb(226,160,196);opacity:0.12371769032;" />
  <circle cx="1338" cy="1929" r="600" style="fill:rgb(174,235,187);opacity:0.361688241985;" />
  <circle cx="-731" cy="-442" r="122" style="fill:rgb(240,223,166);opacity:0.405612973281;" />
  <circle cx="237" cy="-808" r="192" style="fill:rgb(153,214,255);opacity:0.431776490194;" />
  <circle cx="1434" cy="-363" r="722" style="fill:rgb(235,190,224);opacity:0.168842897945;" />
  <circle cx="-393" cy="963" r="452" style="fill:rgb(164,153,235);opacity:0.461463009681;" />
  <circle cx="863" cy="207" r="574" style="fill:rgb(243,161,168);opacity:0.344414058541;" />
  <circle cx="1099" cy="25" r="691" style="fill:rgb(209,190,232);opacity:0.189043374936;" />
  <circle cx="-820" cy="2000" r="458" style="fill:rgb(180,186,207);opacity:0.460411347194;" />
  <circle cx="1520" cy="309" r="485" style="fill:rgb(239,216,171);opacity:0.31317466068;" />
  <circle cx="120" cy="1785" r="577" style="fill:rgb(191,252,206);opacity:0.241206210069;" />
  <circle cx="-308" cy="763" r="950" style="fill:rgb(184,229,251);opacity:0.204380468758;" />
  <circle cx="1757" cy="226" r="555" style="fill:rgb(255,163,254);opacity:0.493264904506;" />
  <circle cx="1271" cy="1017" r="778" style="fill:rgb(190,211,194);opacity:0.0539203790096;" />
  <circle cx="1144" cy="867" r="666" style="fill:rgb(153,247,166);opacity:0.493810062827;" />
  <circle cx="-766" cy="1584" r="251" style="fill:rgb(204,222,203);opacity:0.420023872694;" />
  <circle cx="688" cy="683" r="880" style="fill:rgb(242,223,193);opacity:0.018136872407;" />
  <circle cx="528" cy="-532" r="221" style="fill:rgb(175,196,238);opacity:0.285218186117;" />
  <circle cx="-903" cy="-873" r="333" style="fill:rgb(230,222,234);opacity:0.275001687543;" />
  <circle cx="1294" cy="251" r="854" style="fill:rgb(225,248,177);opacity:0.0164838967158;" />
  <circle cx="492" cy="-234" r="385" style="fill:rgb(170,212,217);opacity:0.0676403945513;" />
  <circle cx="925" cy="-233" r="512" style="fill:rgb(253,198,209);opacity:0.142919969512;" />
  <circle cx="1544" cy="138" r="341" style="fill:rgb(167,169,180);opacity:0.471692760407;" />
  <circle cx="-593" cy="126" r="864" style="fill:rgb(186,200,237);opacity:0.187670047189;" />
  <circle cx="117" cy="-578" r="198" style="fill:rgb(176,170,183);opacity:0.00410746755968;" />
  <circle cx="-619" cy="151" r="179" style="fill:rgb(224,175,202);opacity:0.0579393405837;" />
  <circle cx="32" cy="-397" r="694" style="fill:rgb(215,159,151);opacity:0.0866677283475;" />
  <circle cx="-691" cy="422" r="782" style="fill:rgb(188,176,201);opacity:0.347110127747;" />
  <circle cx="922" cy="-376" r="823" style="fill:rgb(167,253,220);opacity:0.162553918266;" />
  <circle cx="-506" cy="1513" r="495" style="fill:rgb(232,254,176);opacity:0.165011175849;" />
  <circle cx="1842" cy="-277" r="381" style="fill:rgb(174,154,152);opacity:0.214388773669;" />
  <circle cx="474" cy="-590" r="768" style="fill:rgb(171,195,153);opacity:0.349675723659;" />
  <circle cx="1953" cy="1199" r="510" style="fill:rgb(185,227,188);opacity:0.314665364112;" />
  <circle cx="1484" cy="1399" r="275" style="fill:rgb(236,216,215);opacity:0.0204536708419;" />
  <circle cx="1809" cy="1019" r="992" style="fill:rgb(251,222,202);opacity:0.359095571669;" />
  <circle cx="38" cy="1061" r="862" style="fill:rgb(166,163,155);opacity:0.311279573639;" />
  <circle cx="-316" cy="-640" r="115" style="fill:rgb(171,237,238);opacity:0.411068094424;" />
  <circle cx="696" cy="-240" r="949" style="fill:rgb(243,214,183);opacity:0.05141268823;" />
  <circle cx="1683" cy="-293" r="645" style="fill:rgb(226,156,233);opacity:0.217272700122;" />
  <circle cx="954" cy="1278" r="330" style="fill:rgb(153,157,250);opacity:0.397827337055;" />
  <circle cx="-663" cy="980" r="109" style="fill:rgb(249,236,157);opacity:0.111599480982;" />
  <circle cx="-945" cy="576" r="789" style="fill:rgb(212,254,212);opacity:0.33631775526;" />
  <circle cx="-320" cy="1646" r="916" style="fill:rgb(210,248,237);opacity:0.246740767103;" />
  <circle cx="161" cy="-603" r="659" style="fill:rgb(179,155,241);opacity:0.384982635817;" />
  <circle cx="222" cy="276" r="463" style="fill:rgb(236,199,158);opacity:0.221925659231;" />
  <circle cx="1082" cy="933" r="353" style="fill:rgb(255,251,196);opacity:0.353552330752;" />
  <circle cx="-835" cy="959" r="899" style="fill:rgb(155,208,223);opacity:0.405096798784;" />
  <circle cx="1021" cy="1208" r="147" style="fill:rgb(160,220,159);opacity:0.0423373123594;" />
  <circle cx="485" cy="1286" r="800" style="fill:rgb(177,165,188);opacity:0.0861967132144;" />
  <circle cx="-128" cy="1493" r="238" style="fill:rgb(166,181,207);opacity:0.488668792523;" />
  <circle cx="893" cy="1942" r="422" style="fill:rgb(175,176,225);opacity:0.44671165961;" />
  <circle cx="1404" cy="240" r="121" style="fill:rgb(252,221,248);opacity:0.357761343149;" />
  <circle cx="1899" cy="-471" r="753" style="fill:rgb(154,255,212);opacity:0.336924607578;" />
  <circle cx="-985" cy="604" r="493" style="fill:rgb(158,248,163);opacity:0.335071205493;" />
  <circle cx="1409" cy="896" r="549" style="fill:rgb(191,150,250);opacity:0.167760820306;" />
  <circle cx="1241" cy="950" r="216" style="fill:rgb(208,214,205);opacity:0.387370139114;" />
  <circle cx="595" cy="1185" r="611" style="fill:rgb(186,186,176);opacity:0.339292518973;" />
  <circle cx="-498" cy="373" r="604" style="fill:rgb(235,184,251);opacity:0.34130007572;" />
  <circle cx="1640" cy="1779" r="466" style="fill:rgb(204,216,213);opacity:0.349285509256;" />
  <circle cx="1877" cy="1193" r="819" style="fill:rgb(241,188,241);opacity:0.229589657005;" />
  <circle cx="-162" cy="242" r="443" style="fill:rgb(153,195,159);opacity:0.2719984825;" />
  <circle cx="1730" cy="1716" r="578" style="fill:rgb(251,249,240);opacity:0.367290000148;" />
  <circle cx="571" cy="-588" r="618" style="fill:rgb(218,238,197);opacity:0.36477263749;" />
  <circle cx="1144" cy="350" r="133" style="fill:rgb(202,200,151);opacity:0.261804738807;" />
  <circle cx="1755" cy="-73" r="489" style="fill:rgb(207,155,249);opacity:0.226038052717;" />
  <circle cx="155" cy="657" r="129" style="fill:rgb(243,177,198);opacity:0.469986696565;" />
  <circle cx="1711" cy="1886" r="443" style="fill:rgb(237,155,205);opacity:0.317767055093;" />
  <circle cx="61" cy="902" r="495" style="fill:rgb(162,236,206);opacity:0.40421929003;" />
  <circle cx="1466" cy="-626" r="318" style="fill:rgb(166,165,217);opacity:0.0538198338108;" />
  <circle cx="1660" cy="-618" r="232" style="fill:rgb(241,151,176);opacity:0.372979328129;" />
  <circle cx="33" cy="36" r="709" style="fill:rgb(160,191,237);opacity:0.405575983366;" />
  <circle cx="-609" cy="-420" r="501" style="fill:rgb(237,195,178);opacity:0.231519528345;" />
  <circle cx="641" cy="473" r="121" style="fill:rgb(159,235,247);opacity:0.00658882200947;" />
  <circle cx="1753" cy="-637" r="388" style="fill:rgb(169,234,255);opacity:0.371647331559;" />
  <circle cx="-437" cy="-512" r="316" style="fill:rgb(229,218,227);opacity:0.200477949716;" />
  <circle cx="534" cy="1300" r="472" style="fill:rgb(255,194,190);opacity:0.308886626894;" />
  <circle cx="-547" cy="-97" r="460" style="fill:rgb(243,162,180);opacity:0.230516527867;" />
  <circle cx="28" cy="760" r="152" style="fill:rgb(170,225,167);opacity:0.162056976053;" />
  <circle cx="112" cy="-999" r="243" style="fill:rgb(178,185,211);opacity:0.120524150975;" />
  <circle cx="-495" cy="-598" r="122" style="fill:rgb(187,203,241);opacity:0.196543005695;" />
  <circle cx="102" cy="96" r="578" style="fill:rgb(150,158,222);opacity:0.3084725906;" />
  <circle cx="1504" cy="1619" r="405" style="fill:rgb(174,205,179);opacity:0.250701913533;" />
  <circle cx="770" cy="798" r="453" style="fill:rgb(206,160,162);opacity:0.418014008316;" />
  <circle cx="285" cy="939" r="476" style="fill:rgb(184,223,176);opacity:0.0845715446553;" />
</svg>