<?xml version="1.0"?>
<svg xmlns="http://www.w3.org/2000/svg" xmlns:xlink="http://www.w3.org/1999/xlink" viewBox="0 0 402.800000 200.000000" width="201.400000mm" height="100.000000mm" version="1.1">
<a xlink:href="R-0x7f7280324e30.svg">
<rect x="1.000000" y="1.000000" width="401.800000" height="199.000000" rx="0" ry="0" style="stroke:none;fill:#cccccc;"/>
<rect x="0.000000" y="0.000000" width="401.800000" height="199.000000" rx="0" ry="0" style="stroke:none;fill:#ffffff;"/>
</a>
<text x="10.000000" y="7.000000" font-family="Arial" font-size="7"></text>
<rect x="166.400000" y="25.000000" width="24.000000" height="24.000000" rx="0" ry="0" style="stroke:none;fill:#cccccc;"/>
<rect x="165.400000" y="24.000000" width="24.000000" height="24.000000" rx="0" ry="0" style="stroke:none;fill:#f44800;"/>
<text x="177.400000" y="38.000000" font-family="Arial" font-size="7" text-anchor="middle" fill="#FFFFFF">2</text>
<circle cx="167.400000" cy="26.000000" r="1"/>
<rect x="126.400000" y="57.000000" width="24.000000" height="24.000000" rx="0" ry="0" style="stroke:none;fill:#cccccc;"/>
<rect x="125.400000" y="56.000000" width="24.000000" height="24.000000" rx="0" ry="0" style="stroke:none;fill:#f44800;"/>
<text x="137.400000" y="70.000000" font-family="Arial" font-size="7" text-anchor="middle" fill="#FFFFFF">2</text>
<circle cx="127.400000" cy="58.000000" r="1"/>
<rect x="106.400000" y="89.000000" width="24.000000" height="24.000000" rx="0" ry="0" style="stroke:none;fill:#cccccc;"/>
<rect x="105.400000" y="88.000000" width="24.000000" height="24.000000" rx="0" ry="0" style="stroke:none;fill:#f44800;"/>
<text x="117.400000" y="102.000000" font-family="Arial" font-size="7" text-anchor="middle" fill="#FFFFFF">1</text>
<circle cx="107.400000" cy="90.000000" r="1"/>
<rect x="25.000000" y="121.000000" width="24.000000" height="24.000000" rx="0" ry="0" style="stroke:none;fill:#cccccc;"/>
<rect x="24.000000" y="120.000000" width="24.000000" height="24.000000" rx="0" ry="0" style="stroke:none;fill:#47945E;"/>
<text x="36.000000" y="134.000000" font-family="Arial" font-size="7" text-anchor="middle" fill="#FFFFFF">x</text>
<circle cx="26.000000" cy="122.000000" r="1"/>
<a xlink:href="amp-0x7f7280323570.svg">
<rect x="57.000000" y="121.000000" width="154.800000" height="24.000000" rx="0" ry="0" style="stroke:none;fill:#cccccc;"/>
<rect x="56.000000" y="120.000000" width="154.800000" height="24.000000" rx="0" ry="0" style="stroke:none;fill:#003366;"/>
</a>
<a xlink:href="amp-0x7f7280323570.svg">
<text x="133.400000" y="134.000000" font-family="Arial" font-size="7" text-anchor="middle" fill="#FFFFFF">amp_follower(0.10000000000000001f)</text>
</a>
<circle cx="58.000000" cy="122.000000" r="1"/>
<line x1="53.000000" y1="131.000000" x2="56.000000" y2="132.000000"  transform="rotate(0.000000,56.000000,132.000000)" style="stroke: black; stroke-width:0.25;"/>
<line x1="53.000000" y1="133.000000" x2="56.000000" y2="132.000000"  transform="rotate(0.000000,56.000000,132.000000)" style="stroke: black; stroke-width:0.25;"/>
<rect x="227.800000" y="105.000000" width="24.000000" height="24.000000" rx="0" ry="0" style="stroke:none;fill:#cccccc;"/>
<rect x="226.800000" y="104.000000" width="24.000000" height="24.000000" rx="0" ry="0" style="stroke:none;fill:#4B71A1;"/>
<text x="238.800000" y="118.000000" font-family="Arial" font-size="7" text-anchor="middle" fill="#FFFFFF">-</text>
<circle cx="228.800000" cy="106.000000" r="1"/>
<line x1="223.800000" y1="111.000000" x2="226.800000" y2="112.000000"  transform="rotate(0.000000,226.800000,112.000000)" style="stroke: black; stroke-width:0.25;"/>
<line x1="223.800000" y1="113.000000" x2="226.800000" y2="112.000000"  transform="rotate(0.000000,226.800000,112.000000)" style="stroke: black; stroke-width:0.25;"/>
<line x1="223.800000" y1="119.000000" x2="226.800000" y2="120.000000"  transform="rotate(0.000000,226.800000,120.000000)" style="stroke: black; stroke-width:0.25;"/>
<line x1="223.800000" y1="121.000000" x2="226.800000" y2="120.000000"  transform="rotate(0.000000,226.800000,120.000000)" style="stroke: black; stroke-width:0.25;"/>
<rect x="267.800000" y="89.000000" width="24.000000" height="24.000000" rx="0" ry="0" style="stroke:none;fill:#cccccc;"/>
<rect x="266.800000" y="88.000000" width="24.000000" height="24.000000" rx="0" ry="0" style="stroke:none;fill:#4B71A1;"/>
<text x="278.800000" y="102.000000" font-family="Arial" font-size="7" text-anchor="middle" fill="#FFFFFF">*</text>
<circle cx="268.800000" cy="90.000000" r="1"/>
<line x1="263.800000" y1="95.000000" x2="266.800000" y2="96.000000"  transform="rotate(0.000000,266.800000,96.000000)" style="stroke: black; stroke-width:0.25;"/>
<line x1="263.800000" y1="97.000000" x2="266.800000" y2="96.000000"  transform="rotate(0.000000,266.800000,96.000000)" style="stroke: black; stroke-width:0.25;"/>
<line x1="263.800000" y1="103.000000" x2="266.800000" y2="104.000000"  transform="rotate(0.000000,266.800000,104.000000)" style="stroke: black; stroke-width:0.25;"/>
<line x1="263.800000" y1="105.000000" x2="266.800000" y2="104.000000"  transform="rotate(0.000000,266.800000,104.000000)" style="stroke: black; stroke-width:0.25;"/>
<rect x="146.400000" y="153.000000" width="24.000000" height="24.000000" rx="0" ry="0" style="stroke:none;fill:#cccccc;"/>
<rect x="145.400000" y="152.000000" width="24.000000" height="24.000000" rx="0" ry="0" style="stroke:none;fill:#f44800;"/>
<text x="157.400000" y="166.000000" font-family="Arial" font-size="7" text-anchor="middle" fill="#FFFFFF">1</text>
<circle cx="147.400000" cy="154.000000" r="1"/>
<rect x="307.800000" y="105.000000" width="24.000000" height="24.000000" rx="0" ry="0" style="stroke:none;fill:#cccccc;"/>
<rect x="306.800000" y="104.000000" width="24.000000" height="24.000000" rx="0" ry="0" style="stroke:none;fill:#4B71A1;"/>
<text x="318.800000" y="118.000000" font-family="Arial" font-size="7" text-anchor="middle" fill="#FFFFFF">+</text>
<circle cx="308.800000" cy="106.000000" r="1"/>
<line x1="303.800000" y1="111.000000" x2="306.800000" y2="112.000000"  transform="rotate(0.000000,306.800000,112.000000)" style="stroke: black; stroke-width:0.25;"/>
<line x1="303.800000" y1="113.000000" x2="306.800000" y2="112.000000"  transform="rotate(0.000000,306.800000,112.000000)" style="stroke: black; stroke-width:0.25;"/>
<line x1="303.800000" y1="119.000000" x2="306.800000" y2="120.000000"  transform="rotate(0.000000,306.800000,120.000000)" style="stroke: black; stroke-width:0.25;"/>
<line x1="303.800000" y1="121.000000" x2="306.800000" y2="120.000000"  transform="rotate(0.000000,306.800000,120.000000)" style="stroke: black; stroke-width:0.25;"/>
<rect x="347.800000" y="89.000000" width="24.000000" height="24.000000" rx="0" ry="0" style="stroke:none;fill:#cccccc;"/>
<rect x="346.800000" y="88.000000" width="24.000000" height="24.000000" rx="0" ry="0" style="stroke:none;fill:#4B71A1;"/>
<text x="358.800000" y="102.000000" font-family="Arial" font-size="7" text-anchor="middle" fill="#FFFFFF">pow</text>
<circle cx="348.800000" cy="90.000000" r="1"/>
<line x1="343.800000" y1="95.000000" x2="346.800000" y2="96.000000"  transform="rotate(0.000000,346.800000,96.000000)" style="stroke: black; stroke-width:0.25;"/>
<line x1="343.800000" y1="97.000000" x2="346.800000" y2="96.000000"  transform="rotate(0.000000,346.800000,96.000000)" style="stroke: black; stroke-width:0.25;"/>
<line x1="343.800000" y1="103.000000" x2="346.800000" y2="104.000000"  transform="rotate(0.000000,346.800000,104.000000)" style="stroke: black; stroke-width:0.25;"/>
<line x1="343.800000" y1="105.000000" x2="346.800000" y2="104.000000"  transform="rotate(0.000000,346.800000,104.000000)" style="stroke: black; stroke-width:0.25;"/>
<line x1="15.000000" y1="15.000000" x2="15.000000" y2="185.000000"  style="stroke: black; stroke-linecap:round; stroke-width:0.25; stroke-dasharray:3,3;"/>
<line x1="15.000000" y1="185.000000" x2="387.800000" y2="185.000000"  style="stroke: black; stroke-linecap:round; stroke-width:0.25; stroke-dasharray:3,3;"/>
<line x1="387.800000" y1="185.000000" x2="387.800000" y2="15.000000"  style="stroke: black; stroke-linecap:round; stroke-width:0.25; stroke-dasharray:3,3;"/>
<line x1="15.000000" y1="15.000000" x2="20.000000" y2="15.000000"  style="stroke: black; stroke-linecap:round; stroke-width:0.25; stroke-dasharray:3,3;"/>
<line x1="29.675000" y1="15.000000" x2="387.800000" y2="15.000000"  style="stroke: black; stroke-linecap:round; stroke-width:0.25; stroke-dasharray:3,3;"/>
<text x="20.000000" y="17.000000" font-family="Arial" font-size="7">Q</text>
<line x1="389.800000" y1="99.000000" x2="392.800000" y2="100.000000"  transform="rotate(0.000000,392.800000,100.000000)" style="stroke: black; stroke-width:0.25;"/>
<line x1="389.800000" y1="101.000000" x2="392.800000" y2="100.000000"  transform="rotate(0.000000,392.800000,100.000000)" style="stroke: black; stroke-width:0.25;"/>
<line x1="48.000000" y1="132.000000" x2="52.000000" y2="132.000000"  style="stroke:black; stroke-linecap:round; stroke-width:0.25;"/>
<line x1="52.000000" y1="132.000000" x2="52.000000" y2="132.000000"  style="stroke:black; stroke-linecap:round; stroke-width:0.25;"/>
<line x1="52.000000" y1="132.000000" x2="56.000000" y2="132.000000"  style="stroke:black; stroke-linecap:round; stroke-width:0.25;"/>
<line x1="129.400000" y1="100.000000" x2="133.400000" y2="100.000000"  style="stroke:black; stroke-linecap:round; stroke-width:0.25;"/>
<line x1="133.400000" y1="100.000000" x2="214.800000" y2="100.000000"  style="stroke:black; stroke-linecap:round; stroke-width:0.25;"/>
<line x1="149.400000" y1="68.000000" x2="153.400000" y2="68.000000"  style="stroke:black; stroke-linecap:round; stroke-width:0.25;"/>
<line x1="153.400000" y1="68.000000" x2="254.800000" y2="68.000000"  style="stroke:black; stroke-linecap:round; stroke-width:0.25;"/>
<line x1="169.400000" y1="164.000000" x2="173.400000" y2="164.000000"  style="stroke:black; stroke-linecap:round; stroke-width:0.25;"/>
<line x1="173.400000" y1="164.000000" x2="294.800000" y2="164.000000"  style="stroke:black; stroke-linecap:round; stroke-width:0.25;"/>
<line x1="189.400000" y1="36.000000" x2="193.400000" y2="36.000000"  style="stroke:black; stroke-linecap:round; stroke-width:0.25;"/>
<line x1="193.400000" y1="36.000000" x2="334.800000" y2="36.000000"  style="stroke:black; stroke-linecap:round; stroke-width:0.25;"/>
<line x1="210.800000" y1="132.000000" x2="214.800000" y2="132.000000"  style="stroke:black; stroke-linecap:round; stroke-width:0.25;"/>
<line x1="214.800000" y1="100.000000" x2="222.800000" y2="100.000000"  style="stroke:black; stroke-linecap:round; stroke-width:0.25;"/>
<line x1="214.800000" y1="120.000000" x2="222.800000" y2="120.000000"  style="stroke:black; stroke-linecap:round; stroke-width:0.25;"/>
<line x1="214.800000" y1="132.000000" x2="214.800000" y2="120.000000"  style="stroke:black; stroke-linecap:round; stroke-width:0.25;"/>
<line x1="214.800000" y1="132.000000" x2="214.800000" y2="132.000000"  style="stroke:black; stroke-linecap:round; stroke-width:0.25;"/>
<line x1="222.800000" y1="100.000000" x2="222.800000" y2="112.000000"  style="stroke:black; stroke-linecap:round; stroke-width:0.25;"/>
<line x1="222.800000" y1="112.000000" x2="222.800000" y2="112.000000"  style="stroke:black; stroke-linecap:round; stroke-width:0.25;"/>
<line x1="222.800000" y1="112.000000" x2="226.800000" y2="112.000000"  style="stroke:black; stroke-linecap:round; stroke-width:0.25;"/>
<line x1="222.800000" y1="120.000000" x2="226.800000" y2="120.000000"  style="stroke:black; stroke-linecap:round; stroke-width:0.25;"/>
<line x1="250.800000" y1="116.000000" x2="254.800000" y2="116.000000"  style="stroke:black; stroke-linecap:round; stroke-width:0.25;"/>
<line x1="254.800000" y1="68.000000" x2="262.800000" y2="68.000000"  style="stroke:black; stroke-linecap:round; stroke-width:0.25;"/>
<line x1="254.800000" y1="104.000000" x2="262.800000" y2="104.000000"  style="stroke:black; stroke-linecap:round; stroke-width:0.25;"/>
<line x1="254.800000" y1="116.000000" x2="254.800000" y2="104.000000"  style="stroke:black; stroke-linecap:round; stroke-width:0.25;"/>
<line x1="254.800000" y1="116.000000" x2="254.800000" y2="116.000000"  style="stroke:black; stroke-linecap:round; stroke-width:0.25;"/>
<line x1="262.800000" y1="68.000000" x2="262.800000" y2="96.000000"  style="stroke:black; stroke-linecap:round; stroke-width:0.25;"/>
<line x1="262.800000" y1="96.000000" x2="262.800000" y2="96.000000"  style="stroke:black; stroke-linecap:round; stroke-width:0.25;"/>
<line x1="262.800000" y1="96.000000" x2="266.800000" y2="96.000000"  style="stroke:black; stroke-linecap:round; stroke-width:0.25;"/>
<line x1="262.800000" y1="104.000000" x2="266.800000" y2="104.000000"  style="stroke:black; stroke-linecap:round; stroke-width:0.25;"/>
<line x1="290.800000" y1="100.000000" x2="294.800000" y2="100.000000"  style="stroke:black; stroke-linecap:round; stroke-width:0.25;"/>
<line x1="294.800000" y1="100.000000" x2="302.800000" y2="100.000000"  style="stroke:black; stroke-linecap:round; stroke-width:0.25;"/>
<line x1="294.800000" y1="120.000000" x2="302.800000" y2="120.000000"  style="stroke:black; stroke-linecap:round; stroke-width:0.25;"/>
<line x1="294.800000" y1="164.000000" x2="294.800000" y2="120.000000"  style="stroke:black; stroke-linecap:round; stroke-width:0.25;"/>
<line x1="294.800000" y1="164.000000" x2="294.800000" y2="164.000000"  style="stroke:black; stroke-linecap:round; stroke-width:0.25;"/>
<line x1="302.800000" y1="100.000000" x2="302.800000" y2="112.000000"  style="stroke:black; stroke-linecap:round; stroke-width:0.25;"/>
<line x1="302.800000" y1="112.000000" x2="302.800000" y2="112.000000"  style="stroke:black; stroke-linecap:round; stroke-width:0.25;"/>
<line x1="302.800000" y1="112.000000" x2="306.800000" y2="112.000000"  style="stroke:black; stroke-linecap:round; stroke-width:0.25;"/>
<line x1="302.800000" y1="120.000000" x2="306.800000" y2="120.000000"  style="stroke:black; stroke-linecap:round; stroke-width:0.25;"/>
<line x1="330.800000" y1="116.000000" x2="334.800000" y2="116.000000"  style="stroke:black; stroke-linecap:round; stroke-width:0.25;"/>
<line x1="334.800000" y1="36.000000" x2="342.800000" y2="36.000000"  style="stroke:black; stroke-linecap:round; stroke-width:0.25;"/>
<line x1="334.800000" y1="104.000000" x2="342.800000" y2="104.000000"  style="stroke:black; stroke-linecap:round; stroke-width:0.25;"/>
<line x1="334.800000" y1="116.000000" x2="334.800000" y2="104.000000"  style="stroke:black; stroke-linecap:round; stroke-width:0.25;"/>
<line x1="334.800000" y1="116.000000" x2="334.800000" y2="116.000000"  style="stroke:black; stroke-linecap:round; stroke-width:0.25;"/>
<line x1="342.800000" y1="36.000000" x2="342.800000" y2="96.000000"  style="stroke:black; stroke-linecap:round; stroke-width:0.25;"/>
<line x1="342.800000" y1="96.000000" x2="342.800000" y2="96.000000"  style="stroke:black; stroke-linecap:round; stroke-width:0.25;"/>
<line x1="342.800000" y1="96.000000" x2="346.800000" y2="96.000000"  style="stroke:black; stroke-linecap:round; stroke-width:0.25;"/>
<line x1="342.800000" y1="104.000000" x2="346.800000" y2="104.000000"  style="stroke:black; stroke-linecap:round; stroke-width:0.25;"/>
<line x1="370.800000" y1="100.000000" x2="374.800000" y2="100.000000"  style="stroke:black; stroke-linecap:round; stroke-width:0.25;"/>
<line x1="374.800000" y1="100.000000" x2="374.800000" y2="100.000000"  style="stroke:black; stroke-linecap:round; stroke-width:0.25;"/>
<line x1="374.800000" y1="100.000000" x2="378.800000" y2="100.000000"  style="stroke:black; stroke-linecap:round; stroke-width:0.25;"/>
<line x1="378.800000" y1="100.000000" x2="382.800000" y2="100.000000"  style="stroke:black; stroke-linecap:round; stroke-width:0.25;"/>
<line x1="382.800000" y1="100.000000" x2="392.800000" y2="100.000000"  style="stroke:black; stroke-linecap:round; stroke-width:0.25;"/>
</svg>
