<?xml version="1.0"?>
<svg xmlns="http://www.w3.org/2000/svg" xmlns:xlink="http://www.w3.org/1999/xlink" viewBox="0 0 344.000000 136.000000" width="172.000000mm" height="68.000000mm" version="1.1">
<a xlink:href="amp-0x7f0cc03be270.svg">
<rect x="1.000000" y="1.000000" width="343.000000" height="135.000000" rx="0" ry="0" style="stroke:none;fill:#cccccc;"/>
<rect x="0.000000" y="0.000000" width="343.000000" height="135.000000" rx="0" ry="0" style="stroke:none;fill:#ffffff;"/>
</a>
<text x="10.000000" y="7.000000" font-family="Arial" font-size="7"></text>
<rect x="33.000000" y="57.000000" width="24.000000" height="24.000000" rx="0" ry="0" style="stroke:none;fill:#cccccc;"/>
<rect x="32.000000" y="56.000000" width="24.000000" height="24.000000" rx="0" ry="0" style="stroke:none;fill:#47945E;"/>
<text x="44.000000" y="70.000000" font-family="Arial" font-size="7" text-anchor="middle" fill="#FFFFFF">x</text>
<circle cx="34.000000" cy="58.000000" r="1"/>
<line x1="29.000000" y1="67.000000" x2="32.000000" y2="68.000000"  transform="rotate(0.000000,32.000000,68.000000)" style="stroke: black; stroke-width:0.25;"/>
<line x1="29.000000" y1="69.000000" x2="32.000000" y2="68.000000"  transform="rotate(0.000000,32.000000,68.000000)" style="stroke: black; stroke-width:0.25;"/>
<rect x="85.000000" y="25.000000" width="24.000000" height="24.000000" rx="0" ry="0" style="stroke:none;fill:#cccccc;"/>
<rect x="84.000000" y="24.000000" width="24.000000" height="24.000000" rx="0" ry="0" style="stroke:none;fill:#47945E;"/>
<text x="96.000000" y="38.000000" font-family="Arial" font-size="7" text-anchor="middle" fill="#FFFFFF">x</text>
<circle cx="86.000000" cy="26.000000" r="1"/>
<rect x="65.000000" y="57.000000" width="24.000000" height="24.000000" rx="0" ry="0" style="stroke:none;fill:#cccccc;"/>
<rect x="64.000000" y="56.000000" width="24.000000" height="24.000000" rx="0" ry="0" style="stroke:none;fill:#f44800;"/>
<text x="76.000000" y="70.000000" font-family="Arial" font-size="7" text-anchor="middle" fill="#FFFFFF">1</text>
<circle cx="66.000000" cy="58.000000" r="1"/>
<a xlink:href="p-0x7f0cc013b920.svg">
<rect x="65.000000" y="89.000000" width="24.000000" height="24.000000" rx="0" ry="0" style="stroke:none;fill:#cccccc;"/>
<rect x="64.000000" y="88.000000" width="24.000000" height="24.000000" rx="0" ry="0" style="stroke:none;fill:#003366;"/>
</a>
<a xlink:href="p-0x7f0cc013b920.svg">
<text x="76.000000" y="102.000000" font-family="Arial" font-size="7" text-anchor="middle" fill="#FFFFFF">p</text>
</a>
<circle cx="66.000000" cy="90.000000" r="1"/>
<rect x="105.000000" y="73.000000" width="24.000000" height="24.000000" rx="0" ry="0" style="stroke:none;fill:#cccccc;"/>
<rect x="104.000000" y="72.000000" width="24.000000" height="24.000000" rx="0" ry="0" style="stroke:none;fill:#4B71A1;"/>
<text x="116.000000" y="86.000000" font-family="Arial" font-size="7" text-anchor="middle" fill="#FFFFFF">-</text>
<circle cx="106.000000" cy="74.000000" r="1"/>
<line x1="101.000000" y1="79.000000" x2="104.000000" y2="80.000000"  transform="rotate(0.000000,104.000000,80.000000)" style="stroke: black; stroke-width:0.25;"/>
<line x1="101.000000" y1="81.000000" x2="104.000000" y2="80.000000"  transform="rotate(0.000000,104.000000,80.000000)" style="stroke: black; stroke-width:0.25;"/>
<line x1="101.000000" y1="87.000000" x2="104.000000" y2="88.000000"  transform="rotate(0.000000,104.000000,88.000000)" style="stroke: black; stroke-width:0.25;"/>
<line x1="101.000000" y1="89.000000" x2="104.000000" y2="88.000000"  transform="rotate(0.000000,104.000000,88.000000)" style="stroke: black; stroke-width:0.25;"/>
<rect x="145.000000" y="57.000000" width="24.000000" height="24.000000" rx="0" ry="0" style="stroke:none;fill:#cccccc;"/>
<rect x="144.000000" y="56.000000" width="24.000000" height="24.000000" rx="0" ry="0" style="stroke:none;fill:#4B71A1;"/>
<text x="156.000000" y="70.000000" font-family="Arial" font-size="7" text-anchor="middle" fill="#FFFFFF">*</text>
<circle cx="146.000000" cy="58.000000" r="1"/>
<line x1="141.000000" y1="63.000000" x2="144.000000" y2="64.000000"  transform="rotate(0.000000,144.000000,64.000000)" style="stroke: black; stroke-width:0.25;"/>
<line x1="141.000000" y1="65.000000" x2="144.000000" y2="64.000000"  transform="rotate(0.000000,144.000000,64.000000)" style="stroke: black; stroke-width:0.25;"/>
<line x1="141.000000" y1="71.000000" x2="144.000000" y2="72.000000"  transform="rotate(0.000000,144.000000,72.000000)" style="stroke: black; stroke-width:0.25;"/>
<line x1="141.000000" y1="73.000000" x2="144.000000" y2="72.000000"  transform="rotate(0.000000,144.000000,72.000000)" style="stroke: black; stroke-width:0.25;"/>
<rect x="193.000000" y="77.000000" width="24.000000" height="24.000000" rx="0" ry="0" style="stroke:none;fill:#cccccc;"/>
<rect x="192.000000" y="76.000000" width="24.000000" height="24.000000" rx="0" ry="0" style="stroke:none;fill:#4B71A1;"/>
<text x="204.000000" y="90.000000" font-family="Arial" font-size="7" text-anchor="middle" fill="#FFFFFF">+</text>
<circle cx="194.000000" cy="78.000000" r="1"/>
<line x1="189.000000" y1="83.000000" x2="192.000000" y2="84.000000"  transform="rotate(0.000000,192.000000,84.000000)" style="stroke: black; stroke-width:0.25;"/>
<line x1="189.000000" y1="85.000000" x2="192.000000" y2="84.000000"  transform="rotate(0.000000,192.000000,84.000000)" style="stroke: black; stroke-width:0.25;"/>
<line x1="189.000000" y1="91.000000" x2="192.000000" y2="92.000000"  transform="rotate(0.000000,192.000000,92.000000)" style="stroke: black; stroke-width:0.25;"/>
<line x1="189.000000" y1="93.000000" x2="192.000000" y2="92.000000"  transform="rotate(0.000000,192.000000,92.000000)" style="stroke: black; stroke-width:0.25;"/>
<rect x="233.000000" y="73.000000" width="24.000000" height="24.000000" rx="0" ry="0" style="stroke:none;fill:#cccccc;"/>
<rect x="232.000000" y="72.000000" width="24.000000" height="24.000000" rx="0" ry="0" style="stroke:none;fill:#47945E;"/>
<text x="244.000000" y="86.000000" font-family="Arial" font-size="7" text-anchor="middle" fill="#FFFFFF">x</text>
<circle cx="234.000000" cy="74.000000" r="1"/>
<rect x="273.000000" y="77.000000" width="24.000000" height="24.000000" rx="0" ry="0" style="stroke:none;fill:#cccccc;"/>
<rect x="272.000000" y="76.000000" width="24.000000" height="24.000000" rx="0" ry="0" style="stroke:none;fill:#4B71A1;"/>
<text x="284.000000" y="90.000000" font-family="Arial" font-size="7" text-anchor="middle" fill="#FFFFFF">max</text>
<circle cx="274.000000" cy="78.000000" r="1"/>
<line x1="269.000000" y1="83.000000" x2="272.000000" y2="84.000000"  transform="rotate(0.000000,272.000000,84.000000)" style="stroke: black; stroke-width:0.25;"/>
<line x1="269.000000" y1="85.000000" x2="272.000000" y2="84.000000"  transform="rotate(0.000000,272.000000,84.000000)" style="stroke: black; stroke-width:0.25;"/>
<line x1="269.000000" y1="91.000000" x2="272.000000" y2="92.000000"  transform="rotate(0.000000,272.000000,92.000000)" style="stroke: black; stroke-width:0.25;"/>
<line x1="269.000000" y1="93.000000" x2="272.000000" y2="92.000000"  transform="rotate(0.000000,272.000000,92.000000)" style="stroke: black; stroke-width:0.25;"/>
<a xlink:href="p-0x7f0cc013b920.svg">
<rect x="253.000000" y="33.000000" width="24.000000" height="24.000000" rx="0" ry="0" style="stroke:none;fill:#cccccc;"/>
<rect x="252.000000" y="32.000000" width="24.000000" height="24.000000" rx="0" ry="0" style="stroke:none;fill:#003366;"/>
</a>
<a xlink:href="p-0x7f0cc013b920.svg">
<text x="264.000000" y="46.000000" font-family="Arial" font-size="7" text-anchor="middle" fill="#FFFFFF">p</text>
</a>
<circle cx="274.000000" cy="54.000000" r="1"/>
<rect x="213.000000" y="37.000000" width="24.000000" height="24.000000" rx="0" ry="0" style="stroke:none;fill:#cccccc;"/>
<rect x="212.000000" y="36.000000" width="24.000000" height="24.000000" rx="0" ry="0" style="stroke:none;fill:#4B71A1;"/>
<text x="224.000000" y="50.000000" font-family="Arial" font-size="7" text-anchor="middle" fill="#FFFFFF">*</text>
<circle cx="234.000000" cy="58.000000" r="1"/>
<line x1="239.000000" y1="51.000000" x2="236.000000" y2="52.000000"  transform="rotate(0.000000,236.000000,52.000000)" style="stroke: black; stroke-width:0.25;"/>
<line x1="239.000000" y1="53.000000" x2="236.000000" y2="52.000000"  transform="rotate(0.000000,236.000000,52.000000)" style="stroke: black; stroke-width:0.25;"/>
<line x1="239.000000" y1="43.000000" x2="236.000000" y2="44.000000"  transform="rotate(0.000000,236.000000,44.000000)" style="stroke: black; stroke-width:0.25;"/>
<line x1="239.000000" y1="45.000000" x2="236.000000" y2="44.000000"  transform="rotate(0.000000,236.000000,44.000000)" style="stroke: black; stroke-width:0.25;"/>
<line x1="298.000000" y1="88.000000" x2="298.000000" y2="84.000000"  style="stroke:black; stroke-linecap:round; stroke-width:0.25;"/>
<line x1="298.000000" y1="84.000000" x2="302.000000" y2="84.000000"  style="stroke:black; stroke-linecap:round; stroke-width:0.25;"/>
<line x1="302.000000" y1="84.000000" x2="302.000000" y2="88.000000"  style="stroke:black; stroke-linecap:round; stroke-width:0.25;"/>
<line x1="15.000000" y1="15.000000" x2="15.000000" y2="121.000000"  style="stroke: black; stroke-linecap:round; stroke-width:0.25; stroke-dasharray:3,3;"/>
<line x1="15.000000" y1="121.000000" x2="329.000000" y2="121.000000"  style="stroke: black; stroke-linecap:round; stroke-width:0.25; stroke-dasharray:3,3;"/>
<line x1="329.000000" y1="121.000000" x2="329.000000" y2="15.000000"  style="stroke: black; stroke-linecap:round; stroke-width:0.25; stroke-dasharray:3,3;"/>
<line x1="15.000000" y1="15.000000" x2="20.000000" y2="15.000000"  style="stroke: black; stroke-linecap:round; stroke-width:0.25; stroke-dasharray:3,3;"/>
<line x1="36.125000" y1="15.000000" x2="329.000000" y2="15.000000"  style="stroke: black; stroke-linecap:round; stroke-width:0.25; stroke-dasharray:3,3;"/>
<text x="20.000000" y="17.000000" font-family="Arial" font-size="7">env</text>
<line x1="331.000000" y1="67.000000" x2="334.000000" y2="68.000000"  transform="rotate(0.000000,334.000000,68.000000)" style="stroke: black; stroke-width:0.25;"/>
<line x1="331.000000" y1="69.000000" x2="334.000000" y2="68.000000"  transform="rotate(0.000000,334.000000,68.000000)" style="stroke: black; stroke-width:0.25;"/>
<line x1="10.000000" y1="68.000000" x2="20.000000" y2="68.000000"  style="stroke:black; stroke-linecap:round; stroke-width:0.25;"/>
<line x1="20.000000" y1="68.000000" x2="24.000000" y2="68.000000"  style="stroke:black; stroke-linecap:round; stroke-width:0.25;"/>
<line x1="24.000000" y1="68.000000" x2="28.000000" y2="68.000000"  style="stroke:black; stroke-linecap:round; stroke-width:0.25;"/>
<line x1="28.000000" y1="68.000000" x2="28.000000" y2="68.000000"  style="stroke:black; stroke-linecap:round; stroke-width:0.25;"/>
<line x1="28.000000" y1="68.000000" x2="32.000000" y2="68.000000"  style="stroke:black; stroke-linecap:round; stroke-width:0.25;"/>
<line x1="88.000000" y1="68.000000" x2="92.000000" y2="68.000000"  style="stroke:black; stroke-linecap:round; stroke-width:0.25;"/>
<line x1="88.000000" y1="100.000000" x2="92.000000" y2="100.000000"  style="stroke:black; stroke-linecap:round; stroke-width:0.25;"/>
<line x1="92.000000" y1="68.000000" x2="100.000000" y2="68.000000"  style="stroke:black; stroke-linecap:round; stroke-width:0.25;"/>
<line x1="92.000000" y1="88.000000" x2="100.000000" y2="88.000000"  style="stroke:black; stroke-linecap:round; stroke-width:0.25;"/>
<line x1="92.000000" y1="100.000000" x2="92.000000" y2="88.000000"  style="stroke:black; stroke-linecap:round; stroke-width:0.25;"/>
<line x1="92.000000" y1="100.000000" x2="92.000000" y2="100.000000"  style="stroke:black; stroke-linecap:round; stroke-width:0.25;"/>
<line x1="100.000000" y1="68.000000" x2="100.000000" y2="80.000000"  style="stroke:black; stroke-linecap:round; stroke-width:0.25;"/>
<line x1="100.000000" y1="80.000000" x2="100.000000" y2="80.000000"  style="stroke:black; stroke-linecap:round; stroke-width:0.25;"/>
<line x1="100.000000" y1="80.000000" x2="104.000000" y2="80.000000"  style="stroke:black; stroke-linecap:round; stroke-width:0.25;"/>
<line x1="100.000000" y1="88.000000" x2="104.000000" y2="88.000000"  style="stroke:black; stroke-linecap:round; stroke-width:0.25;"/>
<line x1="108.000000" y1="36.000000" x2="112.000000" y2="36.000000"  style="stroke:black; stroke-linecap:round; stroke-width:0.25;"/>
<line x1="112.000000" y1="36.000000" x2="132.000000" y2="36.000000"  style="stroke:black; stroke-linecap:round; stroke-width:0.25;"/>
<line x1="128.000000" y1="84.000000" x2="132.000000" y2="84.000000"  style="stroke:black; stroke-linecap:round; stroke-width:0.25;"/>
<line x1="132.000000" y1="36.000000" x2="140.000000" y2="36.000000"  style="stroke:black; stroke-linecap:round; stroke-width:0.25;"/>
<line x1="132.000000" y1="72.000000" x2="140.000000" y2="72.000000"  style="stroke:black; stroke-linecap:round; stroke-width:0.25;"/>
<line x1="132.000000" y1="84.000000" x2="132.000000" y2="72.000000"  style="stroke:black; stroke-linecap:round; stroke-width:0.25;"/>
<line x1="132.000000" y1="84.000000" x2="132.000000" y2="84.000000"  style="stroke:black; stroke-linecap:round; stroke-width:0.25;"/>
<line x1="140.000000" y1="36.000000" x2="140.000000" y2="64.000000"  style="stroke:black; stroke-linecap:round; stroke-width:0.25;"/>
<line x1="140.000000" y1="64.000000" x2="140.000000" y2="64.000000"  style="stroke:black; stroke-linecap:round; stroke-width:0.25;"/>
<line x1="140.000000" y1="64.000000" x2="144.000000" y2="64.000000"  style="stroke:black; stroke-linecap:round; stroke-width:0.25;"/>
<line x1="140.000000" y1="72.000000" x2="144.000000" y2="72.000000"  style="stroke:black; stroke-linecap:round; stroke-width:0.25;"/>
<line x1="168.000000" y1="68.000000" x2="172.000000" y2="68.000000"  style="stroke:black; stroke-linecap:round; stroke-width:0.25;"/>
<line x1="172.000000" y1="68.000000" x2="180.000000" y2="68.000000"  style="stroke:black; stroke-linecap:round; stroke-width:0.25;"/>
<line x1="180.000000" y1="68.000000" x2="180.000000" y2="92.000000"  style="stroke:black; stroke-linecap:round; stroke-width:0.25;"/>
<line x1="180.000000" y1="92.000000" x2="180.000000" y2="92.000000"  style="stroke:black; stroke-linecap:round; stroke-width:0.25;"/>
<line x1="180.000000" y1="92.000000" x2="188.000000" y2="92.000000"  style="stroke:black; stroke-linecap:round; stroke-width:0.25;"/>
<line x1="188.000000" y1="48.000000" x2="188.000000" y2="48.000000"  style="stroke:black; stroke-linecap:round; stroke-width:0.25;"/>
<line x1="188.000000" y1="48.000000" x2="188.000000" y2="84.000000"  style="stroke:black; stroke-linecap:round; stroke-width:0.25;"/>
<line x1="188.000000" y1="84.000000" x2="188.000000" y2="84.000000"  style="stroke:black; stroke-linecap:round; stroke-width:0.25;"/>
<line x1="188.000000" y1="84.000000" x2="192.000000" y2="84.000000"  style="stroke:black; stroke-linecap:round; stroke-width:0.25;"/>
<line x1="188.000000" y1="92.000000" x2="192.000000" y2="92.000000"  style="stroke:black; stroke-linecap:round; stroke-width:0.25;"/>
<line x1="208.000000" y1="48.000000" x2="188.000000" y2="48.000000"  style="stroke:black; stroke-linecap:round; stroke-width:0.25;"/>
<line x1="212.000000" y1="48.000000" x2="208.000000" y2="48.000000"  style="stroke:black; stroke-linecap:round; stroke-width:0.25;"/>
<line x1="216.000000" y1="88.000000" x2="220.000000" y2="88.000000"  style="stroke:black; stroke-linecap:round; stroke-width:0.25;"/>
<line x1="220.000000" y1="88.000000" x2="228.000000" y2="88.000000"  style="stroke:black; stroke-linecap:round; stroke-width:0.25;"/>
<line x1="228.000000" y1="88.000000" x2="228.000000" y2="104.000000"  style="stroke:black; stroke-linecap:round; stroke-width:0.25;"/>
<line x1="228.000000" y1="104.000000" x2="228.000000" y2="104.000000"  style="stroke:black; stroke-linecap:round; stroke-width:0.25;"/>
<line x1="228.000000" y1="104.000000" x2="244.000000" y2="104.000000"  style="stroke:black; stroke-linecap:round; stroke-width:0.25;"/>
<line x1="240.000000" y1="44.000000" x2="236.000000" y2="44.000000"  style="stroke:black; stroke-linecap:round; stroke-width:0.25;"/>
<line x1="240.000000" y1="52.000000" x2="236.000000" y2="52.000000"  style="stroke:black; stroke-linecap:round; stroke-width:0.25;"/>
<line x1="240.000000" y1="52.000000" x2="240.000000" y2="52.000000"  style="stroke:black; stroke-linecap:round; stroke-width:0.25;"/>
<line x1="240.000000" y1="64.000000" x2="240.000000" y2="52.000000"  style="stroke:black; stroke-linecap:round; stroke-width:0.25;"/>
<line x1="244.000000" y1="104.000000" x2="260.000000" y2="104.000000"  style="stroke:black; stroke-linecap:round; stroke-width:0.25;"/>
<line x1="248.000000" y1="44.000000" x2="240.000000" y2="44.000000"  style="stroke:black; stroke-linecap:round; stroke-width:0.25;"/>
<line x1="248.000000" y1="64.000000" x2="240.000000" y2="64.000000"  style="stroke:black; stroke-linecap:round; stroke-width:0.25;"/>
<line x1="252.000000" y1="44.000000" x2="248.000000" y2="44.000000"  style="stroke:black; stroke-linecap:round; stroke-width:0.25;"/>
<line x1="256.000000" y1="84.000000" x2="260.000000" y2="84.000000"  style="stroke:black; stroke-linecap:round; stroke-width:0.25;"/>
<line x1="260.000000" y1="84.000000" x2="268.000000" y2="84.000000"  style="stroke:black; stroke-linecap:round; stroke-width:0.25;"/>
<line x1="260.000000" y1="92.000000" x2="268.000000" y2="92.000000"  style="stroke:black; stroke-linecap:round; stroke-width:0.25;"/>
<line x1="260.000000" y1="104.000000" x2="260.000000" y2="92.000000"  style="stroke:black; stroke-linecap:round; stroke-width:0.25;"/>
<line x1="260.000000" y1="104.000000" x2="260.000000" y2="104.000000"  style="stroke:black; stroke-linecap:round; stroke-width:0.25;"/>
<line x1="264.000000" y1="64.000000" x2="248.000000" y2="64.000000"  style="stroke:black; stroke-linecap:round; stroke-width:0.25;"/>
<line x1="268.000000" y1="84.000000" x2="272.000000" y2="84.000000"  style="stroke:black; stroke-linecap:round; stroke-width:0.25;"/>
<line x1="268.000000" y1="92.000000" x2="272.000000" y2="92.000000"  style="stroke:black; stroke-linecap:round; stroke-width:0.25;"/>
<line x1="280.000000" y1="64.000000" x2="264.000000" y2="64.000000"  style="stroke:black; stroke-linecap:round; stroke-width:0.25;"/>
<line x1="296.000000" y1="88.000000" x2="300.000000" y2="88.000000"  style="stroke:black; stroke-linecap:round; stroke-width:0.25;"/>
<line x1="300.000000" y1="64.000000" x2="280.000000" y2="64.000000"  style="stroke:black; stroke-linecap:round; stroke-width:0.25;"/>
<line x1="300.000000" y1="64.000000" x2="300.000000" y2="64.000000"  style="stroke:black; stroke-linecap:round; stroke-width:0.25;"/>
<line x1="300.000000" y1="84.000000" x2="300.000000" y2="64.000000"  style="stroke:black; stroke-linecap:round; stroke-width:0.25;"/>
<line x1="300.000000" y1="88.000000" x2="302.000000" y2="88.000000"  style="stroke:black; stroke-linecap:round; stroke-width:0.25;"/>
<line x1="302.000000" y1="88.000000" x2="308.000000" y2="88.000000"  style="stroke:black; stroke-linecap:round; stroke-width:0.25;"/>
<line x1="308.000000" y1="68.000000" x2="316.000000" y2="68.000000"  style="stroke:black; stroke-linecap:round; stroke-width:0.25;"/>
<line x1="308.000000" y1="88.000000" x2="308.000000" y2="68.000000"  style="stroke:black; stroke-linecap:round; stroke-width:0.25;"/>
<line x1="308.000000" y1="88.000000" x2="308.000000" y2="88.000000"  style="stroke:black; stroke-linecap:round; stroke-width:0.25;"/>
<line x1="316.000000" y1="68.000000" x2="320.000000" y2="68.000000"  style="stroke:black; stroke-linecap:round; stroke-width:0.25;"/>
<line x1="320.000000" y1="68.000000" x2="324.000000" y2="68.000000"  style="stroke:black; stroke-linecap:round; stroke-width:0.25;"/>
<line x1="324.000000" y1="68.000000" x2="334.000000" y2="68.000000"  style="stroke:black; stroke-linecap:round; stroke-width:0.25;"/>
</svg>
