<?xml version="1.0"?>
<svg xmlns="http://www.w3.org/2000/svg" xmlns:xlink="http://www.w3.org/1999/xlink" viewBox="0 0 396.700000 168.000000" width="198.350000mm" height="84.000000mm" version="1.1">
<a xlink:href="p-0x7f9be40d37f0.svg">
<rect x="1.000000" y="1.000000" width="395.700000" height="167.000000" rx="0" ry="0" style="stroke:none;fill:#cccccc;"/>
<rect x="0.000000" y="0.000000" width="395.700000" height="167.000000" rx="0" ry="0" style="stroke:none;fill:#ffffff;"/>
</a>
<text x="10.000000" y="7.000000" font-family="Arial" font-size="7"></text>
<rect x="144.000000" y="33.000000" width="24.000000" height="24.000000" rx="0" ry="0" style="stroke:none;fill:#cccccc;"/>
<rect x="143.000000" y="32.000000" width="24.000000" height="24.000000" rx="0" ry="0" style="stroke:none;fill:#f44800;"/>
<text x="155.000000" y="46.000000" font-family="Arial" font-size="7" text-anchor="middle" fill="#FFFFFF">0</text>
<circle cx="145.000000" cy="34.000000" r="1"/>
<rect x="184.000000" y="29.000000" width="24.000000" height="24.000000" rx="0" ry="0" style="stroke:none;fill:#cccccc;"/>
<rect x="183.000000" y="28.000000" width="24.000000" height="24.000000" rx="0" ry="0" style="stroke:none;fill:#4B71A1;"/>
<text x="195.000000" y="42.000000" font-family="Arial" font-size="7" text-anchor="middle" fill="#FFFFFF">&lt;</text>
<circle cx="185.000000" cy="30.000000" r="1"/>
<line x1="180.000000" y1="35.000000" x2="183.000000" y2="36.000000"  transform="rotate(0.000000,183.000000,36.000000)" style="stroke: black; stroke-width:0.25;"/>
<line x1="180.000000" y1="37.000000" x2="183.000000" y2="36.000000"  transform="rotate(0.000000,183.000000,36.000000)" style="stroke: black; stroke-width:0.25;"/>
<line x1="180.000000" y1="43.000000" x2="183.000000" y2="44.000000"  transform="rotate(0.000000,183.000000,44.000000)" style="stroke: black; stroke-width:0.25;"/>
<line x1="180.000000" y1="45.000000" x2="183.000000" y2="44.000000"  transform="rotate(0.000000,183.000000,44.000000)" style="stroke: black; stroke-width:0.25;"/>
<rect x="79.000000" y="81.000000" width="24.000000" height="24.000000" rx="0" ry="0" style="stroke:none;fill:#cccccc;"/>
<rect x="78.000000" y="80.000000" width="24.000000" height="24.000000" rx="0" ry="0" style="stroke:none;fill:#f44800;"/>
<text x="90.000000" y="94.000000" font-family="Arial" font-size="7" text-anchor="middle" fill="#FFFFFF">1</text>
<circle cx="80.000000" cy="82.000000" r="1"/>
<a xlink:href="p0-0x7f9be40cd010.svg">
<rect x="79.000000" y="113.000000" width="24.000000" height="24.000000" rx="0" ry="0" style="stroke:none;fill:#cccccc;"/>
<rect x="78.000000" y="112.000000" width="24.000000" height="24.000000" rx="0" ry="0" style="stroke:none;fill:#003366;"/>
</a>
<a xlink:href="p0-0x7f9be40cd010.svg">
<text x="90.000000" y="126.000000" font-family="Arial" font-size="7" text-anchor="middle" fill="#FFFFFF">p0</text>
</a>
<circle cx="80.000000" cy="114.000000" r="1"/>
<rect x="119.000000" y="97.000000" width="24.000000" height="24.000000" rx="0" ry="0" style="stroke:none;fill:#cccccc;"/>
<rect x="118.000000" y="96.000000" width="24.000000" height="24.000000" rx="0" ry="0" style="stroke:none;fill:#4B71A1;"/>
<text x="130.000000" y="110.000000" font-family="Arial" font-size="7" text-anchor="middle" fill="#FFFFFF">-</text>
<circle cx="120.000000" cy="98.000000" r="1"/>
<line x1="115.000000" y1="103.000000" x2="118.000000" y2="104.000000"  transform="rotate(0.000000,118.000000,104.000000)" style="stroke: black; stroke-width:0.25;"/>
<line x1="115.000000" y1="105.000000" x2="118.000000" y2="104.000000"  transform="rotate(0.000000,118.000000,104.000000)" style="stroke: black; stroke-width:0.25;"/>
<line x1="115.000000" y1="111.000000" x2="118.000000" y2="112.000000"  transform="rotate(0.000000,118.000000,112.000000)" style="stroke: black; stroke-width:0.25;"/>
<line x1="115.000000" y1="113.000000" x2="118.000000" y2="112.000000"  transform="rotate(0.000000,118.000000,112.000000)" style="stroke: black; stroke-width:0.25;"/>
<rect x="159.000000" y="93.000000" width="24.000000" height="24.000000" rx="0" ry="0" style="stroke:none;fill:#cccccc;"/>
<rect x="158.000000" y="92.000000" width="24.000000" height="24.000000" rx="0" ry="0" style="stroke:none;fill:#4B71A1;"/>
<text x="170.000000" y="106.000000" font-family="Arial" font-size="7" text-anchor="middle" fill="#FFFFFF">*</text>
<circle cx="160.000000" cy="94.000000" r="1"/>
<line x1="155.000000" y1="99.000000" x2="158.000000" y2="100.000000"  transform="rotate(0.000000,158.000000,100.000000)" style="stroke: black; stroke-width:0.25;"/>
<line x1="155.000000" y1="101.000000" x2="158.000000" y2="100.000000"  transform="rotate(0.000000,158.000000,100.000000)" style="stroke: black; stroke-width:0.25;"/>
<line x1="155.000000" y1="107.000000" x2="158.000000" y2="108.000000"  transform="rotate(0.000000,158.000000,108.000000)" style="stroke: black; stroke-width:0.25;"/>
<line x1="155.000000" y1="109.000000" x2="158.000000" y2="108.000000"  transform="rotate(0.000000,158.000000,108.000000)" style="stroke: black; stroke-width:0.25;"/>
<rect x="199.000000" y="97.000000" width="24.000000" height="24.000000" rx="0" ry="0" style="stroke:none;fill:#cccccc;"/>
<rect x="198.000000" y="96.000000" width="24.000000" height="24.000000" rx="0" ry="0" style="stroke:none;fill:#f44800;"/>
<text x="210.000000" y="110.000000" font-family="Arial" font-size="7" text-anchor="middle" fill="#FFFFFF">1</text>
<circle cx="200.000000" cy="98.000000" r="1"/>
<rect x="239.000000" y="93.000000" width="24.000000" height="24.000000" rx="0" ry="0" style="stroke:none;fill:#cccccc;"/>
<rect x="238.000000" y="92.000000" width="24.000000" height="24.000000" rx="0" ry="0" style="stroke:none;fill:#4B71A1;"/>
<text x="250.000000" y="106.000000" font-family="Arial" font-size="7" text-anchor="middle" fill="#FFFFFF">+</text>
<circle cx="240.000000" cy="94.000000" r="1"/>
<line x1="235.000000" y1="99.000000" x2="238.000000" y2="100.000000"  transform="rotate(0.000000,238.000000,100.000000)" style="stroke: black; stroke-width:0.25;"/>
<line x1="235.000000" y1="101.000000" x2="238.000000" y2="100.000000"  transform="rotate(0.000000,238.000000,100.000000)" style="stroke: black; stroke-width:0.25;"/>
<line x1="235.000000" y1="107.000000" x2="238.000000" y2="108.000000"  transform="rotate(0.000000,238.000000,108.000000)" style="stroke: black; stroke-width:0.25;"/>
<line x1="235.000000" y1="109.000000" x2="238.000000" y2="108.000000"  transform="rotate(0.000000,238.000000,108.000000)" style="stroke: black; stroke-width:0.25;"/>
<rect x="279.000000" y="89.000000" width="24.000000" height="24.000000" rx="0" ry="0" style="stroke:none;fill:#cccccc;"/>
<rect x="278.000000" y="88.000000" width="24.000000" height="24.000000" rx="0" ry="0" style="stroke:none;fill:#4B71A1;"/>
<text x="290.000000" y="102.000000" font-family="Arial" font-size="7" text-anchor="middle" fill="#FFFFFF">+</text>
<circle cx="280.000000" cy="90.000000" r="1"/>
<line x1="275.000000" y1="95.000000" x2="278.000000" y2="96.000000"  transform="rotate(0.000000,278.000000,96.000000)" style="stroke: black; stroke-width:0.25;"/>
<line x1="275.000000" y1="97.000000" x2="278.000000" y2="96.000000"  transform="rotate(0.000000,278.000000,96.000000)" style="stroke: black; stroke-width:0.25;"/>
<line x1="275.000000" y1="103.000000" x2="278.000000" y2="104.000000"  transform="rotate(0.000000,278.000000,104.000000)" style="stroke: black; stroke-width:0.25;"/>
<line x1="275.000000" y1="105.000000" x2="278.000000" y2="104.000000"  transform="rotate(0.000000,278.000000,104.000000)" style="stroke: black; stroke-width:0.25;"/>
<rect x="327.000000" y="73.000000" width="38.700000" height="24.000000" rx="0" ry="0" style="stroke:none;fill:#cccccc;"/>
<rect x="326.000000" y="72.000000" width="38.700000" height="24.000000" rx="0" ry="0" style="stroke:none;fill:#4B71A1;"/>
<text x="345.350000" y="86.000000" font-family="Arial" font-size="7" text-anchor="middle" fill="#FFFFFF">select2</text>
<circle cx="328.000000" cy="74.000000" r="1"/>
<line x1="323.000000" y1="75.000000" x2="326.000000" y2="76.000000"  transform="rotate(0.000000,326.000000,76.000000)" style="stroke: black; stroke-width:0.25;"/>
<line x1="323.000000" y1="77.000000" x2="326.000000" y2="76.000000"  transform="rotate(0.000000,326.000000,76.000000)" style="stroke: black; stroke-width:0.25;"/>
<line x1="323.000000" y1="83.000000" x2="326.000000" y2="84.000000"  transform="rotate(0.000000,326.000000,84.000000)" style="stroke: black; stroke-width:0.25;"/>
<line x1="323.000000" y1="85.000000" x2="326.000000" y2="84.000000"  transform="rotate(0.000000,326.000000,84.000000)" style="stroke: black; stroke-width:0.25;"/>
<line x1="323.000000" y1="91.000000" x2="326.000000" y2="92.000000"  transform="rotate(0.000000,326.000000,92.000000)" style="stroke: black; stroke-width:0.25;"/>
<line x1="323.000000" y1="93.000000" x2="326.000000" y2="92.000000"  transform="rotate(0.000000,326.000000,92.000000)" style="stroke: black; stroke-width:0.25;"/>
<line x1="15.000000" y1="15.000000" x2="15.000000" y2="153.000000"  style="stroke: black; stroke-linecap:round; stroke-width:0.25; stroke-dasharray:3,3;"/>
<line x1="15.000000" y1="153.000000" x2="381.700000" y2="153.000000"  style="stroke: black; stroke-linecap:round; stroke-width:0.25; stroke-dasharray:3,3;"/>
<line x1="381.700000" y1="153.000000" x2="381.700000" y2="15.000000"  style="stroke: black; stroke-linecap:round; stroke-width:0.25; stroke-dasharray:3,3;"/>
<line x1="15.000000" y1="15.000000" x2="20.000000" y2="15.000000"  style="stroke: black; stroke-linecap:round; stroke-width:0.25; stroke-dasharray:3,3;"/>
<line x1="55.475000" y1="15.000000" x2="381.700000" y2="15.000000"  style="stroke: black; stroke-linecap:round; stroke-width:0.25; stroke-dasharray:3,3;"/>
<text x="20.000000" y="17.000000" font-family="Arial" font-size="7">selector2</text>
<line x1="383.700000" y1="83.000000" x2="386.700000" y2="84.000000"  transform="rotate(0.000000,386.700000,84.000000)" style="stroke: black; stroke-width:0.25;"/>
<line x1="383.700000" y1="85.000000" x2="386.700000" y2="84.000000"  transform="rotate(0.000000,386.700000,84.000000)" style="stroke: black; stroke-width:0.25;"/>
<line x1="10.000000" y1="76.000000" x2="20.000000" y2="76.000000"  style="stroke:black; stroke-linecap:round; stroke-width:0.25;"/>
<line x1="10.000000" y1="84.000000" x2="20.000000" y2="84.000000"  style="stroke:black; stroke-linecap:round; stroke-width:0.25;"/>
<line x1="10.000000" y1="92.000000" x2="20.000000" y2="92.000000"  style="stroke:black; stroke-linecap:round; stroke-width:0.25;"/>
<line x1="20.000000" y1="76.000000" x2="24.000000" y2="76.000000"  style="stroke:black; stroke-linecap:round; stroke-width:0.25;"/>
<line x1="20.000000" y1="84.000000" x2="24.000000" y2="84.000000"  style="stroke:black; stroke-linecap:round; stroke-width:0.25;"/>
<line x1="20.000000" y1="92.000000" x2="24.000000" y2="92.000000"  style="stroke:black; stroke-linecap:round; stroke-width:0.25;"/>
<line x1="24.000000" y1="76.000000" x2="28.000000" y2="76.000000"  style="stroke:black; stroke-linecap:round; stroke-width:0.25;"/>
<line x1="24.000000" y1="84.000000" x2="28.000000" y2="84.000000"  style="stroke:black; stroke-linecap:round; stroke-width:0.25;"/>
<line x1="24.000000" y1="92.000000" x2="28.000000" y2="92.000000"  style="stroke:black; stroke-linecap:round; stroke-width:0.25;"/>
<line x1="28.000000" y1="24.000000" x2="44.000000" y2="24.000000"  style="stroke:black; stroke-linecap:round; stroke-width:0.25;"/>
<line x1="28.000000" y1="76.000000" x2="28.000000" y2="24.000000"  style="stroke:black; stroke-linecap:round; stroke-width:0.25;"/>
<line x1="28.000000" y1="76.000000" x2="28.000000" y2="76.000000"  style="stroke:black; stroke-linecap:round; stroke-width:0.25;"/>
<line x1="28.000000" y1="84.000000" x2="44.000000" y2="84.000000"  style="stroke:black; stroke-linecap:round; stroke-width:0.25;"/>
<line x1="28.000000" y1="92.000000" x2="36.000000" y2="92.000000"  style="stroke:black; stroke-linecap:round; stroke-width:0.25;"/>
<line x1="36.000000" y1="92.000000" x2="36.000000" y2="144.000000"  style="stroke:black; stroke-linecap:round; stroke-width:0.25;"/>
<line x1="36.000000" y1="144.000000" x2="44.000000" y2="144.000000"  style="stroke:black; stroke-linecap:round; stroke-width:0.25;"/>
<line x1="44.000000" y1="24.000000" x2="139.000000" y2="24.000000"  style="stroke:black; stroke-linecap:round; stroke-width:0.25;"/>
<line x1="44.000000" y1="84.000000" x2="44.000000" y2="100.000000"  style="stroke:black; stroke-linecap:round; stroke-width:0.25;"/>
<line x1="44.000000" y1="100.000000" x2="44.000000" y2="100.000000"  style="stroke:black; stroke-linecap:round; stroke-width:0.25;"/>
<line x1="44.000000" y1="100.000000" x2="48.000000" y2="100.000000"  style="stroke:black; stroke-linecap:round; stroke-width:0.25;"/>
<line x1="44.000000" y1="144.000000" x2="175.000000" y2="144.000000"  style="stroke:black; stroke-linecap:round; stroke-width:0.25;"/>
<line x1="48.000000" y1="100.000000" x2="52.000000" y2="100.000000"  style="stroke:black; stroke-linecap:round; stroke-width:0.25;"/>
<line x1="52.000000" y1="100.000000" x2="74.000000" y2="64.000000"  style="stroke:black; stroke-linecap:round; stroke-width:0.25;"/>
<line x1="52.000000" y1="100.000000" x2="74.000000" y2="72.000000"  style="stroke:black; stroke-linecap:round; stroke-width:0.25;"/>
<line x1="74.000000" y1="64.000000" x2="170.000000" y2="64.000000"  style="stroke:black; stroke-linecap:round; stroke-width:0.25;"/>
<line x1="74.000000" y1="72.000000" x2="110.000000" y2="72.000000"  style="stroke:black; stroke-linecap:round; stroke-width:0.25;"/>
<line x1="102.000000" y1="92.000000" x2="106.000000" y2="92.000000"  style="stroke:black; stroke-linecap:round; stroke-width:0.25;"/>
<line x1="102.000000" y1="124.000000" x2="106.000000" y2="124.000000"  style="stroke:black; stroke-linecap:round; stroke-width:0.25;"/>
<line x1="106.000000" y1="92.000000" x2="114.000000" y2="92.000000"  style="stroke:black; stroke-linecap:round; stroke-width:0.25;"/>
<line x1="106.000000" y1="112.000000" x2="114.000000" y2="112.000000"  style="stroke:black; stroke-linecap:round; stroke-width:0.25;"/>
<line x1="106.000000" y1="124.000000" x2="106.000000" y2="112.000000"  style="stroke:black; stroke-linecap:round; stroke-width:0.25;"/>
<line x1="106.000000" y1="124.000000" x2="106.000000" y2="124.000000"  style="stroke:black; stroke-linecap:round; stroke-width:0.25;"/>
<line x1="110.000000" y1="72.000000" x2="146.000000" y2="72.000000"  style="stroke:black; stroke-linecap:round; stroke-width:0.25;"/>
<line x1="114.000000" y1="92.000000" x2="114.000000" y2="104.000000"  style="stroke:black; stroke-linecap:round; stroke-width:0.25;"/>
<line x1="114.000000" y1="104.000000" x2="114.000000" y2="104.000000"  style="stroke:black; stroke-linecap:round; stroke-width:0.25;"/>
<line x1="114.000000" y1="104.000000" x2="118.000000" y2="104.000000"  style="stroke:black; stroke-linecap:round; stroke-width:0.25;"/>
<line x1="114.000000" y1="112.000000" x2="118.000000" y2="112.000000"  style="stroke:black; stroke-linecap:round; stroke-width:0.25;"/>
<line x1="139.000000" y1="24.000000" x2="155.000000" y2="24.000000"  style="stroke:black; stroke-linecap:round; stroke-width:0.25;"/>
<line x1="142.000000" y1="108.000000" x2="146.000000" y2="108.000000"  style="stroke:black; stroke-linecap:round; stroke-width:0.25;"/>
<line x1="146.000000" y1="72.000000" x2="154.000000" y2="72.000000"  style="stroke:black; stroke-linecap:round; stroke-width:0.25;"/>
<line x1="146.000000" y1="108.000000" x2="154.000000" y2="108.000000"  style="stroke:black; stroke-linecap:round; stroke-width:0.25;"/>
<line x1="154.000000" y1="72.000000" x2="154.000000" y2="100.000000"  style="stroke:black; stroke-linecap:round; stroke-width:0.25;"/>
<line x1="154.000000" y1="100.000000" x2="154.000000" y2="100.000000"  style="stroke:black; stroke-linecap:round; stroke-width:0.25;"/>
<line x1="154.000000" y1="100.000000" x2="158.000000" y2="100.000000"  style="stroke:black; stroke-linecap:round; stroke-width:0.25;"/>
<line x1="154.000000" y1="108.000000" x2="158.000000" y2="108.000000"  style="stroke:black; stroke-linecap:round; stroke-width:0.25;"/>
<line x1="155.000000" y1="24.000000" x2="171.000000" y2="24.000000"  style="stroke:black; stroke-linecap:round; stroke-width:0.25;"/>
<line x1="167.000000" y1="44.000000" x2="171.000000" y2="44.000000"  style="stroke:black; stroke-linecap:round; stroke-width:0.25;"/>
<line x1="170.000000" y1="64.000000" x2="266.000000" y2="64.000000"  style="stroke:black; stroke-linecap:round; stroke-width:0.25;"/>
<line x1="171.000000" y1="24.000000" x2="179.000000" y2="24.000000"  style="stroke:black; stroke-linecap:round; stroke-width:0.25;"/>
<line x1="171.000000" y1="44.000000" x2="179.000000" y2="44.000000"  style="stroke:black; stroke-linecap:round; stroke-width:0.25;"/>
<line x1="175.000000" y1="144.000000" x2="306.000000" y2="144.000000"  style="stroke:black; stroke-linecap:round; stroke-width:0.25;"/>
<line x1="179.000000" y1="24.000000" x2="179.000000" y2="36.000000"  style="stroke:black; stroke-linecap:round; stroke-width:0.25;"/>
<line x1="179.000000" y1="36.000000" x2="179.000000" y2="36.000000"  style="stroke:black; stroke-linecap:round; stroke-width:0.25;"/>
<line x1="179.000000" y1="36.000000" x2="183.000000" y2="36.000000"  style="stroke:black; stroke-linecap:round; stroke-width:0.25;"/>
<line x1="179.000000" y1="44.000000" x2="183.000000" y2="44.000000"  style="stroke:black; stroke-linecap:round; stroke-width:0.25;"/>
<line x1="182.000000" y1="104.000000" x2="186.000000" y2="104.000000"  style="stroke:black; stroke-linecap:round; stroke-width:0.25;"/>
<line x1="186.000000" y1="88.000000" x2="194.000000" y2="88.000000"  style="stroke:black; stroke-linecap:round; stroke-width:0.25;"/>
<line x1="186.000000" y1="104.000000" x2="186.000000" y2="88.000000"  style="stroke:black; stroke-linecap:round; stroke-width:0.25;"/>
<line x1="186.000000" y1="104.000000" x2="186.000000" y2="104.000000"  style="stroke:black; stroke-linecap:round; stroke-width:0.25;"/>
<line x1="194.000000" y1="88.000000" x2="210.000000" y2="88.000000"  style="stroke:black; stroke-linecap:round; stroke-width:0.25;"/>
<line x1="207.000000" y1="40.000000" x2="211.000000" y2="40.000000"  style="stroke:black; stroke-linecap:round; stroke-width:0.25;"/>
<line x1="210.000000" y1="88.000000" x2="226.000000" y2="88.000000"  style="stroke:black; stroke-linecap:round; stroke-width:0.25;"/>
<line x1="211.000000" y1="40.000000" x2="306.000000" y2="40.000000"  style="stroke:black; stroke-linecap:round; stroke-width:0.25;"/>
<line x1="222.000000" y1="108.000000" x2="226.000000" y2="108.000000"  style="stroke:black; stroke-linecap:round; stroke-width:0.25;"/>
<line x1="226.000000" y1="88.000000" x2="234.000000" y2="88.000000"  style="stroke:black; stroke-linecap:round; stroke-width:0.25;"/>
<line x1="226.000000" y1="108.000000" x2="234.000000" y2="108.000000"  style="stroke:black; stroke-linecap:round; stroke-width:0.25;"/>
<line x1="234.000000" y1="88.000000" x2="234.000000" y2="100.000000"  style="stroke:black; stroke-linecap:round; stroke-width:0.25;"/>
<line x1="234.000000" y1="100.000000" x2="234.000000" y2="100.000000"  style="stroke:black; stroke-linecap:round; stroke-width:0.25;"/>
<line x1="234.000000" y1="100.000000" x2="238.000000" y2="100.000000"  style="stroke:black; stroke-linecap:round; stroke-width:0.25;"/>
<line x1="234.000000" y1="108.000000" x2="238.000000" y2="108.000000"  style="stroke:black; stroke-linecap:round; stroke-width:0.25;"/>
<line x1="262.000000" y1="104.000000" x2="266.000000" y2="104.000000"  style="stroke:black; stroke-linecap:round; stroke-width:0.25;"/>
<line x1="266.000000" y1="64.000000" x2="274.000000" y2="64.000000"  style="stroke:black; stroke-linecap:round; stroke-width:0.25;"/>
<line x1="266.000000" y1="104.000000" x2="274.000000" y2="104.000000"  style="stroke:black; stroke-linecap:round; stroke-width:0.25;"/>
<line x1="274.000000" y1="64.000000" x2="274.000000" y2="96.000000"  style="stroke:black; stroke-linecap:round; stroke-width:0.25;"/>
<line x1="274.000000" y1="96.000000" x2="274.000000" y2="96.000000"  style="stroke:black; stroke-linecap:round; stroke-width:0.25;"/>
<line x1="274.000000" y1="96.000000" x2="278.000000" y2="96.000000"  style="stroke:black; stroke-linecap:round; stroke-width:0.25;"/>
<line x1="274.000000" y1="104.000000" x2="278.000000" y2="104.000000"  style="stroke:black; stroke-linecap:round; stroke-width:0.25;"/>
<line x1="302.000000" y1="100.000000" x2="306.000000" y2="100.000000"  style="stroke:black; stroke-linecap:round; stroke-width:0.25;"/>
<line x1="306.000000" y1="40.000000" x2="322.000000" y2="40.000000"  style="stroke:black; stroke-linecap:round; stroke-width:0.25;"/>
<line x1="306.000000" y1="84.000000" x2="322.000000" y2="84.000000"  style="stroke:black; stroke-linecap:round; stroke-width:0.25;"/>
<line x1="306.000000" y1="100.000000" x2="306.000000" y2="84.000000"  style="stroke:black; stroke-linecap:round; stroke-width:0.25;"/>
<line x1="306.000000" y1="100.000000" x2="306.000000" y2="100.000000"  style="stroke:black; stroke-linecap:round; stroke-width:0.25;"/>
<line x1="306.000000" y1="144.000000" x2="314.000000" y2="144.000000"  style="stroke:black; stroke-linecap:round; stroke-width:0.25;"/>
<line x1="314.000000" y1="92.000000" x2="322.000000" y2="92.000000"  style="stroke:black; stroke-linecap:round; stroke-width:0.25;"/>
<line x1="314.000000" y1="144.000000" x2="314.000000" y2="92.000000"  style="stroke:black; stroke-linecap:round; stroke-width:0.25;"/>
<line x1="322.000000" y1="40.000000" x2="322.000000" y2="76.000000"  style="stroke:black; stroke-linecap:round; stroke-width:0.25;"/>
<line x1="322.000000" y1="76.000000" x2="322.000000" y2="76.000000"  style="stroke:black; stroke-linecap:round; stroke-width:0.25;"/>
<line x1="322.000000" y1="76.000000" x2="326.000000" y2="76.000000"  style="stroke:black; stroke-linecap:round; stroke-width:0.25;"/>
<line x1="322.000000" y1="84.000000" x2="326.000000" y2="84.000000"  style="stroke:black; stroke-linecap:round; stroke-width:0.25;"/>
<line x1="322.000000" y1="92.000000" x2="326.000000" y2="92.000000"  style="stroke:black; stroke-linecap:round; stroke-width:0.25;"/>
<line x1="364.700000" y1="84.000000" x2="368.700000" y2="84.000000"  style="stroke:black; stroke-linecap:round; stroke-width:0.25;"/>
<line x1="368.700000" y1="84.000000" x2="368.700000" y2="84.000000"  style="stroke:black; stroke-linecap:round; stroke-width:0.25;"/>
<line x1="368.700000" y1="84.000000" x2="372.700000" y2="84.000000"  style="stroke:black; stroke-linecap:round; stroke-width:0.25;"/>
<line x1="372.700000" y1="84.000000" x2="376.700000" y2="84.000000"  style="stroke:black; stroke-linecap:round; stroke-width:0.25;"/>
<line x1="376.700000" y1="84.000000" x2="386.700000" y2="84.000000"  style="stroke:black; stroke-linecap:round; stroke-width:0.25;"/>
</svg>
