<?xml version="1.0"?>
<svg xmlns="http://www.w3.org/2000/svg" xmlns:xlink="http://www.w3.org/1999/xlink" viewBox="0 0 278.700000 144.000000" width="139.350000mm" height="72.000000mm" version="1.1">
<a xlink:href="sawtooth-0x7fc02c290130.svg">
<rect x="1.000000" y="1.000000" width="277.700000" height="143.000000" rx="0" ry="0" style="stroke:none;fill:#cccccc;"/>
<rect x="0.000000" y="0.000000" width="277.700000" height="143.000000" rx="0" ry="0" style="stroke:none;fill:#ffffff;"/>
</a>
<text x="10.000000" y="7.000000" font-family="Arial" font-size="7"></text>
<rect x="55.000000" y="81.000000" width="24.000000" height="24.000000" rx="0" ry="0" style="stroke:none;fill:#cccccc;"/>
<rect x="54.000000" y="80.000000" width="24.000000" height="24.000000" rx="0" ry="0" style="stroke:none;fill:#f44800;"/>
<text x="66.000000" y="94.000000" font-family="Arial" font-size="7" text-anchor="middle" fill="#FFFFFF">1</text>
<circle cx="56.000000" cy="82.000000" r="1"/>
<rect x="95.000000" y="77.000000" width="24.000000" height="24.000000" rx="0" ry="0" style="stroke:none;fill:#cccccc;"/>
<rect x="94.000000" y="76.000000" width="24.000000" height="24.000000" rx="0" ry="0" style="stroke:none;fill:#4B71A1;"/>
<text x="106.000000" y="90.000000" font-family="Arial" font-size="7" text-anchor="middle" fill="#FFFFFF">-</text>
<circle cx="96.000000" cy="78.000000" r="1"/>
<line x1="91.000000" y1="83.000000" x2="94.000000" y2="84.000000"  transform="rotate(0.000000,94.000000,84.000000)" style="stroke: black; stroke-width:0.25;"/>
<line x1="91.000000" y1="85.000000" x2="94.000000" y2="84.000000"  transform="rotate(0.000000,94.000000,84.000000)" style="stroke: black; stroke-width:0.25;"/>
<line x1="91.000000" y1="91.000000" x2="94.000000" y2="92.000000"  transform="rotate(0.000000,94.000000,92.000000)" style="stroke: black; stroke-width:0.25;"/>
<line x1="91.000000" y1="93.000000" x2="94.000000" y2="92.000000"  transform="rotate(0.000000,94.000000,92.000000)" style="stroke: black; stroke-width:0.25;"/>
<a xlink:href="selector1-0x7fc02c28ea70.svg">
<rect x="177.000000" y="65.000000" width="38.700000" height="24.000000" rx="0" ry="0" style="stroke:none;fill:#cccccc;"/>
<rect x="176.000000" y="64.000000" width="38.700000" height="24.000000" rx="0" ry="0" style="stroke:none;fill:#003366;"/>
</a>
<a xlink:href="selector1-0x7fc02c28ea70.svg">
<text x="195.350000" y="78.000000" font-family="Arial" font-size="7" text-anchor="middle" fill="#FFFFFF">selector1</text>
</a>
<circle cx="178.000000" cy="66.000000" r="1"/>
<line x1="173.000000" y1="67.000000" x2="176.000000" y2="68.000000"  transform="rotate(0.000000,176.000000,68.000000)" style="stroke: black; stroke-width:0.25;"/>
<line x1="173.000000" y1="69.000000" x2="176.000000" y2="68.000000"  transform="rotate(0.000000,176.000000,68.000000)" style="stroke: black; stroke-width:0.25;"/>
<line x1="173.000000" y1="75.000000" x2="176.000000" y2="76.000000"  transform="rotate(0.000000,176.000000,76.000000)" style="stroke: black; stroke-width:0.25;"/>
<line x1="173.000000" y1="77.000000" x2="176.000000" y2="76.000000"  transform="rotate(0.000000,176.000000,76.000000)" style="stroke: black; stroke-width:0.25;"/>
<line x1="173.000000" y1="83.000000" x2="176.000000" y2="84.000000"  transform="rotate(0.000000,176.000000,84.000000)" style="stroke: black; stroke-width:0.25;"/>
<line x1="173.000000" y1="85.000000" x2="176.000000" y2="84.000000"  transform="rotate(0.000000,176.000000,84.000000)" style="stroke: black; stroke-width:0.25;"/>
<a xlink:href="selector2-0x7fc02c28ddd0.svg">
<rect x="177.000000" y="97.000000" width="38.700000" height="24.000000" rx="0" ry="0" style="stroke:none;fill:#cccccc;"/>
<rect x="176.000000" y="96.000000" width="38.700000" height="24.000000" rx="0" ry="0" style="stroke:none;fill:#003366;"/>
</a>
<a xlink:href="selector2-0x7fc02c28ddd0.svg">
<text x="195.350000" y="110.000000" font-family="Arial" font-size="7" text-anchor="middle" fill="#FFFFFF">selector2</text>
</a>
<circle cx="178.000000" cy="98.000000" r="1"/>
<line x1="173.000000" y1="99.000000" x2="176.000000" y2="100.000000"  transform="rotate(0.000000,176.000000,100.000000)" style="stroke: black; stroke-width:0.25;"/>
<line x1="173.000000" y1="101.000000" x2="176.000000" y2="100.000000"  transform="rotate(0.000000,176.000000,100.000000)" style="stroke: black; stroke-width:0.25;"/>
<line x1="173.000000" y1="107.000000" x2="176.000000" y2="108.000000"  transform="rotate(0.000000,176.000000,108.000000)" style="stroke: black; stroke-width:0.25;"/>
<line x1="173.000000" y1="109.000000" x2="176.000000" y2="108.000000"  transform="rotate(0.000000,176.000000,108.000000)" style="stroke: black; stroke-width:0.25;"/>
<line x1="173.000000" y1="115.000000" x2="176.000000" y2="116.000000"  transform="rotate(0.000000,176.000000,116.000000)" style="stroke: black; stroke-width:0.25;"/>
<line x1="173.000000" y1="117.000000" x2="176.000000" y2="116.000000"  transform="rotate(0.000000,176.000000,116.000000)" style="stroke: black; stroke-width:0.25;"/>
<a xlink:href="t0-0x7fc02c289d90.svg">
<rect x="132.350000" y="25.000000" width="24.000000" height="24.000000" rx="0" ry="0" style="stroke:none;fill:#cccccc;"/>
<rect x="131.350000" y="24.000000" width="24.000000" height="24.000000" rx="0" ry="0" style="stroke:none;fill:#003366;"/>
</a>
<a xlink:href="t0-0x7fc02c289d90.svg">
<text x="143.350000" y="38.000000" font-family="Arial" font-size="7" text-anchor="middle" fill="#FFFFFF">t0</text>
</a>
<circle cx="153.350000" cy="46.000000" r="1"/>
<rect x="92.350000" y="29.000000" width="24.000000" height="24.000000" rx="0" ry="0" style="stroke:none;fill:#cccccc;"/>
<rect x="91.350000" y="28.000000" width="24.000000" height="24.000000" rx="0" ry="0" style="stroke:none;fill:#4B71A1;"/>
<text x="103.350000" y="42.000000" font-family="Arial" font-size="7" text-anchor="middle" fill="#FFFFFF">+</text>
<circle cx="113.350000" cy="50.000000" r="1"/>
<line x1="118.350000" y1="43.000000" x2="115.350000" y2="44.000000"  transform="rotate(0.000000,115.350000,44.000000)" style="stroke: black; stroke-width:0.25;"/>
<line x1="118.350000" y1="45.000000" x2="115.350000" y2="44.000000"  transform="rotate(0.000000,115.350000,44.000000)" style="stroke: black; stroke-width:0.25;"/>
<line x1="118.350000" y1="35.000000" x2="115.350000" y2="36.000000"  transform="rotate(0.000000,115.350000,36.000000)" style="stroke: black; stroke-width:0.25;"/>
<line x1="118.350000" y1="37.000000" x2="115.350000" y2="36.000000"  transform="rotate(0.000000,115.350000,36.000000)" style="stroke: black; stroke-width:0.25;"/>
<line x1="216.700000" y1="76.000000" x2="216.700000" y2="72.000000"  style="stroke:black; stroke-linecap:round; stroke-width:0.25;"/>
<line x1="216.700000" y1="72.000000" x2="220.700000" y2="72.000000"  style="stroke:black; stroke-linecap:round; stroke-width:0.25;"/>
<line x1="220.700000" y1="72.000000" x2="220.700000" y2="76.000000"  style="stroke:black; stroke-linecap:round; stroke-width:0.25;"/>
<line x1="15.000000" y1="15.000000" x2="15.000000" y2="129.000000"  style="stroke: black; stroke-linecap:round; stroke-width:0.25; stroke-dasharray:3,3;"/>
<line x1="15.000000" y1="129.000000" x2="263.700000" y2="129.000000"  style="stroke: black; stroke-linecap:round; stroke-width:0.25; stroke-dasharray:3,3;"/>
<line x1="263.700000" y1="129.000000" x2="263.700000" y2="15.000000"  style="stroke: black; stroke-linecap:round; stroke-width:0.25; stroke-dasharray:3,3;"/>
<line x1="15.000000" y1="15.000000" x2="20.000000" y2="15.000000"  style="stroke: black; stroke-linecap:round; stroke-width:0.25; stroke-dasharray:3,3;"/>
<line x1="29.675000" y1="15.000000" x2="263.700000" y2="15.000000"  style="stroke: black; stroke-linecap:round; stroke-width:0.25; stroke-dasharray:3,3;"/>
<text x="20.000000" y="17.000000" font-family="Arial" font-size="7">p</text>
<line x1="265.700000" y1="71.000000" x2="268.700000" y2="72.000000"  transform="rotate(0.000000,268.700000,72.000000)" style="stroke: black; stroke-width:0.25;"/>
<line x1="265.700000" y1="73.000000" x2="268.700000" y2="72.000000"  transform="rotate(0.000000,268.700000,72.000000)" style="stroke: black; stroke-width:0.25;"/>
<line x1="28.000000" y1="40.000000" x2="28.000000" y2="40.000000"  style="stroke:black; stroke-linecap:round; stroke-width:0.25;"/>
<line x1="28.000000" y1="40.000000" x2="28.000000" y2="92.000000"  style="stroke:black; stroke-linecap:round; stroke-width:0.25;"/>
<line x1="28.000000" y1="92.000000" x2="28.000000" y2="92.000000"  style="stroke:black; stroke-linecap:round; stroke-width:0.25;"/>
<line x1="28.000000" y1="92.000000" x2="32.000000" y2="92.000000"  style="stroke:black; stroke-linecap:round; stroke-width:0.25;"/>
<line x1="32.000000" y1="92.000000" x2="36.000000" y2="92.000000"  style="stroke:black; stroke-linecap:round; stroke-width:0.25;"/>
<line x1="36.000000" y1="92.000000" x2="50.000000" y2="72.000000"  style="stroke:black; stroke-linecap:round; stroke-width:0.25;"/>
<line x1="36.000000" y1="92.000000" x2="50.000000" y2="112.000000"  style="stroke:black; stroke-linecap:round; stroke-width:0.25;"/>
<line x1="50.000000" y1="72.000000" x2="66.000000" y2="72.000000"  style="stroke:black; stroke-linecap:round; stroke-width:0.25;"/>
<line x1="50.000000" y1="112.000000" x2="97.000000" y2="112.000000"  style="stroke:black; stroke-linecap:round; stroke-width:0.25;"/>
<line x1="66.000000" y1="72.000000" x2="82.000000" y2="72.000000"  style="stroke:black; stroke-linecap:round; stroke-width:0.25;"/>
<line x1="78.000000" y1="92.000000" x2="82.000000" y2="92.000000"  style="stroke:black; stroke-linecap:round; stroke-width:0.25;"/>
<line x1="82.000000" y1="72.000000" x2="90.000000" y2="72.000000"  style="stroke:black; stroke-linecap:round; stroke-width:0.25;"/>
<line x1="82.000000" y1="92.000000" x2="90.000000" y2="92.000000"  style="stroke:black; stroke-linecap:round; stroke-width:0.25;"/>
<line x1="87.350000" y1="40.000000" x2="28.000000" y2="40.000000"  style="stroke:black; stroke-linecap:round; stroke-width:0.25;"/>
<line x1="90.000000" y1="72.000000" x2="90.000000" y2="84.000000"  style="stroke:black; stroke-linecap:round; stroke-width:0.25;"/>
<line x1="90.000000" y1="84.000000" x2="90.000000" y2="84.000000"  style="stroke:black; stroke-linecap:round; stroke-width:0.25;"/>
<line x1="90.000000" y1="84.000000" x2="94.000000" y2="84.000000"  style="stroke:black; stroke-linecap:round; stroke-width:0.25;"/>
<line x1="90.000000" y1="92.000000" x2="94.000000" y2="92.000000"  style="stroke:black; stroke-linecap:round; stroke-width:0.25;"/>
<line x1="91.350000" y1="40.000000" x2="87.350000" y2="40.000000"  style="stroke:black; stroke-linecap:round; stroke-width:0.25;"/>
<line x1="97.000000" y1="112.000000" x2="144.000000" y2="112.000000"  style="stroke:black; stroke-linecap:round; stroke-width:0.25;"/>
<line x1="118.000000" y1="88.000000" x2="122.000000" y2="88.000000"  style="stroke:black; stroke-linecap:round; stroke-width:0.25;"/>
<line x1="119.350000" y1="36.000000" x2="115.350000" y2="36.000000"  style="stroke:black; stroke-linecap:round; stroke-width:0.25;"/>
<line x1="119.350000" y1="44.000000" x2="115.350000" y2="44.000000"  style="stroke:black; stroke-linecap:round; stroke-width:0.25;"/>
<line x1="119.350000" y1="44.000000" x2="119.350000" y2="44.000000"  style="stroke:black; stroke-linecap:round; stroke-width:0.25;"/>
<line x1="119.350000" y1="56.000000" x2="119.350000" y2="44.000000"  style="stroke:black; stroke-linecap:round; stroke-width:0.25;"/>
<line x1="122.000000" y1="88.000000" x2="136.000000" y2="84.000000"  style="stroke:black; stroke-linecap:round; stroke-width:0.25;"/>
<line x1="122.000000" y1="88.000000" x2="136.000000" y2="92.000000"  style="stroke:black; stroke-linecap:round; stroke-width:0.25;"/>
<line x1="127.350000" y1="36.000000" x2="119.350000" y2="36.000000"  style="stroke:black; stroke-linecap:round; stroke-width:0.25;"/>
<line x1="127.350000" y1="56.000000" x2="119.350000" y2="56.000000"  style="stroke:black; stroke-linecap:round; stroke-width:0.25;"/>
<line x1="131.350000" y1="36.000000" x2="127.350000" y2="36.000000"  style="stroke:black; stroke-linecap:round; stroke-width:0.25;"/>
<line x1="136.000000" y1="84.000000" x2="140.000000" y2="84.000000"  style="stroke:black; stroke-linecap:round; stroke-width:0.25;"/>
<line x1="136.000000" y1="92.000000" x2="140.000000" y2="92.000000"  style="stroke:black; stroke-linecap:round; stroke-width:0.25;"/>
<line x1="140.000000" y1="84.000000" x2="144.000000" y2="84.000000"  style="stroke:black; stroke-linecap:round; stroke-width:0.25;"/>
<line x1="140.000000" y1="92.000000" x2="144.000000" y2="92.000000"  style="stroke:black; stroke-linecap:round; stroke-width:0.25;"/>
<line x1="143.350000" y1="56.000000" x2="127.350000" y2="56.000000"  style="stroke:black; stroke-linecap:round; stroke-width:0.25;"/>
<line x1="144.000000" y1="84.000000" x2="172.000000" y2="68.000000"  style="stroke:black; stroke-linecap:round; stroke-width:0.25;"/>
<line x1="144.000000" y1="84.000000" x2="172.000000" y2="100.000000"  style="stroke:black; stroke-linecap:round; stroke-width:0.25;"/>
<line x1="144.000000" y1="92.000000" x2="172.000000" y2="76.000000"  style="stroke:black; stroke-linecap:round; stroke-width:0.25;"/>
<line x1="144.000000" y1="92.000000" x2="172.000000" y2="108.000000"  style="stroke:black; stroke-linecap:round; stroke-width:0.25;"/>
<line x1="144.000000" y1="112.000000" x2="172.000000" y2="84.000000"  style="stroke:black; stroke-linecap:round; stroke-width:0.25;"/>
<line x1="144.000000" y1="112.000000" x2="172.000000" y2="116.000000"  style="stroke:black; stroke-linecap:round; stroke-width:0.25;"/>
<line x1="159.350000" y1="56.000000" x2="143.350000" y2="56.000000"  style="stroke:black; stroke-linecap:round; stroke-width:0.25;"/>
<line x1="172.000000" y1="68.000000" x2="176.000000" y2="68.000000"  style="stroke:black; stroke-linecap:round; stroke-width:0.25;"/>
<line x1="172.000000" y1="76.000000" x2="176.000000" y2="76.000000"  style="stroke:black; stroke-linecap:round; stroke-width:0.25;"/>
<line x1="172.000000" y1="84.000000" x2="176.000000" y2="84.000000"  style="stroke:black; stroke-linecap:round; stroke-width:0.25;"/>
<line x1="172.000000" y1="100.000000" x2="176.000000" y2="100.000000"  style="stroke:black; stroke-linecap:round; stroke-width:0.25;"/>
<line x1="172.000000" y1="108.000000" x2="176.000000" y2="108.000000"  style="stroke:black; stroke-linecap:round; stroke-width:0.25;"/>
<line x1="172.000000" y1="116.000000" x2="176.000000" y2="116.000000"  style="stroke:black; stroke-linecap:round; stroke-width:0.25;"/>
<line x1="214.700000" y1="76.000000" x2="218.700000" y2="76.000000"  style="stroke:black; stroke-linecap:round; stroke-width:0.25;"/>
<line x1="214.700000" y1="108.000000" x2="218.700000" y2="108.000000"  style="stroke:black; stroke-linecap:round; stroke-width:0.25;"/>
<line x1="218.700000" y1="56.000000" x2="159.350000" y2="56.000000"  style="stroke:black; stroke-linecap:round; stroke-width:0.25;"/>
<line x1="218.700000" y1="56.000000" x2="218.700000" y2="56.000000"  style="stroke:black; stroke-linecap:round; stroke-width:0.25;"/>
<line x1="218.700000" y1="72.000000" x2="218.700000" y2="56.000000"  style="stroke:black; stroke-linecap:round; stroke-width:0.25;"/>
<line x1="218.700000" y1="76.000000" x2="220.700000" y2="76.000000"  style="stroke:black; stroke-linecap:round; stroke-width:0.25;"/>
<line x1="218.700000" y1="108.000000" x2="226.700000" y2="108.000000"  style="stroke:black; stroke-linecap:round; stroke-width:0.25;"/>
<line x1="226.700000" y1="108.000000" x2="234.700000" y2="108.000000"  style="stroke:black; stroke-linecap:round; stroke-width:0.25;"/>
<line x1="234.700000" y1="72.040000" x2="242.700000" y2="72.040000"  style="stroke:black; stroke-linecap:round; stroke-width:0.25;"/>
<line x1="234.700000" y1="108.000000" x2="234.700000" y2="72.040000"  style="stroke:black; stroke-linecap:round; stroke-width:0.25;"/>
<line x1="242.700000" y1="72.000000" x2="250.700000" y2="72.000000"  style="stroke:black; stroke-linecap:round; stroke-width:0.25;"/>
<line x1="242.700000" y1="72.040000" x2="242.700000" y2="72.000000"  style="stroke:black; stroke-linecap:round; stroke-width:0.25;"/>
<line x1="242.700000" y1="72.040000" x2="242.700000" y2="72.040000"  style="stroke:black; stroke-linecap:round; stroke-width:0.25;"/>
<line x1="250.700000" y1="72.000000" x2="254.700000" y2="72.000000"  style="stroke:black; stroke-linecap:round; stroke-width:0.25;"/>
<line x1="254.700000" y1="72.000000" x2="258.700000" y2="72.000000"  style="stroke:black; stroke-linecap:round; stroke-width:0.25;"/>
<line x1="258.700000" y1="72.000000" x2="268.700000" y2="72.000000"  style="stroke:black; stroke-linecap:round; stroke-width:0.25;"/>
</svg>
