<?xml version="1.0"?>
<svg xmlns="http://www.w3.org/2000/svg" xmlns:xlink="http://www.w3.org/1999/xlink" viewBox="0 0 181.800000 132.000000" width="90.900000mm" height="66.000000mm" version="1.1">
<a xlink:href="triangle-0x7fc02c2a62f0.svg">
<rect x="1.000000" y="1.000000" width="180.800000" height="131.000000" rx="0" ry="0" style="stroke:none;fill:#cccccc;"/>
<rect x="0.000000" y="0.000000" width="180.800000" height="131.000000" rx="0" ry="0" style="stroke:none;fill:#ffffff;"/>
</a>
<text x="10.000000" y="7.000000" font-family="Arial" font-size="7"></text>
<rect x="79.900000" y="85.000000" width="24.000000" height="24.000000" rx="0" ry="0" style="stroke:none;fill:#cccccc;"/>
<rect x="78.900000" y="84.000000" width="24.000000" height="24.000000" rx="0" ry="0" style="stroke:none;fill:#4B71A1;"/>
<text x="90.900000" y="98.000000" font-family="Arial" font-size="7" text-anchor="middle" fill="#FFFFFF">+</text>
<circle cx="80.900000" cy="86.000000" r="1"/>
<line x1="75.900000" y1="91.000000" x2="78.900000" y2="92.000000"  transform="rotate(0.000000,78.900000,92.000000)" style="stroke: black; stroke-width:0.25;"/>
<line x1="75.900000" y1="93.000000" x2="78.900000" y2="92.000000"  transform="rotate(0.000000,78.900000,92.000000)" style="stroke: black; stroke-width:0.25;"/>
<line x1="75.900000" y1="99.000000" x2="78.900000" y2="100.000000"  transform="rotate(0.000000,78.900000,100.000000)" style="stroke: black; stroke-width:0.25;"/>
<line x1="75.900000" y1="101.000000" x2="78.900000" y2="100.000000"  transform="rotate(0.000000,78.900000,100.000000)" style="stroke: black; stroke-width:0.25;"/>
<rect x="99.000000" y="35.000000" width="25.800000" height="24.000000" rx="0" ry="0" style="stroke:none;fill:#cccccc;"/>
<rect x="98.000000" y="34.000000" width="25.800000" height="24.000000" rx="0" ry="0" style="stroke:none;fill:#f44800;"/>
<text x="110.900000" y="48.000000" font-family="Arial" font-size="7" text-anchor="middle" fill="#FFFFFF">0.999</text>
<circle cx="121.800000" cy="56.000000" r="1"/>
<line x1="89.000000" y1="25.000000" x2="89.000000" y2="67.000000"  style="stroke: black; stroke-linecap:round; stroke-width:0.25; stroke-dasharray:3,3;"/>
<line x1="89.000000" y1="67.000000" x2="132.800000" y2="67.000000"  style="stroke: black; stroke-linecap:round; stroke-width:0.25; stroke-dasharray:3,3;"/>
<line x1="132.800000" y1="67.000000" x2="132.800000" y2="25.000000"  style="stroke: black; stroke-linecap:round; stroke-width:0.25; stroke-dasharray:3,3;"/>
<line x1="89.000000" y1="25.000000" x2="94.000000" y2="25.000000"  style="stroke: black; stroke-linecap:round; stroke-width:0.25; stroke-dasharray:3,3;"/>
<line x1="103.675000" y1="25.000000" x2="132.800000" y2="25.000000"  style="stroke: black; stroke-linecap:round; stroke-width:0.25; stroke-dasharray:3,3;"/>
<text x="94.000000" y="27.000000" font-family="Arial" font-size="7">p</text>
<rect x="49.000000" y="39.000000" width="24.000000" height="24.000000" rx="0" ry="0" style="stroke:none;fill:#cccccc;"/>
<rect x="48.000000" y="38.000000" width="24.000000" height="24.000000" rx="0" ry="0" style="stroke:none;fill:#4B71A1;"/>
<text x="60.000000" y="52.000000" font-family="Arial" font-size="7" text-anchor="middle" fill="#FFFFFF">*</text>
<circle cx="70.000000" cy="60.000000" r="1"/>
<line x1="75.000000" y1="53.000000" x2="72.000000" y2="54.000000"  transform="rotate(0.000000,72.000000,54.000000)" style="stroke: black; stroke-width:0.25;"/>
<line x1="75.000000" y1="55.000000" x2="72.000000" y2="54.000000"  transform="rotate(0.000000,72.000000,54.000000)" style="stroke: black; stroke-width:0.25;"/>
<line x1="75.000000" y1="45.000000" x2="72.000000" y2="46.000000"  transform="rotate(0.000000,72.000000,46.000000)" style="stroke: black; stroke-width:0.25;"/>
<line x1="75.000000" y1="47.000000" x2="72.000000" y2="46.000000"  transform="rotate(0.000000,72.000000,46.000000)" style="stroke: black; stroke-width:0.25;"/>
<line x1="135.800000" y1="96.000000" x2="135.800000" y2="92.000000"  style="stroke:black; stroke-linecap:round; stroke-width:0.25;"/>
<line x1="135.800000" y1="92.000000" x2="139.800000" y2="92.000000"  style="stroke:black; stroke-linecap:round; stroke-width:0.25;"/>
<line x1="139.800000" y1="92.000000" x2="139.800000" y2="96.000000"  style="stroke:black; stroke-linecap:round; stroke-width:0.25;"/>
<line x1="15.000000" y1="15.000000" x2="15.000000" y2="117.000000"  style="stroke: black; stroke-linecap:round; stroke-width:0.25; stroke-dasharray:3,3;"/>
<line x1="15.000000" y1="117.000000" x2="166.800000" y2="117.000000"  style="stroke: black; stroke-linecap:round; stroke-width:0.25; stroke-dasharray:3,3;"/>
<line x1="166.800000" y1="117.000000" x2="166.800000" y2="15.000000"  style="stroke: black; stroke-linecap:round; stroke-width:0.25; stroke-dasharray:3,3;"/>
<line x1="15.000000" y1="15.000000" x2="20.000000" y2="15.000000"  style="stroke: black; stroke-linecap:round; stroke-width:0.25; stroke-dasharray:3,3;"/>
<line x1="65.150000" y1="15.000000" x2="166.800000" y2="15.000000"  style="stroke: black; stroke-linecap:round; stroke-width:0.25; stroke-dasharray:3,3;"/>
<text x="20.000000" y="17.000000" font-family="Arial" font-size="7">pole(0.999f)</text>
<line x1="168.800000" y1="65.000000" x2="171.800000" y2="66.000000"  transform="rotate(0.000000,171.800000,66.000000)" style="stroke: black; stroke-width:0.25;"/>
<line x1="168.800000" y1="67.000000" x2="171.800000" y2="66.000000"  transform="rotate(0.000000,171.800000,66.000000)" style="stroke: black; stroke-width:0.25;"/>
<line x1="10.000000" y1="66.000000" x2="20.000000" y2="66.000000"  style="stroke:black; stroke-linecap:round; stroke-width:0.25;"/>
<line x1="20.000000" y1="66.000000" x2="24.000000" y2="66.000000"  style="stroke:black; stroke-linecap:round; stroke-width:0.25;"/>
<line x1="24.000000" y1="66.000000" x2="28.000000" y2="66.000000"  style="stroke:black; stroke-linecap:round; stroke-width:0.25;"/>
<line x1="28.000000" y1="66.000000" x2="36.000000" y2="66.000000"  style="stroke:black; stroke-linecap:round; stroke-width:0.25;"/>
<line x1="36.000000" y1="66.000000" x2="36.000000" y2="100.000000"  style="stroke:black; stroke-linecap:round; stroke-width:0.25;"/>
<line x1="36.000000" y1="100.000000" x2="36.000000" y2="100.000000"  style="stroke:black; stroke-linecap:round; stroke-width:0.25;"/>
<line x1="36.000000" y1="100.000000" x2="44.000000" y2="100.000000"  style="stroke:black; stroke-linecap:round; stroke-width:0.25;"/>
<line x1="44.000000" y1="50.000000" x2="44.000000" y2="50.000000"  style="stroke:black; stroke-linecap:round; stroke-width:0.25;"/>
<line x1="44.000000" y1="50.000000" x2="44.000000" y2="92.000000"  style="stroke:black; stroke-linecap:round; stroke-width:0.25;"/>
<line x1="44.000000" y1="92.000000" x2="44.000000" y2="92.000000"  style="stroke:black; stroke-linecap:round; stroke-width:0.25;"/>
<line x1="44.000000" y1="92.000000" x2="74.900000" y2="92.000000"  style="stroke:black; stroke-linecap:round; stroke-width:0.25;"/>
<line x1="44.000000" y1="100.000000" x2="74.900000" y2="100.000000"  style="stroke:black; stroke-linecap:round; stroke-width:0.25;"/>
<line x1="48.000000" y1="50.000000" x2="44.000000" y2="50.000000"  style="stroke:black; stroke-linecap:round; stroke-width:0.25;"/>
<line x1="74.900000" y1="92.000000" x2="78.900000" y2="92.000000"  style="stroke:black; stroke-linecap:round; stroke-width:0.25;"/>
<line x1="74.900000" y1="100.000000" x2="78.900000" y2="100.000000"  style="stroke:black; stroke-linecap:round; stroke-width:0.25;"/>
<line x1="76.000000" y1="46.000000" x2="72.000000" y2="46.000000"  style="stroke:black; stroke-linecap:round; stroke-width:0.25;"/>
<line x1="76.000000" y1="54.000000" x2="72.000000" y2="54.000000"  style="stroke:black; stroke-linecap:round; stroke-width:0.25;"/>
<line x1="76.000000" y1="54.000000" x2="76.000000" y2="54.000000"  style="stroke:black; stroke-linecap:round; stroke-width:0.25;"/>
<line x1="76.000000" y1="76.000000" x2="76.000000" y2="54.000000"  style="stroke:black; stroke-linecap:round; stroke-width:0.25;"/>
<line x1="84.000000" y1="46.000000" x2="76.000000" y2="46.000000"  style="stroke:black; stroke-linecap:round; stroke-width:0.25;"/>
<line x1="84.000000" y1="76.000000" x2="76.000000" y2="76.000000"  style="stroke:black; stroke-linecap:round; stroke-width:0.25;"/>
<line x1="94.000000" y1="46.000000" x2="84.000000" y2="46.000000"  style="stroke:black; stroke-linecap:round; stroke-width:0.25;"/>
<line x1="98.000000" y1="46.000000" x2="94.000000" y2="46.000000"  style="stroke:black; stroke-linecap:round; stroke-width:0.25;"/>
<line x1="102.900000" y1="96.000000" x2="106.900000" y2="96.000000"  style="stroke:black; stroke-linecap:round; stroke-width:0.25;"/>
<line x1="106.900000" y1="96.000000" x2="137.800000" y2="96.000000"  style="stroke:black; stroke-linecap:round; stroke-width:0.25;"/>
<line x1="110.900000" y1="76.000000" x2="84.000000" y2="76.000000"  style="stroke:black; stroke-linecap:round; stroke-width:0.25;"/>
<line x1="137.800000" y1="76.000000" x2="110.900000" y2="76.000000"  style="stroke:black; stroke-linecap:round; stroke-width:0.25;"/>
<line x1="137.800000" y1="76.000000" x2="137.800000" y2="76.000000"  style="stroke:black; stroke-linecap:round; stroke-width:0.25;"/>
<line x1="137.800000" y1="92.000000" x2="137.800000" y2="76.000000"  style="stroke:black; stroke-linecap:round; stroke-width:0.25;"/>
<line x1="137.800000" y1="96.000000" x2="139.800000" y2="96.000000"  style="stroke:black; stroke-linecap:round; stroke-width:0.25;"/>
<line x1="139.800000" y1="96.000000" x2="145.800000" y2="96.000000"  style="stroke:black; stroke-linecap:round; stroke-width:0.25;"/>
<line x1="145.800000" y1="66.000000" x2="153.800000" y2="66.000000"  style="stroke:black; stroke-linecap:round; stroke-width:0.25;"/>
<line x1="145.800000" y1="96.000000" x2="145.800000" y2="66.000000"  style="stroke:black; stroke-linecap:round; stroke-width:0.25;"/>
<line x1="145.800000" y1="96.000000" x2="145.800000" y2="96.000000"  style="stroke:black; stroke-linecap:round; stroke-width:0.25;"/>
<line x1="153.800000" y1="66.000000" x2="157.800000" y2="66.000000"  style="stroke:black; stroke-linecap:round; stroke-width:0.25;"/>
<line x1="157.800000" y1="66.000000" x2="161.800000" y2="66.000000"  style="stroke:black; stroke-linecap:round; stroke-width:0.25;"/>
<line x1="161.800000" y1="66.000000" x2="171.800000" y2="66.000000"  style="stroke:black; stroke-linecap:round; stroke-width:0.25;"/>
</svg>
