<?xml version="1.0"?>
<svg xmlns="http://www.w3.org/2000/svg" xmlns:xlink="http://www.w3.org/1999/xlink" viewBox="0 0 352.500000 124.000000" width="176.250000mm" height="62.000000mm" version="1.1">
<a xlink:href="squareN-0x7fc02c2a5fd0.svg">
<rect x="1.000000" y="1.000000" width="351.500000" height="123.000000" rx="0" ry="0" style="stroke:none;fill:#cccccc;"/>
<rect x="0.000000" y="0.000000" width="351.500000" height="123.000000" rx="0" ry="0" style="stroke:none;fill:#ffffff;"/>
</a>
<text x="10.000000" y="7.000000" font-family="Arial" font-size="7"></text>
<a xlink:href="saw1l-0x7fc02c2a1d90.svg">
<rect x="25.000000" y="51.000000" width="25.800000" height="24.000000" rx="0" ry="0" style="stroke:none;fill:#cccccc;"/>
<rect x="24.000000" y="50.000000" width="25.800000" height="24.000000" rx="0" ry="0" style="stroke:none;fill:#003366;"/>
</a>
<a xlink:href="saw1l-0x7fc02c2a1d90.svg">
<text x="36.900000" y="64.000000" font-family="Arial" font-size="7" text-anchor="middle" fill="#FFFFFF">saw1l</text>
</a>
<circle cx="26.000000" cy="52.000000" r="1"/>
<rect x="68.800000" y="51.000000" width="24.000000" height="24.000000" rx="0" ry="0" style="stroke:none;fill:#cccccc;"/>
<rect x="67.800000" y="50.000000" width="24.000000" height="24.000000" rx="0" ry="0" style="stroke:none;fill:#47945E;"/>
<text x="79.800000" y="64.000000" font-family="Arial" font-size="7" text-anchor="middle" fill="#FFFFFF">PM2</text>
<circle cx="69.800000" cy="52.000000" r="1"/>
<line x1="64.800000" y1="61.000000" x2="67.800000" y2="62.000000"  transform="rotate(0.000000,67.800000,62.000000)" style="stroke: black; stroke-width:0.25;"/>
<line x1="64.800000" y1="63.000000" x2="67.800000" y2="62.000000"  transform="rotate(0.000000,67.800000,62.000000)" style="stroke: black; stroke-width:0.25;"/>
<rect x="100.800000" y="35.000000" width="24.000000" height="24.000000" rx="0" ry="0" style="stroke:none;fill:#cccccc;"/>
<rect x="99.800000" y="34.000000" width="24.000000" height="24.000000" rx="0" ry="0" style="stroke:none;fill:#47945E;"/>
<text x="111.800000" y="48.000000" font-family="Arial" font-size="7" text-anchor="middle" fill="#FFFFFF">PM2</text>
<circle cx="101.800000" cy="36.000000" r="1"/>
<rect x="100.800000" y="67.000000" width="24.000000" height="24.000000" rx="0" ry="0" style="stroke:none;fill:#cccccc;"/>
<rect x="99.800000" y="66.000000" width="24.000000" height="24.000000" rx="0" ry="0" style="stroke:none;fill:#47945E;"/>
<text x="111.800000" y="80.000000" font-family="Arial" font-size="7" text-anchor="middle" fill="#FFFFFF">PM2</text>
<circle cx="101.800000" cy="68.000000" r="1"/>
<rect x="140.800000" y="51.000000" width="24.000000" height="24.000000" rx="0" ry="0" style="stroke:none;fill:#cccccc;"/>
<rect x="139.800000" y="50.000000" width="24.000000" height="24.000000" rx="0" ry="0" style="stroke:none;fill:#4B71A1;"/>
<text x="151.800000" y="64.000000" font-family="Arial" font-size="7" text-anchor="middle" fill="#FFFFFF">*</text>
<circle cx="141.800000" cy="52.000000" r="1"/>
<line x1="136.800000" y1="57.000000" x2="139.800000" y2="58.000000"  transform="rotate(0.000000,139.800000,58.000000)" style="stroke: black; stroke-width:0.25;"/>
<line x1="136.800000" y1="59.000000" x2="139.800000" y2="58.000000"  transform="rotate(0.000000,139.800000,58.000000)" style="stroke: black; stroke-width:0.25;"/>
<line x1="136.800000" y1="65.000000" x2="139.800000" y2="66.000000"  transform="rotate(0.000000,139.800000,66.000000)" style="stroke: black; stroke-width:0.25;"/>
<line x1="136.800000" y1="67.000000" x2="139.800000" y2="66.000000"  transform="rotate(0.000000,139.800000,66.000000)" style="stroke: black; stroke-width:0.25;"/>
<line x1="58.800000" y1="25.000000" x2="58.800000" y2="99.000000"  style="stroke: black; stroke-linecap:round; stroke-width:0.25; stroke-dasharray:3,3;"/>
<line x1="58.800000" y1="99.000000" x2="172.800000" y2="99.000000"  style="stroke: black; stroke-linecap:round; stroke-width:0.25; stroke-dasharray:3,3;"/>
<line x1="172.800000" y1="99.000000" x2="172.800000" y2="25.000000"  style="stroke: black; stroke-linecap:round; stroke-width:0.25; stroke-dasharray:3,3;"/>
<line x1="58.800000" y1="25.000000" x2="63.800000" y2="25.000000"  style="stroke: black; stroke-linecap:round; stroke-width:0.25; stroke-dasharray:3,3;"/>
<line x1="105.725000" y1="25.000000" x2="172.800000" y2="25.000000"  style="stroke: black; stroke-linecap:round; stroke-width:0.25; stroke-dasharray:3,3;"/>
<text x="63.800000" y="27.000000" font-family="Arial" font-size="7">Abstraction</text>
<a xlink:href="diff-0x7fc02c2a4bb0.svg">
<rect x="193.450000" y="25.000000" width="38.700000" height="24.000000" rx="0" ry="0" style="stroke:none;fill:#cccccc;"/>
<rect x="192.450000" y="24.000000" width="38.700000" height="24.000000" rx="0" ry="0" style="stroke:none;fill:#003366;"/>
</a>
<a xlink:href="diff-0x7fc02c2a4bb0.svg">
<text x="211.800000" y="38.000000" font-family="Arial" font-size="7" text-anchor="middle" fill="#FFFFFF">diff(1)</text>
</a>
<circle cx="194.450000" cy="26.000000" r="1"/>
<line x1="189.450000" y1="35.000000" x2="192.450000" y2="36.000000"  transform="rotate(0.000000,192.450000,36.000000)" style="stroke: black; stroke-width:0.25;"/>
<line x1="189.450000" y1="37.000000" x2="192.450000" y2="36.000000"  transform="rotate(0.000000,192.450000,36.000000)" style="stroke: black; stroke-width:0.25;"/>
<rect x="200.800000" y="67.000000" width="24.000000" height="24.000000" rx="0" ry="0" style="stroke:none;fill:#cccccc;"/>
<rect x="199.800000" y="66.000000" width="24.000000" height="24.000000" rx="0" ry="0" style="stroke:none;fill:#f44800;"/>
<text x="211.800000" y="80.000000" font-family="Arial" font-size="7" text-anchor="middle" fill="#FFFFFF">2</text>
<circle cx="201.800000" cy="68.000000" r="1"/>
<line x1="190.800000" y1="57.000000" x2="190.800000" y2="99.000000"  style="stroke: black; stroke-linecap:round; stroke-width:0.25; stroke-dasharray:3,3;"/>
<line x1="190.800000" y1="99.000000" x2="232.800000" y2="99.000000"  style="stroke: black; stroke-linecap:round; stroke-width:0.25; stroke-dasharray:3,3;"/>
<line x1="232.800000" y1="99.000000" x2="232.800000" y2="57.000000"  style="stroke: black; stroke-linecap:round; stroke-width:0.25; stroke-dasharray:3,3;"/>
<line x1="190.800000" y1="57.000000" x2="195.800000" y2="57.000000"  style="stroke: black; stroke-linecap:round; stroke-width:0.25; stroke-dasharray:3,3;"/>
<line x1="208.700000" y1="57.000000" x2="232.800000" y2="57.000000"  style="stroke: black; stroke-linecap:round; stroke-width:0.25; stroke-dasharray:3,3;"/>
<text x="195.800000" y="59.000000" font-family="Arial" font-size="7">Nc</text>
<rect x="250.800000" y="51.000000" width="24.000000" height="24.000000" rx="0" ry="0" style="stroke:none;fill:#cccccc;"/>
<rect x="249.800000" y="50.000000" width="24.000000" height="24.000000" rx="0" ry="0" style="stroke:none;fill:#4B71A1;"/>
<text x="261.800000" y="64.000000" font-family="Arial" font-size="7" text-anchor="middle" fill="#FFFFFF">/</text>
<circle cx="251.800000" cy="52.000000" r="1"/>
<line x1="246.800000" y1="57.000000" x2="249.800000" y2="58.000000"  transform="rotate(0.000000,249.800000,58.000000)" style="stroke: black; stroke-width:0.25;"/>
<line x1="246.800000" y1="59.000000" x2="249.800000" y2="58.000000"  transform="rotate(0.000000,249.800000,58.000000)" style="stroke: black; stroke-width:0.25;"/>
<line x1="246.800000" y1="65.000000" x2="249.800000" y2="66.000000"  transform="rotate(0.000000,249.800000,66.000000)" style="stroke: black; stroke-width:0.25;"/>
<line x1="246.800000" y1="67.000000" x2="249.800000" y2="66.000000"  transform="rotate(0.000000,249.800000,66.000000)" style="stroke: black; stroke-width:0.25;"/>
<a xlink:href="gate-0x7fc02c0fcad0.svg">
<rect x="282.800000" y="51.000000" width="38.700000" height="24.000000" rx="0" ry="0" style="stroke:none;fill:#cccccc;"/>
<rect x="281.800000" y="50.000000" width="38.700000" height="24.000000" rx="0" ry="0" style="stroke:none;fill:#003366;"/>
</a>
<a xlink:href="gate-0x7fc02c0fcad0.svg">
<text x="301.150000" y="64.000000" font-family="Arial" font-size="7" text-anchor="middle" fill="#FFFFFF">gate(1)</text>
</a>
<circle cx="283.800000" cy="52.000000" r="1"/>
<line x1="278.800000" y1="61.000000" x2="281.800000" y2="62.000000"  transform="rotate(0.000000,281.800000,62.000000)" style="stroke: black; stroke-width:0.25;"/>
<line x1="278.800000" y1="63.000000" x2="281.800000" y2="62.000000"  transform="rotate(0.000000,281.800000,62.000000)" style="stroke: black; stroke-width:0.25;"/>
<line x1="15.000000" y1="15.000000" x2="15.000000" y2="109.000000"  style="stroke: black; stroke-linecap:round; stroke-width:0.25; stroke-dasharray:3,3;"/>
<line x1="15.000000" y1="109.000000" x2="337.500000" y2="109.000000"  style="stroke: black; stroke-linecap:round; stroke-width:0.25; stroke-dasharray:3,3;"/>
<line x1="337.500000" y1="109.000000" x2="337.500000" y2="15.000000"  style="stroke: black; stroke-linecap:round; stroke-width:0.25; stroke-dasharray:3,3;"/>
<line x1="15.000000" y1="15.000000" x2="20.000000" y2="15.000000"  style="stroke: black; stroke-linecap:round; stroke-width:0.25; stroke-dasharray:3,3;"/>
<line x1="74.825000" y1="15.000000" x2="337.500000" y2="15.000000"  style="stroke: black; stroke-linecap:round; stroke-width:0.25; stroke-dasharray:3,3;"/>
<text x="20.000000" y="17.000000" font-family="Arial" font-size="7">sawN(2)(660.0f)</text>
<line x1="339.500000" y1="61.000000" x2="342.500000" y2="62.000000"  transform="rotate(0.000000,342.500000,62.000000)" style="stroke: black; stroke-width:0.25;"/>
<line x1="339.500000" y1="63.000000" x2="342.500000" y2="62.000000"  transform="rotate(0.000000,342.500000,62.000000)" style="stroke: black; stroke-width:0.25;"/>
<line x1="49.800000" y1="62.000000" x2="53.800000" y2="62.000000"  style="stroke:black; stroke-linecap:round; stroke-width:0.25;"/>
<line x1="53.800000" y1="62.000000" x2="53.800000" y2="62.000000"  style="stroke:black; stroke-linecap:round; stroke-width:0.25;"/>
<line x1="53.800000" y1="62.000000" x2="63.800000" y2="62.000000"  style="stroke:black; stroke-linecap:round; stroke-width:0.25;"/>
<line x1="63.800000" y1="62.000000" x2="67.800000" y2="62.000000"  style="stroke:black; stroke-linecap:round; stroke-width:0.25;"/>
<line x1="123.800000" y1="46.000000" x2="127.800000" y2="46.000000"  style="stroke:black; stroke-linecap:round; stroke-width:0.25;"/>
<line x1="123.800000" y1="78.000000" x2="127.800000" y2="78.000000"  style="stroke:black; stroke-linecap:round; stroke-width:0.25;"/>
<line x1="127.800000" y1="46.000000" x2="135.800000" y2="46.000000"  style="stroke:black; stroke-linecap:round; stroke-width:0.25;"/>
<line x1="127.800000" y1="66.000000" x2="135.800000" y2="66.000000"  style="stroke:black; stroke-linecap:round; stroke-width:0.25;"/>
<line x1="127.800000" y1="78.000000" x2="127.800000" y2="66.000000"  style="stroke:black; stroke-linecap:round; stroke-width:0.25;"/>
<line x1="127.800000" y1="78.000000" x2="127.800000" y2="78.000000"  style="stroke:black; stroke-linecap:round; stroke-width:0.25;"/>
<line x1="135.800000" y1="46.000000" x2="135.800000" y2="58.000000"  style="stroke:black; stroke-linecap:round; stroke-width:0.25;"/>
<line x1="135.800000" y1="58.000000" x2="135.800000" y2="58.000000"  style="stroke:black; stroke-linecap:round; stroke-width:0.25;"/>
<line x1="135.800000" y1="58.000000" x2="139.800000" y2="58.000000"  style="stroke:black; stroke-linecap:round; stroke-width:0.25;"/>
<line x1="135.800000" y1="66.000000" x2="139.800000" y2="66.000000"  style="stroke:black; stroke-linecap:round; stroke-width:0.25;"/>
<line x1="163.800000" y1="62.000000" x2="167.800000" y2="62.000000"  style="stroke:black; stroke-linecap:round; stroke-width:0.25;"/>
<line x1="167.800000" y1="62.000000" x2="177.800000" y2="62.000000"  style="stroke:black; stroke-linecap:round; stroke-width:0.25;"/>
<line x1="177.800000" y1="36.000000" x2="185.800000" y2="36.000000"  style="stroke:black; stroke-linecap:round; stroke-width:0.25;"/>
<line x1="177.800000" y1="62.000000" x2="177.800000" y2="36.000000"  style="stroke:black; stroke-linecap:round; stroke-width:0.25;"/>
<line x1="177.800000" y1="62.000000" x2="177.800000" y2="62.000000"  style="stroke:black; stroke-linecap:round; stroke-width:0.25;"/>
<line x1="185.800000" y1="36.000000" x2="188.450000" y2="36.000000"  style="stroke:black; stroke-linecap:round; stroke-width:0.25;"/>
<line x1="188.450000" y1="36.000000" x2="192.450000" y2="36.000000"  style="stroke:black; stroke-linecap:round; stroke-width:0.25;"/>
<line x1="223.800000" y1="78.000000" x2="227.800000" y2="78.000000"  style="stroke:black; stroke-linecap:round; stroke-width:0.25;"/>
<line x1="227.800000" y1="78.000000" x2="237.800000" y2="78.000000"  style="stroke:black; stroke-linecap:round; stroke-width:0.25;"/>
<line x1="231.150000" y1="36.000000" x2="235.150000" y2="36.000000"  style="stroke:black; stroke-linecap:round; stroke-width:0.25;"/>
<line x1="235.150000" y1="36.000000" x2="237.800000" y2="36.000000"  style="stroke:black; stroke-linecap:round; stroke-width:0.25;"/>
<line x1="237.800000" y1="36.000000" x2="245.800000" y2="36.000000"  style="stroke:black; stroke-linecap:round; stroke-width:0.25;"/>
<line x1="237.800000" y1="66.000000" x2="245.800000" y2="66.000000"  style="stroke:black; stroke-linecap:round; stroke-width:0.25;"/>
<line x1="237.800000" y1="78.000000" x2="237.800000" y2="66.000000"  style="stroke:black; stroke-linecap:round; stroke-width:0.25;"/>
<line x1="237.800000" y1="78.000000" x2="237.800000" y2="78.000000"  style="stroke:black; stroke-linecap:round; stroke-width:0.25;"/>
<line x1="245.800000" y1="36.000000" x2="245.800000" y2="58.000000"  style="stroke:black; stroke-linecap:round; stroke-width:0.25;"/>
<line x1="245.800000" y1="58.000000" x2="245.800000" y2="58.000000"  style="stroke:black; stroke-linecap:round; stroke-width:0.25;"/>
<line x1="245.800000" y1="58.000000" x2="249.800000" y2="58.000000"  style="stroke:black; stroke-linecap:round; stroke-width:0.25;"/>
<line x1="245.800000" y1="66.000000" x2="249.800000" y2="66.000000"  style="stroke:black; stroke-linecap:round; stroke-width:0.25;"/>
<line x1="273.800000" y1="62.000000" x2="277.800000" y2="62.000000"  style="stroke:black; stroke-linecap:round; stroke-width:0.25;"/>
<line x1="277.800000" y1="62.000000" x2="277.800000" y2="62.000000"  style="stroke:black; stroke-linecap:round; stroke-width:0.25;"/>
<line x1="277.800000" y1="62.000000" x2="281.800000" y2="62.000000"  style="stroke:black; stroke-linecap:round; stroke-width:0.25;"/>
<line x1="320.500000" y1="62.000000" x2="324.500000" y2="62.000000"  style="stroke:black; stroke-linecap:round; stroke-width:0.25;"/>
<line x1="324.500000" y1="62.000000" x2="324.500000" y2="62.000000"  style="stroke:black; stroke-linecap:round; stroke-width:0.25;"/>
<line x1="324.500000" y1="62.000000" x2="328.500000" y2="62.000000"  style="stroke:black; stroke-linecap:round; stroke-width:0.25;"/>
<line x1="328.500000" y1="62.000000" x2="332.500000" y2="62.000000"  style="stroke:black; stroke-linecap:round; stroke-width:0.25;"/>
<line x1="332.500000" y1="62.000000" x2="342.500000" y2="62.000000"  style="stroke:black; stroke-linecap:round; stroke-width:0.25;"/>
</svg>
