<?xml version="1.0"?>
<svg xmlns="http://www.w3.org/2000/svg" xmlns:xlink="http://www.w3.org/1999/xlink" viewBox="0 0 345.000000 328.000000" width="172.500000mm" height="164.000000mm" version="1.1">
<a xlink:href="triangle-0x7fc02c2a62f0.svg">
<rect x="1.000000" y="1.000000" width="344.000000" height="327.000000" rx="0" ry="0" style="stroke:none;fill:#cccccc;"/>
<rect x="0.000000" y="0.000000" width="344.000000" height="327.000000" rx="0" ry="0" style="stroke:none;fill:#ffffff;"/>
</a>
<text x="10.000000" y="7.000000" font-family="Arial" font-size="7"></text>
<a xlink:href="sawN-0x7fc02c2a5090.svg">
<rect x="97.250000" y="25.000000" width="64.500000" height="24.000000" rx="0" ry="0" style="stroke:none;fill:#cccccc;"/>
<rect x="96.250000" y="24.000000" width="64.500000" height="24.000000" rx="0" ry="0" style="stroke:none;fill:#003366;"/>
</a>
<a xlink:href="sawN-0x7fc02c2a5090.svg">
<text x="128.500000" y="38.000000" font-family="Arial" font-size="7" text-anchor="middle" fill="#FFFFFF">sawN(2)(660.0f)</text>
</a>
<circle cx="98.250000" cy="26.000000" r="1"/>
<a xlink:href="sawN-0x7fc02c2a5090.svg">
<rect x="57.250000" y="57.000000" width="64.500000" height="24.000000" rx="0" ry="0" style="stroke:none;fill:#cccccc;"/>
<rect x="56.250000" y="56.000000" width="64.500000" height="24.000000" rx="0" ry="0" style="stroke:none;fill:#003366;"/>
</a>
<a xlink:href="sawN-0x7fc02c2a5090.svg">
<text x="88.500000" y="70.000000" font-family="Arial" font-size="7" text-anchor="middle" fill="#FFFFFF">sawN(2)(660.0f)</text>
</a>
<circle cx="58.250000" cy="58.000000" r="1"/>
<a xlink:href="del-0x7fc02c119b80.svg">
<rect x="61.500000" y="89.000000" width="24.000000" height="24.000000" rx="0" ry="0" style="stroke:none;fill:#cccccc;"/>
<rect x="60.500000" y="88.000000" width="24.000000" height="24.000000" rx="0" ry="0" style="stroke:none;fill:#003366;"/>
</a>
<a xlink:href="del-0x7fc02c119b80.svg">
<text x="72.500000" y="102.000000" font-family="Arial" font-size="7" text-anchor="middle" fill="#FFFFFF">del</text>
</a>
<circle cx="62.500000" cy="90.000000" r="1"/>
<rect x="93.500000" y="89.000000" width="24.000000" height="24.000000" rx="0" ry="0" style="stroke:none;fill:#cccccc;"/>
<rect x="92.500000" y="88.000000" width="24.000000" height="24.000000" rx="0" ry="0" style="stroke:none;fill:#4B71A1;"/>
<text x="104.500000" y="102.000000" font-family="Arial" font-size="7" text-anchor="middle" fill="#FFFFFF">int</text>
<circle cx="94.500000" cy="90.000000" r="1"/>
<line x1="89.500000" y1="99.000000" x2="92.500000" y2="100.000000"  transform="rotate(0.000000,92.500000,100.000000)" style="stroke: black; stroke-width:0.25;"/>
<line x1="89.500000" y1="101.000000" x2="92.500000" y2="100.000000"  transform="rotate(0.000000,92.500000,100.000000)" style="stroke: black; stroke-width:0.25;"/>
<rect x="137.750000" y="73.000000" width="24.000000" height="24.000000" rx="0" ry="0" style="stroke:none;fill:#cccccc;"/>
<rect x="136.750000" y="72.000000" width="24.000000" height="24.000000" rx="0" ry="0" style="stroke:none;fill:#4B71A1;"/>
<text x="148.750000" y="86.000000" font-family="Arial" font-size="7" text-anchor="middle" fill="#FFFFFF">@</text>
<circle cx="138.750000" cy="74.000000" r="1"/>
<line x1="133.750000" y1="79.000000" x2="136.750000" y2="80.000000"  transform="rotate(0.000000,136.750000,80.000000)" style="stroke: black; stroke-width:0.25;"/>
<line x1="133.750000" y1="81.000000" x2="136.750000" y2="80.000000"  transform="rotate(0.000000,136.750000,80.000000)" style="stroke: black; stroke-width:0.25;"/>
<line x1="133.750000" y1="87.000000" x2="136.750000" y2="88.000000"  transform="rotate(0.000000,136.750000,88.000000)" style="stroke: black; stroke-width:0.25;"/>
<line x1="133.750000" y1="89.000000" x2="136.750000" y2="88.000000"  transform="rotate(0.000000,136.750000,88.000000)" style="stroke: black; stroke-width:0.25;"/>
<rect x="77.500000" y="121.000000" width="24.000000" height="24.000000" rx="0" ry="0" style="stroke:none;fill:#cccccc;"/>
<rect x="76.500000" y="120.000000" width="24.000000" height="24.000000" rx="0" ry="0" style="stroke:none;fill:#f44800;"/>
<text x="88.500000" y="134.000000" font-family="Arial" font-size="7" text-anchor="middle" fill="#FFFFFF">1</text>
<circle cx="78.500000" cy="122.000000" r="1"/>
<a xlink:href="decimal-0x7fc02c121030.svg">
<rect x="25.000000" y="153.000000" width="129.000000" height="24.000000" rx="0" ry="0" style="stroke:none;fill:#cccccc;"/>
<rect x="24.000000" y="152.000000" width="129.000000" height="24.000000" rx="0" ry="0" style="stroke:none;fill:#003366;"/>
</a>
<a xlink:href="decimal-0x7fc02c121030.svg">
<text x="88.500000" y="166.000000" font-family="Arial" font-size="7" text-anchor="middle" fill="#FFFFFF">decimal(0,(20...: min) : max)</text>
</a>
<circle cx="26.000000" cy="154.000000" r="1"/>
<rect x="170.000000" y="137.000000" width="24.000000" height="24.000000" rx="0" ry="0" style="stroke:none;fill:#cccccc;"/>
<rect x="169.000000" y="136.000000" width="24.000000" height="24.000000" rx="0" ry="0" style="stroke:none;fill:#4B71A1;"/>
<text x="181.000000" y="150.000000" font-family="Arial" font-size="7" text-anchor="middle" fill="#FFFFFF">-</text>
<circle cx="171.000000" cy="138.000000" r="1"/>
<line x1="166.000000" y1="143.000000" x2="169.000000" y2="144.000000"  transform="rotate(0.000000,169.000000,144.000000)" style="stroke: black; stroke-width:0.25;"/>
<line x1="166.000000" y1="145.000000" x2="169.000000" y2="144.000000"  transform="rotate(0.000000,169.000000,144.000000)" style="stroke: black; stroke-width:0.25;"/>
<line x1="166.000000" y1="151.000000" x2="169.000000" y2="152.000000"  transform="rotate(0.000000,169.000000,152.000000)" style="stroke: black; stroke-width:0.25;"/>
<line x1="166.000000" y1="153.000000" x2="169.000000" y2="152.000000"  transform="rotate(0.000000,169.000000,152.000000)" style="stroke: black; stroke-width:0.25;"/>
<rect x="210.000000" y="105.000000" width="24.000000" height="24.000000" rx="0" ry="0" style="stroke:none;fill:#cccccc;"/>
<rect x="209.000000" y="104.000000" width="24.000000" height="24.000000" rx="0" ry="0" style="stroke:none;fill:#4B71A1;"/>
<text x="221.000000" y="118.000000" font-family="Arial" font-size="7" text-anchor="middle" fill="#FFFFFF">*</text>
<circle cx="211.000000" cy="106.000000" r="1"/>
<line x1="206.000000" y1="111.000000" x2="209.000000" y2="112.000000"  transform="rotate(0.000000,209.000000,112.000000)" style="stroke: black; stroke-width:0.25;"/>
<line x1="206.000000" y1="113.000000" x2="209.000000" y2="112.000000"  transform="rotate(0.000000,209.000000,112.000000)" style="stroke: black; stroke-width:0.25;"/>
<line x1="206.000000" y1="119.000000" x2="209.000000" y2="120.000000"  transform="rotate(0.000000,209.000000,120.000000)" style="stroke: black; stroke-width:0.25;"/>
<line x1="206.000000" y1="121.000000" x2="209.000000" y2="120.000000"  transform="rotate(0.000000,209.000000,120.000000)" style="stroke: black; stroke-width:0.25;"/>
<rect x="250.000000" y="89.000000" width="24.000000" height="24.000000" rx="0" ry="0" style="stroke:none;fill:#cccccc;"/>
<rect x="249.000000" y="88.000000" width="24.000000" height="24.000000" rx="0" ry="0" style="stroke:none;fill:#4B71A1;"/>
<text x="261.000000" y="102.000000" font-family="Arial" font-size="7" text-anchor="middle" fill="#FFFFFF">-</text>
<circle cx="251.000000" cy="90.000000" r="1"/>
<line x1="246.000000" y1="95.000000" x2="249.000000" y2="96.000000"  transform="rotate(0.000000,249.000000,96.000000)" style="stroke: black; stroke-width:0.25;"/>
<line x1="246.000000" y1="97.000000" x2="249.000000" y2="96.000000"  transform="rotate(0.000000,249.000000,96.000000)" style="stroke: black; stroke-width:0.25;"/>
<line x1="246.000000" y1="103.000000" x2="249.000000" y2="104.000000"  transform="rotate(0.000000,249.000000,104.000000)" style="stroke: black; stroke-width:0.25;"/>
<line x1="246.000000" y1="105.000000" x2="249.000000" y2="104.000000"  transform="rotate(0.000000,249.000000,104.000000)" style="stroke: black; stroke-width:0.25;"/>
<a xlink:href="sawN-0x7fc02c2a5090.svg">
<rect x="77.250000" y="185.000000" width="64.500000" height="24.000000" rx="0" ry="0" style="stroke:none;fill:#cccccc;"/>
<rect x="76.250000" y="184.000000" width="64.500000" height="24.000000" rx="0" ry="0" style="stroke:none;fill:#003366;"/>
</a>
<a xlink:href="sawN-0x7fc02c2a5090.svg">
<text x="108.500000" y="198.000000" font-family="Arial" font-size="7" text-anchor="middle" fill="#FFFFFF">sawN(2)(660.0f)</text>
</a>
<circle cx="78.250000" cy="186.000000" r="1"/>
<a xlink:href="del-0x7fc02c119b80.svg">
<rect x="61.500000" y="217.000000" width="24.000000" height="24.000000" rx="0" ry="0" style="stroke:none;fill:#cccccc;"/>
<rect x="60.500000" y="216.000000" width="24.000000" height="24.000000" rx="0" ry="0" style="stroke:none;fill:#003366;"/>
</a>
<a xlink:href="del-0x7fc02c119b80.svg">
<text x="72.500000" y="230.000000" font-family="Arial" font-size="7" text-anchor="middle" fill="#FFFFFF">del</text>
</a>
<circle cx="62.500000" cy="218.000000" r="1"/>
<rect x="93.500000" y="217.000000" width="24.000000" height="24.000000" rx="0" ry="0" style="stroke:none;fill:#cccccc;"/>
<rect x="92.500000" y="216.000000" width="24.000000" height="24.000000" rx="0" ry="0" style="stroke:none;fill:#4B71A1;"/>
<text x="104.500000" y="230.000000" font-family="Arial" font-size="7" text-anchor="middle" fill="#FFFFFF">int</text>
<circle cx="94.500000" cy="218.000000" r="1"/>
<line x1="89.500000" y1="227.000000" x2="92.500000" y2="228.000000"  transform="rotate(0.000000,92.500000,228.000000)" style="stroke: black; stroke-width:0.25;"/>
<line x1="89.500000" y1="229.000000" x2="92.500000" y2="228.000000"  transform="rotate(0.000000,92.500000,228.000000)" style="stroke: black; stroke-width:0.25;"/>
<rect x="77.500000" y="249.000000" width="24.000000" height="24.000000" rx="0" ry="0" style="stroke:none;fill:#cccccc;"/>
<rect x="76.500000" y="248.000000" width="24.000000" height="24.000000" rx="0" ry="0" style="stroke:none;fill:#f44800;"/>
<text x="88.500000" y="262.000000" font-family="Arial" font-size="7" text-anchor="middle" fill="#FFFFFF">1</text>
<circle cx="78.500000" cy="250.000000" r="1"/>
<rect x="133.500000" y="233.000000" width="24.000000" height="24.000000" rx="0" ry="0" style="stroke:none;fill:#cccccc;"/>
<rect x="132.500000" y="232.000000" width="24.000000" height="24.000000" rx="0" ry="0" style="stroke:none;fill:#4B71A1;"/>
<text x="144.500000" y="246.000000" font-family="Arial" font-size="7" text-anchor="middle" fill="#FFFFFF">+</text>
<circle cx="134.500000" cy="234.000000" r="1"/>
<line x1="129.500000" y1="239.000000" x2="132.500000" y2="240.000000"  transform="rotate(0.000000,132.500000,240.000000)" style="stroke: black; stroke-width:0.25;"/>
<line x1="129.500000" y1="241.000000" x2="132.500000" y2="240.000000"  transform="rotate(0.000000,132.500000,240.000000)" style="stroke: black; stroke-width:0.25;"/>
<line x1="129.500000" y1="247.000000" x2="132.500000" y2="248.000000"  transform="rotate(0.000000,132.500000,248.000000)" style="stroke: black; stroke-width:0.25;"/>
<line x1="129.500000" y1="249.000000" x2="132.500000" y2="248.000000"  transform="rotate(0.000000,132.500000,248.000000)" style="stroke: black; stroke-width:0.25;"/>
<rect x="173.500000" y="217.000000" width="24.000000" height="24.000000" rx="0" ry="0" style="stroke:none;fill:#cccccc;"/>
<rect x="172.500000" y="216.000000" width="24.000000" height="24.000000" rx="0" ry="0" style="stroke:none;fill:#4B71A1;"/>
<text x="184.500000" y="230.000000" font-family="Arial" font-size="7" text-anchor="middle" fill="#FFFFFF">@</text>
<circle cx="174.500000" cy="218.000000" r="1"/>
<line x1="169.500000" y1="223.000000" x2="172.500000" y2="224.000000"  transform="rotate(0.000000,172.500000,224.000000)" style="stroke: black; stroke-width:0.25;"/>
<line x1="169.500000" y1="225.000000" x2="172.500000" y2="224.000000"  transform="rotate(0.000000,172.500000,224.000000)" style="stroke: black; stroke-width:0.25;"/>
<line x1="169.500000" y1="231.000000" x2="172.500000" y2="232.000000"  transform="rotate(0.000000,172.500000,232.000000)" style="stroke: black; stroke-width:0.25;"/>
<line x1="169.500000" y1="233.000000" x2="172.500000" y2="232.000000"  transform="rotate(0.000000,172.500000,232.000000)" style="stroke: black; stroke-width:0.25;"/>
<a xlink:href="decimal-0x7fc02c121030.svg">
<rect x="65.000000" y="281.000000" width="129.000000" height="24.000000" rx="0" ry="0" style="stroke:none;fill:#cccccc;"/>
<rect x="64.000000" y="280.000000" width="129.000000" height="24.000000" rx="0" ry="0" style="stroke:none;fill:#003366;"/>
</a>
<a xlink:href="decimal-0x7fc02c121030.svg">
<text x="128.500000" y="294.000000" font-family="Arial" font-size="7" text-anchor="middle" fill="#FFFFFF">decimal(0,(20...: min) : max)</text>
</a>
<circle cx="66.000000" cy="282.000000" r="1"/>
<rect x="213.500000" y="233.000000" width="24.000000" height="24.000000" rx="0" ry="0" style="stroke:none;fill:#cccccc;"/>
<rect x="212.500000" y="232.000000" width="24.000000" height="24.000000" rx="0" ry="0" style="stroke:none;fill:#4B71A1;"/>
<text x="224.500000" y="246.000000" font-family="Arial" font-size="7" text-anchor="middle" fill="#FFFFFF">*</text>
<circle cx="214.500000" cy="234.000000" r="1"/>
<line x1="209.500000" y1="239.000000" x2="212.500000" y2="240.000000"  transform="rotate(0.000000,212.500000,240.000000)" style="stroke: black; stroke-width:0.25;"/>
<line x1="209.500000" y1="241.000000" x2="212.500000" y2="240.000000"  transform="rotate(0.000000,212.500000,240.000000)" style="stroke: black; stroke-width:0.25;"/>
<line x1="209.500000" y1="247.000000" x2="212.500000" y2="248.000000"  transform="rotate(0.000000,212.500000,248.000000)" style="stroke: black; stroke-width:0.25;"/>
<line x1="209.500000" y1="249.000000" x2="212.500000" y2="248.000000"  transform="rotate(0.000000,212.500000,248.000000)" style="stroke: black; stroke-width:0.25;"/>
<rect x="290.000000" y="153.000000" width="24.000000" height="24.000000" rx="0" ry="0" style="stroke:none;fill:#cccccc;"/>
<rect x="289.000000" y="152.000000" width="24.000000" height="24.000000" rx="0" ry="0" style="stroke:none;fill:#4B71A1;"/>
<text x="301.000000" y="166.000000" font-family="Arial" font-size="7" text-anchor="middle" fill="#FFFFFF">-</text>
<circle cx="291.000000" cy="154.000000" r="1"/>
<line x1="286.000000" y1="159.000000" x2="289.000000" y2="160.000000"  transform="rotate(0.000000,289.000000,160.000000)" style="stroke: black; stroke-width:0.25;"/>
<line x1="286.000000" y1="161.000000" x2="289.000000" y2="160.000000"  transform="rotate(0.000000,289.000000,160.000000)" style="stroke: black; stroke-width:0.25;"/>
<line x1="286.000000" y1="167.000000" x2="289.000000" y2="168.000000"  transform="rotate(0.000000,289.000000,168.000000)" style="stroke: black; stroke-width:0.25;"/>
<line x1="286.000000" y1="169.000000" x2="289.000000" y2="168.000000"  transform="rotate(0.000000,289.000000,168.000000)" style="stroke: black; stroke-width:0.25;"/>
<line x1="15.000000" y1="15.000000" x2="15.000000" y2="313.000000"  style="stroke: black; stroke-linecap:round; stroke-width:0.25; stroke-dasharray:3,3;"/>
<line x1="15.000000" y1="313.000000" x2="330.000000" y2="313.000000"  style="stroke: black; stroke-linecap:round; stroke-width:0.25; stroke-dasharray:3,3;"/>
<line x1="330.000000" y1="313.000000" x2="330.000000" y2="15.000000"  style="stroke: black; stroke-linecap:round; stroke-width:0.25; stroke-dasharray:3,3;"/>
<line x1="15.000000" y1="15.000000" x2="20.000000" y2="15.000000"  style="stroke: black; stroke-linecap:round; stroke-width:0.25; stroke-dasharray:3,3;"/>
<line x1="74.825000" y1="15.000000" x2="330.000000" y2="15.000000"  style="stroke: black; stroke-linecap:round; stroke-width:0.25; stroke-dasharray:3,3;"/>
<text x="20.000000" y="17.000000" font-family="Arial" font-size="7">squareN(2)(660)</text>
<line x1="332.000000" y1="163.000000" x2="335.000000" y2="164.000000"  transform="rotate(0.000000,335.000000,164.000000)" style="stroke: black; stroke-width:0.25;"/>
<line x1="332.000000" y1="165.000000" x2="335.000000" y2="164.000000"  transform="rotate(0.000000,335.000000,164.000000)" style="stroke: black; stroke-width:0.25;"/>
<line x1="84.500000" y1="100.000000" x2="88.500000" y2="100.000000"  style="stroke:black; stroke-linecap:round; stroke-width:0.25;"/>
<line x1="84.500000" y1="228.000000" x2="88.500000" y2="228.000000"  style="stroke:black; stroke-linecap:round; stroke-width:0.25;"/>
<line x1="88.500000" y1="100.000000" x2="88.500000" y2="100.000000"  style="stroke:black; stroke-linecap:round; stroke-width:0.25;"/>
<line x1="88.500000" y1="100.000000" x2="92.500000" y2="100.000000"  style="stroke:black; stroke-linecap:round; stroke-width:0.25;"/>
<line x1="88.500000" y1="228.000000" x2="88.500000" y2="228.000000"  style="stroke:black; stroke-linecap:round; stroke-width:0.25;"/>
<line x1="88.500000" y1="228.000000" x2="92.500000" y2="228.000000"  style="stroke:black; stroke-linecap:round; stroke-width:0.25;"/>
<line x1="100.500000" y1="132.000000" x2="104.500000" y2="132.000000"  style="stroke:black; stroke-linecap:round; stroke-width:0.25;"/>
<line x1="100.500000" y1="260.000000" x2="104.500000" y2="260.000000"  style="stroke:black; stroke-linecap:round; stroke-width:0.25;"/>
<line x1="104.500000" y1="132.000000" x2="157.000000" y2="132.000000"  style="stroke:black; stroke-linecap:round; stroke-width:0.25;"/>
<line x1="104.500000" y1="260.000000" x2="120.500000" y2="260.000000"  style="stroke:black; stroke-linecap:round; stroke-width:0.25;"/>
<line x1="116.500000" y1="100.000000" x2="120.500000" y2="100.000000"  style="stroke:black; stroke-linecap:round; stroke-width:0.25;"/>
<line x1="116.500000" y1="228.000000" x2="120.500000" y2="228.000000"  style="stroke:black; stroke-linecap:round; stroke-width:0.25;"/>
<line x1="120.500000" y1="100.000000" x2="124.750000" y2="100.000000"  style="stroke:black; stroke-linecap:round; stroke-width:0.25;"/>
<line x1="120.500000" y1="228.000000" x2="128.500000" y2="228.000000"  style="stroke:black; stroke-linecap:round; stroke-width:0.25;"/>
<line x1="120.500000" y1="248.000000" x2="128.500000" y2="248.000000"  style="stroke:black; stroke-linecap:round; stroke-width:0.25;"/>
<line x1="120.500000" y1="260.000000" x2="120.500000" y2="248.000000"  style="stroke:black; stroke-linecap:round; stroke-width:0.25;"/>
<line x1="120.500000" y1="260.000000" x2="120.500000" y2="260.000000"  style="stroke:black; stroke-linecap:round; stroke-width:0.25;"/>
<line x1="120.750000" y1="68.000000" x2="124.750000" y2="68.000000"  style="stroke:black; stroke-linecap:round; stroke-width:0.25;"/>
<line x1="124.750000" y1="68.000000" x2="132.750000" y2="68.000000"  style="stroke:black; stroke-linecap:round; stroke-width:0.25;"/>
<line x1="124.750000" y1="88.000000" x2="132.750000" y2="88.000000"  style="stroke:black; stroke-linecap:round; stroke-width:0.25;"/>
<line x1="124.750000" y1="100.000000" x2="124.750000" y2="88.000000"  style="stroke:black; stroke-linecap:round; stroke-width:0.25;"/>
<line x1="124.750000" y1="100.000000" x2="124.750000" y2="100.000000"  style="stroke:black; stroke-linecap:round; stroke-width:0.25;"/>
<line x1="128.500000" y1="228.000000" x2="128.500000" y2="240.000000"  style="stroke:black; stroke-linecap:round; stroke-width:0.25;"/>
<line x1="128.500000" y1="240.000000" x2="128.500000" y2="240.000000"  style="stroke:black; stroke-linecap:round; stroke-width:0.25;"/>
<line x1="128.500000" y1="240.000000" x2="132.500000" y2="240.000000"  style="stroke:black; stroke-linecap:round; stroke-width:0.25;"/>
<line x1="128.500000" y1="248.000000" x2="132.500000" y2="248.000000"  style="stroke:black; stroke-linecap:round; stroke-width:0.25;"/>
<line x1="132.750000" y1="68.000000" x2="132.750000" y2="80.000000"  style="stroke:black; stroke-linecap:round; stroke-width:0.25;"/>
<line x1="132.750000" y1="80.000000" x2="132.750000" y2="80.000000"  style="stroke:black; stroke-linecap:round; stroke-width:0.25;"/>
<line x1="132.750000" y1="80.000000" x2="136.750000" y2="80.000000"  style="stroke:black; stroke-linecap:round; stroke-width:0.25;"/>
<line x1="132.750000" y1="88.000000" x2="136.750000" y2="88.000000"  style="stroke:black; stroke-linecap:round; stroke-width:0.25;"/>
<line x1="140.750000" y1="196.000000" x2="144.750000" y2="196.000000"  style="stroke:black; stroke-linecap:round; stroke-width:0.25;"/>
<line x1="144.750000" y1="196.000000" x2="160.500000" y2="196.000000"  style="stroke:black; stroke-linecap:round; stroke-width:0.25;"/>
<line x1="153.000000" y1="164.000000" x2="157.000000" y2="164.000000"  style="stroke:black; stroke-linecap:round; stroke-width:0.25;"/>
<line x1="156.500000" y1="244.000000" x2="160.500000" y2="244.000000"  style="stroke:black; stroke-linecap:round; stroke-width:0.25;"/>
<line x1="157.000000" y1="132.000000" x2="165.000000" y2="132.000000"  style="stroke:black; stroke-linecap:round; stroke-width:0.25;"/>
<line x1="157.000000" y1="152.000000" x2="165.000000" y2="152.000000"  style="stroke:black; stroke-linecap:round; stroke-width:0.25;"/>
<line x1="157.000000" y1="164.000000" x2="157.000000" y2="152.000000"  style="stroke:black; stroke-linecap:round; stroke-width:0.25;"/>
<line x1="157.000000" y1="164.000000" x2="157.000000" y2="164.000000"  style="stroke:black; stroke-linecap:round; stroke-width:0.25;"/>
<line x1="160.500000" y1="196.000000" x2="168.500000" y2="196.000000"  style="stroke:black; stroke-linecap:round; stroke-width:0.25;"/>
<line x1="160.500000" y1="232.000000" x2="168.500000" y2="232.000000"  style="stroke:black; stroke-linecap:round; stroke-width:0.25;"/>
<line x1="160.500000" y1="244.000000" x2="160.500000" y2="232.000000"  style="stroke:black; stroke-linecap:round; stroke-width:0.25;"/>
<line x1="160.500000" y1="244.000000" x2="160.500000" y2="244.000000"  style="stroke:black; stroke-linecap:round; stroke-width:0.25;"/>
<line x1="160.750000" y1="36.000000" x2="164.750000" y2="36.000000"  style="stroke:black; stroke-linecap:round; stroke-width:0.25;"/>
<line x1="160.750000" y1="84.000000" x2="164.750000" y2="84.000000"  style="stroke:black; stroke-linecap:round; stroke-width:0.25;"/>
<line x1="164.750000" y1="36.000000" x2="237.000000" y2="36.000000"  style="stroke:black; stroke-linecap:round; stroke-width:0.25;"/>
<line x1="164.750000" y1="84.000000" x2="197.000000" y2="84.000000"  style="stroke:black; stroke-linecap:round; stroke-width:0.25;"/>
<line x1="165.000000" y1="132.000000" x2="165.000000" y2="144.000000"  style="stroke:black; stroke-linecap:round; stroke-width:0.25;"/>
<line x1="165.000000" y1="144.000000" x2="165.000000" y2="144.000000"  style="stroke:black; stroke-linecap:round; stroke-width:0.25;"/>
<line x1="165.000000" y1="144.000000" x2="169.000000" y2="144.000000"  style="stroke:black; stroke-linecap:round; stroke-width:0.25;"/>
<line x1="165.000000" y1="152.000000" x2="169.000000" y2="152.000000"  style="stroke:black; stroke-linecap:round; stroke-width:0.25;"/>
<line x1="168.500000" y1="196.000000" x2="168.500000" y2="224.000000"  style="stroke:black; stroke-linecap:round; stroke-width:0.25;"/>
<line x1="168.500000" y1="224.000000" x2="168.500000" y2="224.000000"  style="stroke:black; stroke-linecap:round; stroke-width:0.25;"/>
<line x1="168.500000" y1="224.000000" x2="172.500000" y2="224.000000"  style="stroke:black; stroke-linecap:round; stroke-width:0.25;"/>
<line x1="168.500000" y1="232.000000" x2="172.500000" y2="232.000000"  style="stroke:black; stroke-linecap:round; stroke-width:0.25;"/>
<line x1="193.000000" y1="148.000000" x2="197.000000" y2="148.000000"  style="stroke:black; stroke-linecap:round; stroke-width:0.25;"/>
<line x1="193.000000" y1="292.000000" x2="197.000000" y2="292.000000"  style="stroke:black; stroke-linecap:round; stroke-width:0.25;"/>
<line x1="196.500000" y1="228.000000" x2="200.500000" y2="228.000000"  style="stroke:black; stroke-linecap:round; stroke-width:0.25;"/>
<line x1="197.000000" y1="84.000000" x2="205.000000" y2="84.000000"  style="stroke:black; stroke-linecap:round; stroke-width:0.25;"/>
<line x1="197.000000" y1="120.000000" x2="205.000000" y2="120.000000"  style="stroke:black; stroke-linecap:round; stroke-width:0.25;"/>
<line x1="197.000000" y1="148.000000" x2="197.000000" y2="120.000000"  style="stroke:black; stroke-linecap:round; stroke-width:0.25;"/>
<line x1="197.000000" y1="148.000000" x2="197.000000" y2="148.000000"  style="stroke:black; stroke-linecap:round; stroke-width:0.25;"/>
<line x1="197.000000" y1="292.000000" x2="200.500000" y2="292.000000"  style="stroke:black; stroke-linecap:round; stroke-width:0.25;"/>
<line x1="200.500000" y1="228.000000" x2="208.500000" y2="228.000000"  style="stroke:black; stroke-linecap:round; stroke-width:0.25;"/>
<line x1="200.500000" y1="248.000000" x2="208.500000" y2="248.000000"  style="stroke:black; stroke-linecap:round; stroke-width:0.25;"/>
<line x1="200.500000" y1="292.000000" x2="200.500000" y2="248.000000"  style="stroke:black; stroke-linecap:round; stroke-width:0.25;"/>
<line x1="200.500000" y1="292.000000" x2="200.500000" y2="292.000000"  style="stroke:black; stroke-linecap:round; stroke-width:0.25;"/>
<line x1="205.000000" y1="84.000000" x2="205.000000" y2="112.000000"  style="stroke:black; stroke-linecap:round; stroke-width:0.25;"/>
<line x1="205.000000" y1="112.000000" x2="205.000000" y2="112.000000"  style="stroke:black; stroke-linecap:round; stroke-width:0.25;"/>
<line x1="205.000000" y1="112.000000" x2="209.000000" y2="112.000000"  style="stroke:black; stroke-linecap:round; stroke-width:0.25;"/>
<line x1="205.000000" y1="120.000000" x2="209.000000" y2="120.000000"  style="stroke:black; stroke-linecap:round; stroke-width:0.25;"/>
<line x1="208.500000" y1="228.000000" x2="208.500000" y2="240.000000"  style="stroke:black; stroke-linecap:round; stroke-width:0.25;"/>
<line x1="208.500000" y1="240.000000" x2="208.500000" y2="240.000000"  style="stroke:black; stroke-linecap:round; stroke-width:0.25;"/>
<line x1="208.500000" y1="240.000000" x2="212.500000" y2="240.000000"  style="stroke:black; stroke-linecap:round; stroke-width:0.25;"/>
<line x1="208.500000" y1="248.000000" x2="212.500000" y2="248.000000"  style="stroke:black; stroke-linecap:round; stroke-width:0.25;"/>
<line x1="233.000000" y1="116.000000" x2="237.000000" y2="116.000000"  style="stroke:black; stroke-linecap:round; stroke-width:0.25;"/>
<line x1="236.500000" y1="244.000000" x2="240.500000" y2="244.000000"  style="stroke:black; stroke-linecap:round; stroke-width:0.25;"/>
<line x1="237.000000" y1="36.000000" x2="245.000000" y2="36.000000"  style="stroke:black; stroke-linecap:round; stroke-width:0.25;"/>
<line x1="237.000000" y1="104.000000" x2="245.000000" y2="104.000000"  style="stroke:black; stroke-linecap:round; stroke-width:0.25;"/>
<line x1="237.000000" y1="116.000000" x2="237.000000" y2="104.000000"  style="stroke:black; stroke-linecap:round; stroke-width:0.25;"/>
<line x1="237.000000" y1="116.000000" x2="237.000000" y2="116.000000"  style="stroke:black; stroke-linecap:round; stroke-width:0.25;"/>
<line x1="240.500000" y1="244.000000" x2="277.000000" y2="244.000000"  style="stroke:black; stroke-linecap:round; stroke-width:0.25;"/>
<line x1="245.000000" y1="36.000000" x2="245.000000" y2="96.000000"  style="stroke:black; stroke-linecap:round; stroke-width:0.25;"/>
<line x1="245.000000" y1="96.000000" x2="245.000000" y2="96.000000"  style="stroke:black; stroke-linecap:round; stroke-width:0.25;"/>
<line x1="245.000000" y1="96.000000" x2="249.000000" y2="96.000000"  style="stroke:black; stroke-linecap:round; stroke-width:0.25;"/>
<line x1="245.000000" y1="104.000000" x2="249.000000" y2="104.000000"  style="stroke:black; stroke-linecap:round; stroke-width:0.25;"/>
<line x1="273.000000" y1="100.000000" x2="277.000000" y2="100.000000"  style="stroke:black; stroke-linecap:round; stroke-width:0.25;"/>
<line x1="277.000000" y1="100.000000" x2="285.000000" y2="100.000000"  style="stroke:black; stroke-linecap:round; stroke-width:0.25;"/>
<line x1="277.000000" y1="168.000000" x2="285.000000" y2="168.000000"  style="stroke:black; stroke-linecap:round; stroke-width:0.25;"/>
<line x1="277.000000" y1="244.000000" x2="277.000000" y2="168.000000"  style="stroke:black; stroke-linecap:round; stroke-width:0.25;"/>
<line x1="277.000000" y1="244.000000" x2="277.000000" y2="244.000000"  style="stroke:black; stroke-linecap:round; stroke-width:0.25;"/>
<line x1="285.000000" y1="100.000000" x2="285.000000" y2="160.000000"  style="stroke:black; stroke-linecap:round; stroke-width:0.25;"/>
<line x1="285.000000" y1="160.000000" x2="285.000000" y2="160.000000"  style="stroke:black; stroke-linecap:round; stroke-width:0.25;"/>
<line x1="285.000000" y1="160.000000" x2="289.000000" y2="160.000000"  style="stroke:black; stroke-linecap:round; stroke-width:0.25;"/>
<line x1="285.000000" y1="168.000000" x2="289.000000" y2="168.000000"  style="stroke:black; stroke-linecap:round; stroke-width:0.25;"/>
<line x1="313.000000" y1="164.000000" x2="317.000000" y2="164.000000"  style="stroke:black; stroke-linecap:round; stroke-width:0.25;"/>
<line x1="317.000000" y1="164.000000" x2="317.000000" y2="164.000000"  style="stroke:black; stroke-linecap:round; stroke-width:0.25;"/>
<line x1="317.000000" y1="164.000000" x2="321.000000" y2="164.000000"  style="stroke:black; stroke-linecap:round; stroke-width:0.25;"/>
<line x1="321.000000" y1="164.000000" x2="325.000000" y2="164.000000"  style="stroke:black; stroke-linecap:round; stroke-width:0.25;"/>
<line x1="325.000000" y1="164.000000" x2="335.000000" y2="164.000000"  style="stroke:black; stroke-linecap:round; stroke-width:0.25;"/>
</svg>
