<?xml version="1.0"?>
<svg xmlns="http://www.w3.org/2000/svg" xmlns:xlink="http://www.w3.org/1999/xlink" viewBox="0 0 261.900000 80.000000" width="130.950000mm" height="40.000000mm" version="1.1">
<a xlink:href="process.svg">
<rect x="1.000000" y="1.000000" width="260.900000" height="79.000000" rx="0" ry="0" style="stroke:none;fill:#cccccc;"/>
<rect x="0.000000" y="0.000000" width="260.900000" height="79.000000" rx="0" ry="0" style="stroke:none;fill:#ffffff;"/>
</a>
<text x="10.000000" y="7.000000" font-family="Arial" font-size="7"></text>
<a xlink:href="squareN-0x7fc02c2a5fd0.svg">
<rect x="25.000000" y="29.000000" width="64.500000" height="24.000000" rx="0" ry="0" style="stroke:none;fill:#cccccc;"/>
<rect x="24.000000" y="28.000000" width="64.500000" height="24.000000" rx="0" ry="0" style="stroke:none;fill:#003366;"/>
</a>
<a xlink:href="squareN-0x7fc02c2a5fd0.svg">
<text x="56.250000" y="42.000000" font-family="Arial" font-size="7" text-anchor="middle" fill="#FFFFFF">squareN(2)(660)</text>
</a>
<circle cx="26.000000" cy="30.000000" r="1"/>
<a xlink:href="pole-0x7fc02c2801a0.svg">
<rect x="97.500000" y="29.000000" width="51.600000" height="24.000000" rx="0" ry="0" style="stroke:none;fill:#cccccc;"/>
<rect x="96.500000" y="28.000000" width="51.600000" height="24.000000" rx="0" ry="0" style="stroke:none;fill:#003366;"/>
</a>
<a xlink:href="pole-0x7fc02c2801a0.svg">
<text x="122.300000" y="42.000000" font-family="Arial" font-size="7" text-anchor="middle" fill="#FFFFFF">pole(0.999f)</text>
</a>
<circle cx="98.500000" cy="30.000000" r="1"/>
<line x1="93.500000" y1="39.000000" x2="96.500000" y2="40.000000"  transform="rotate(0.000000,96.500000,40.000000)" style="stroke: black; stroke-width:0.25;"/>
<line x1="93.500000" y1="41.000000" x2="96.500000" y2="40.000000"  transform="rotate(0.000000,96.500000,40.000000)" style="stroke: black; stroke-width:0.25;"/>
<a xlink:href="gain-0x7fc02c282210.svg">
<rect x="165.100000" y="33.000000" width="25.800000" height="24.000000" rx="0" ry="0" style="stroke:none;fill:#cccccc;"/>
<rect x="164.100000" y="32.000000" width="25.800000" height="24.000000" rx="0" ry="0" style="stroke:none;fill:#003366;"/>
</a>
<a xlink:href="gain-0x7fc02c282210.svg">
<text x="177.000000" y="46.000000" font-family="Arial" font-size="7" text-anchor="middle" fill="#FFFFFF">gain</text>
</a>
<circle cx="166.100000" cy="34.000000" r="1"/>
<rect x="206.900000" y="29.000000" width="24.000000" height="24.000000" rx="0" ry="0" style="stroke:none;fill:#cccccc;"/>
<rect x="205.900000" y="28.000000" width="24.000000" height="24.000000" rx="0" ry="0" style="stroke:none;fill:#4B71A1;"/>
<text x="217.900000" y="42.000000" font-family="Arial" font-size="7" text-anchor="middle" fill="#FFFFFF">*</text>
<circle cx="207.900000" cy="30.000000" r="1"/>
<line x1="202.900000" y1="35.000000" x2="205.900000" y2="36.000000"  transform="rotate(0.000000,205.900000,36.000000)" style="stroke: black; stroke-width:0.25;"/>
<line x1="202.900000" y1="37.000000" x2="205.900000" y2="36.000000"  transform="rotate(0.000000,205.900000,36.000000)" style="stroke: black; stroke-width:0.25;"/>
<line x1="202.900000" y1="43.000000" x2="205.900000" y2="44.000000"  transform="rotate(0.000000,205.900000,44.000000)" style="stroke: black; stroke-width:0.25;"/>
<line x1="202.900000" y1="45.000000" x2="205.900000" y2="44.000000"  transform="rotate(0.000000,205.900000,44.000000)" style="stroke: black; stroke-width:0.25;"/>
<line x1="15.000000" y1="15.000000" x2="15.000000" y2="65.000000"  style="stroke: black; stroke-linecap:round; stroke-width:0.25; stroke-dasharray:3,3;"/>
<line x1="15.000000" y1="65.000000" x2="246.900000" y2="65.000000"  style="stroke: black; stroke-linecap:round; stroke-width:0.25; stroke-dasharray:3,3;"/>
<line x1="246.900000" y1="65.000000" x2="246.900000" y2="15.000000"  style="stroke: black; stroke-linecap:round; stroke-width:0.25; stroke-dasharray:3,3;"/>
<line x1="15.000000" y1="15.000000" x2="20.000000" y2="15.000000"  style="stroke: black; stroke-linecap:round; stroke-width:0.25; stroke-dasharray:3,3;"/>
<line x1="68.375000" y1="15.000000" x2="246.900000" y2="15.000000"  style="stroke: black; stroke-linecap:round; stroke-width:0.25; stroke-dasharray:3,3;"/>
<text x="20.000000" y="17.000000" font-family="Arial" font-size="7">triangle(660)</text>
<line x1="248.900000" y1="39.000000" x2="251.900000" y2="40.000000"  transform="rotate(0.000000,251.900000,40.000000)" style="stroke: black; stroke-width:0.25;"/>
<line x1="248.900000" y1="41.000000" x2="251.900000" y2="40.000000"  transform="rotate(0.000000,251.900000,40.000000)" style="stroke: black; stroke-width:0.25;"/>
<line x1="88.500000" y1="40.000000" x2="92.500000" y2="40.000000"  style="stroke:black; stroke-linecap:round; stroke-width:0.25;"/>
<line x1="92.500000" y1="40.000000" x2="92.500000" y2="40.000000"  style="stroke:black; stroke-linecap:round; stroke-width:0.25;"/>
<line x1="92.500000" y1="40.000000" x2="96.500000" y2="40.000000"  style="stroke:black; stroke-linecap:round; stroke-width:0.25;"/>
<line x1="148.100000" y1="40.000000" x2="152.100000" y2="40.000000"  style="stroke:black; stroke-linecap:round; stroke-width:0.25;"/>
<line x1="152.100000" y1="24.000000" x2="160.100000" y2="24.000000"  style="stroke:black; stroke-linecap:round; stroke-width:0.25;"/>
<line x1="152.100000" y1="40.000000" x2="152.100000" y2="24.000000"  style="stroke:black; stroke-linecap:round; stroke-width:0.25;"/>
<line x1="152.100000" y1="40.000000" x2="152.100000" y2="40.000000"  style="stroke:black; stroke-linecap:round; stroke-width:0.25;"/>
<line x1="160.100000" y1="24.000000" x2="177.000000" y2="24.000000"  style="stroke:black; stroke-linecap:round; stroke-width:0.25;"/>
<line x1="177.000000" y1="24.000000" x2="193.900000" y2="24.000000"  style="stroke:black; stroke-linecap:round; stroke-width:0.25;"/>
<line x1="189.900000" y1="44.000000" x2="193.900000" y2="44.000000"  style="stroke:black; stroke-linecap:round; stroke-width:0.25;"/>
<line x1="193.900000" y1="44.000000" x2="201.900000" y2="44.000000"  style="stroke:black; stroke-linecap:round; stroke-width:0.25;"/>
<line x1="193.900000" y1="24.000000" x2="201.900000" y2="24.000000"  style="stroke:black; stroke-linecap:round; stroke-width:0.25;"/>
<line x1="201.900000" y1="36.000000" x2="205.900000" y2="36.000000"  style="stroke:black; stroke-linecap:round; stroke-width:0.25;"/>
<line x1="201.900000" y1="44.000000" x2="205.900000" y2="44.000000"  style="stroke:black; stroke-linecap:round; stroke-width:0.25;"/>
<line x1="201.900000" y1="24.000000" x2="201.900000" y2="36.000000"  style="stroke:black; stroke-linecap:round; stroke-width:0.25;"/>
<line x1="201.900000" y1="36.000000" x2="201.900000" y2="36.000000"  style="stroke:black; stroke-linecap:round; stroke-width:0.25;"/>
<line x1="229.900000" y1="40.000000" x2="233.900000" y2="40.000000"  style="stroke:black; stroke-linecap:round; stroke-width:0.25;"/>
<line x1="233.900000" y1="40.000000" x2="233.900000" y2="40.000000"  style="stroke:black; stroke-linecap:round; stroke-width:0.25;"/>
<line x1="233.900000" y1="40.000000" x2="237.900000" y2="40.000000"  style="stroke:black; stroke-linecap:round; stroke-width:0.25;"/>
<line x1="237.900000" y1="40.000000" x2="241.900000" y2="40.000000"  style="stroke:black; stroke-linecap:round; stroke-width:0.25;"/>
<line x1="241.900000" y1="40.000000" x2="251.900000" y2="40.000000"  style="stroke:black; stroke-linecap:round; stroke-width:0.25;"/>
</svg>
