<?xml version="1.0" encoding="UTF-8" standalone="no"?>
<svg
   xmlns:dc="http://purl.org/dc/elements/1.1/"
   xmlns:cc="http://creativecommons.org/ns#"
   xmlns:rdf="http://www.w3.org/1999/02/22-rdf-syntax-ns#"
   xmlns:svg="http://www.w3.org/2000/svg"
   xmlns="http://www.w3.org/2000/svg"
   viewBox="0 0 212.53333 268.66666"
   height="268.66666"
   width="212.53333"
   xml:space="preserve"
   id="svg2"
   version="1.1"><metadata
     id="metadata8"><rdf:RDF><cc:Work
         rdf:about=""><dc:format>image/svg+xml</dc:format><dc:type
           rdf:resource="http://purl.org/dc/dcmitype/StillImage" /><dc:title></dc:title></cc:Work></rdf:RDF></metadata><defs
     id="defs6"><clipPath
       id="clipPath18"
       clipPathUnits="userSpaceOnUse"><path
         style="clip-rule:evenodd"
         id="path16"
         d="M 0,-0.1 H 216.1 V 288 H 0 Z" /></clipPath></defs><g
     transform="matrix(1.3333333,0,0,-1.3333333,-37.733332,329.33333)"
     id="g10"><g
       id="g12"><g
         clip-path="url(#clipPath18)"
         id="g14"><path
           id="path20"
           style="fill:#ff9966;fill-opacity:1;fill-rule:evenodd;stroke:none"
           d="M 108,45.5 H 28.3 v 54 h 159.4 v -54 z" /><g
           id="g22"><text
             id="text26"
             style="font-style:italic;font-variant:normal;font-weight:bold;font-size:12px;font-family:Arial;-inkscape-font-specification:Arial-BoldItalicMT;writing-mode:lr-tb;fill:#000000;fill-opacity:1;fill-rule:nonzero;stroke:none"
             transform="matrix(1,0,0,-1,48.3,68.3)"><tspan
               id="tspan24"
               y="0"
               x="0 6.6960001 13.392 20.087999 23.483999 30.18">scalar</tspan></text>
</g><g
           id="g28"><text
             id="text32"
             style="font-style:italic;font-variant:normal;font-size:12px;font-family:Arial;-inkscape-font-specification:Arial-ItalicMT;writing-mode:lr-tb;fill:#000000;fill-opacity:1;fill-rule:nonzero;stroke:none"
             transform="matrix(1,0,0,-1,86.596,68.3)"><tspan
               id="tspan30"
               y="0"
               x="0 6 12.696 19.392 26.087999 29.483999 36.18 42.875999 49.571999 56.375999 60.276001 66.972 70.367996 77.064003">code generator</tspan></text>
</g><path
           id="path34"
           style="fill:#ffff00;fill-opacity:1;fill-rule:evenodd;stroke:none"
           d="m 29.5,119.3 v 13.6 c -0.8,1.4 -1.2,2.7 -1.2,4.1 0,1 0.2,1.8 0.5,2.7 0.2,0.4 0.4,0.8 0.7,1.2 v 32.4 h 157.3 v -29.6 c 0.6,-1.2 0.9,-2.4 0.9,-3.7 0,-1 -0.2,-1.8 -0.5,-2.6 -0.1,-0.3 -0.3,-0.6 -0.4,-0.9 v -17.2 h -73.1 -11.2 z m 73,0 h 11.2 v -13.5 h 5.6 l -11.2,-4.5 -11.2,4.5 h 5.6 z" /><g
           id="g36"><text
             id="text40"
             style="font-style:italic;font-variant:normal;font-weight:bold;font-size:12px;font-family:Arial;-inkscape-font-specification:Arial-BoldItalicMT;writing-mode:lr-tb;fill:#000000;fill-opacity:1;fill-rule:nonzero;stroke:none"
             transform="matrix(1,0,0,-1,47.7,150)"><tspan
               id="tspan38"
               y="0"
               x="0 6.6960001 13.392 20.087999 24.084 31.379999">vector</tspan></text>
</g><g
           id="g42"><text
             id="text46"
             style="font-style:italic;font-variant:normal;font-size:12px;font-family:Arial;-inkscape-font-specification:Arial-ItalicMT;writing-mode:lr-tb;fill:#000000;fill-opacity:1;fill-rule:nonzero;stroke:none"
             transform="matrix(1,0,0,-1,87.196,150)"><tspan
               id="tspan44"
               y="0"
               x="0 5.9039998 12.708 19.403999 26.1 29.496 36.192001 42.888 49.584 56.279999 60.276001 66.972 70.367996 77.064003">code generator</tspan></text>
</g><g
           id="g48"><text
             id="text52"
             style="font-style:italic;font-variant:normal;font-size:12px;font-family:Arial;-inkscape-font-specification:Arial-ItalicMT;writing-mode:lr-tb;fill:#000000;fill-opacity:1;fill-rule:nonzero;stroke:none"
             transform="matrix(1,0,0,-1,62.8,136.5)"><tspan
               id="tspan50"
               y="0"
               x="0 3.9960001 6.5999999 13.296 19.992001 26.688 30.084 36.084 42.779999 49.476002 56.279999 60.18 66.875999 70.272003 72.972 79.667999 86.363998">(loop separation)</tspan></text>
</g><path
           id="path54"
           style="fill:#00dcff;fill-opacity:1;fill-rule:evenodd;stroke:none"
           d="m 29.5,193 v 13.6 c -0.8,1.4 -1.2,2.7 -1.2,4.1 0,1 0.2,1.8 0.5,2.7 0.2,0.4 0.4,0.8 0.7,1.2 V 247 h 157.3 v -29.6 c 0.6,-1.2 0.9,-2.4 0.9,-3.7 0,-1 -0.2,-1.8 -0.5,-2.6 -0.1,-0.3 -0.3,-0.6 -0.4,-0.9 V 193 h -73.1 -11.2 z m 73,0 h 11.2 v -13.5 h 5.6 l -11.2,-4.5 -11.2,4.5 h 5.6 z" /><g
           id="g56"><text
             id="text60"
             style="font-style:italic;font-variant:normal;font-weight:bold;font-size:12px;font-family:Arial;-inkscape-font-specification:Arial-BoldItalicMT;writing-mode:lr-tb;fill:#000000;fill-opacity:1;fill-rule:nonzero;stroke:none"
             transform="matrix(1,0,0,-1,44.1,223.7)"><tspan
               id="tspan58"
               y="0"
               x="0 7.296 13.992 18.695999 25.392 28.788 32.088001 38.784">parallel</tspan></text>
</g><g
           id="g62"><text
             id="text66"
             style="font-style:italic;font-variant:normal;font-size:12px;font-family:Arial;-inkscape-font-specification:Arial-ItalicMT;writing-mode:lr-tb;fill:#000000;fill-opacity:1;fill-rule:nonzero;stroke:none"
             transform="matrix(1,0,0,-1,89.696,223.7)"><tspan
               id="tspan64"
               y="0"
               x="0 5.9039998 12.708 19.403999 26.1 29.496 36.192001 42.888 49.584 56.279999 60.276001 66.972 70.367996 77.064003">code generator</tspan></text>
</g><g
           id="g68"><text
             id="text72"
             style="font-style:italic;font-variant:normal;font-size:12px;font-family:Arial;-inkscape-font-specification:Arial-ItalicMT;writing-mode:lr-tb;fill:#000000;fill-opacity:1;fill-rule:nonzero;stroke:none"
             transform="matrix(1,0,0,-1,52.9,210.2)"><tspan
               id="tspan70"
               y="0"
               x="0 3.9000001 13.296 19.992001 26.688 33.383999 43.380001 50.976002 54.276001 61.080002 63.683998 67.68 74.375999 80.375999 83.676003 86.375999 92.375999 99.071999 105.072">(OpenMP directives)</tspan></text>
</g></g></g></g></svg>