<?xml version="1.0" encoding="UTF-8" standalone="no"?>
<svg
   xmlns:dc="http://purl.org/dc/elements/1.1/"
   xmlns:cc="http://creativecommons.org/ns#"
   xmlns:rdf="http://www.w3.org/1999/02/22-rdf-syntax-ns#"
   xmlns:svg="http://www.w3.org/2000/svg"
   xmlns="http://www.w3.org/2000/svg"
   viewBox="0 0 768 288"
   height="288"
   width="768"
   xml:space="preserve"
   id="svg2"
   version="1.1"><metadata
     id="metadata8"><rdf:RDF><cc:Work
         rdf:about=""><dc:format>image/svg+xml</dc:format><dc:type
           rdf:resource="http://purl.org/dc/dcmitype/StillImage" /><dc:title></dc:title></cc:Work></rdf:RDF></metadata><defs
     id="defs6"><clipPath
       id="clipPath18"
       clipPathUnits="userSpaceOnUse"><path
         style="clip-rule:evenodd"
         id="path16"
         d="M 0,-0.1 H 576.1 V 216 H 0 Z" /></clipPath></defs><g
     transform="matrix(1.3333333,0,0,-1.3333333,0,288)"
     id="g10"><g
       id="g12"><g
         clip-path="url(#clipPath18)"
         id="g14"><path
           id="path20"
           style="fill:#ffcc99;fill-opacity:1;fill-rule:evenodd;stroke:none"
           d="m 127.7,160.2 h 67.5 v 4.5 l 22.5,-9 -22.5,-9 v 4.5 h -67.5 z" /><path
           id="path22"
           style="fill:#ffcc99;fill-opacity:1;fill-rule:evenodd;stroke:none"
           d="m 127.7,137.5 h 67.6 v 4.5 l 22.5,-9 -22.5,-9 v 4.5 h -67.6 z" /><path
           id="path24"
           style="fill:#dc2300;fill-opacity:1;fill-rule:evenodd;stroke:none"
           d="m 127.7,117.7 h 67.6 v 4.4 l 22.5,-8.9 -22.5,-9.1 v 4.6 h -67.6 z" /><path
           id="path26"
           style="fill:#ffcc99;fill-opacity:1;fill-rule:evenodd;stroke:none"
           d="m 127.7,95 h 67.6 v 4.5 l 22.5,-9 -22.5,-9 V 86 h -67.6 z" /><path
           id="path28"
           style="fill:#ffcc99;fill-opacity:1;fill-rule:evenodd;stroke:none"
           d="m 127.7,72.3 h 67.6 v 4.5 l 22.5,-9 -22.5,-9 v 4.5 h -67.6 z" /><path
           id="path30"
           style="fill:#ffd320;fill-opacity:1;fill-rule:evenodd;stroke:none"
           d="m 220.5,58.7 v 108 l 20.2,-54 v 0 z" /><path
           id="path32"
           style="fill:#dc2300;fill-opacity:1;fill-rule:evenodd;stroke:none"
           d="m 14.4,117.6 h 67.5 v 4.5 l 22.5,-9 -22.5,-9 v 4.5 H 14.4 Z" /><path
           id="path34"
           style="fill:#dc2300;fill-opacity:1;fill-rule:evenodd;stroke:none"
           d="m 244,117.6 h 67.5 v 4.5 l 22.5,-9 -22.5,-9 v 4.5 H 244 Z" /><g
           id="g36"><text
             id="text40"
             style="font-style:italic;font-variant:normal;font-weight:bold;font-size:12px;font-family:Arial;-inkscape-font-specification:Arial-BoldItalicMT;writing-mode:lr-tb;fill:#000000;fill-opacity:1;fill-rule:nonzero;stroke:none"
             transform="matrix(1,0,0,-1,112.5,35.6)"><tspan
               id="tspan38"
               y="0"
               x="0 6.6960001 13.992 18.695999 25.392 32.796001 43.391998">#pragma</tspan></text>
</g><g
           id="g42"><text
             id="text46"
             style="font-style:italic;font-variant:normal;font-size:12px;font-family:Arial;-inkscape-font-specification:Arial-ItalicMT;writing-mode:lr-tb;fill:#000000;fill-opacity:1;fill-rule:nonzero;stroke:none"
             transform="matrix(1,0,0,-1,166.096,35.6)"><tspan
               id="tspan44"
               y="0"
               x="0 6.6960001 16.5 23.195999 26.591999 33.287998 39.984001 43.98 50.675999 53.279999 55.98 62.675999">omp parallel</tspan></text>
</g><path
           id="path48"
           style="fill:#ffcc99;fill-opacity:1;fill-rule:evenodd;stroke:none"
           d="m 357.3,160.2 h 67.5 v 4.5 l 22.5,-9 -22.5,-9 v 4.5 h -67.5 z" /><path
           id="path50"
           style="fill:#ffcc99;fill-opacity:1;fill-rule:evenodd;stroke:none"
           d="m 357.3,137.5 h 67.6 v 4.5 l 22.5,-9 -22.5,-9 v 4.5 h -67.6 z" /><path
           id="path52"
           style="fill:#dc2300;fill-opacity:1;fill-rule:evenodd;stroke:none"
           d="m 357.3,117.7 h 67.6 v 4.4 l 22.5,-8.9 -22.5,-9.1 v 4.6 h -67.6 z" /><path
           id="path54"
           style="fill:#ffcc99;fill-opacity:1;fill-rule:evenodd;stroke:none"
           d="m 357.3,95 h 67.6 v 4.5 l 22.5,-9 -22.5,-9 V 86 h -67.6 z" /><path
           id="path56"
           style="fill:#ffcc99;fill-opacity:1;fill-rule:evenodd;stroke:none"
           d="m 357.3,72.3 h 67.6 v 4.5 l 22.5,-9 -22.5,-9 v 4.5 h -67.6 z" /><path
           id="path58"
           style="fill:#dc2300;fill-opacity:1;fill-rule:evenodd;stroke:none"
           d="m 473.6,117.6 h 67.5 v 4.5 l 22.5,-9 -22.5,-9 v 4.5 h -67.5 z" /><g
           id="g60"><text
             id="text64"
             style="font-variant:normal;font-weight:900;font-size:10px;font-family:Arial;-inkscape-font-specification:Arial-Black;writing-mode:lr-tb;fill:#000000;fill-opacity:1;fill-rule:nonzero;stroke:none"
             transform="matrix(1,0,0,-1,14,128.6)"><tspan
               id="tspan62"
               y="0"
               x="0 10 16.6 22.700001 27.1 33.700001 38.200001 41.5 46 52.599998 57.099998 63.700001 70.300003">master thread</tspan></text>
</g><path
           id="path66"
           style="fill:#ffd320;fill-opacity:1;fill-rule:evenodd;stroke:none"
           d="m 450.1,58.7 v 108 l 20.2,-54 v 0 z" /><path
           id="path68"
           style="fill:#ffd320;fill-opacity:1;fill-rule:evenodd;stroke:none"
           d="m 124.4,58.7 v 108 l -20.1,-54 v 0 z" /><path
           id="path70"
           style="fill:#ffd320;fill-opacity:1;fill-rule:evenodd;stroke:none"
           d="m 354,58.7 v 108 l -20.1,-54 v 0 z" /><g
           id="g72"><text
             id="text76"
             style="font-variant:normal;font-weight:bold;font-size:12px;font-family:Arial;-inkscape-font-specification:Arial-BoldMT;writing-mode:lr-tb;fill:#000000;fill-opacity:1;fill-rule:nonzero;stroke:none"
             transform="matrix(0,1,1,0,118.2,102.8)"><tspan
               id="tspan74"
               y="0"
               x="0 3.9960001 11.292 15.996">fork</tspan></text>
</g><g
           id="g78"><text
             id="text82"
             style="font-variant:normal;font-weight:bold;font-size:12px;font-family:Arial;-inkscape-font-specification:Arial-BoldMT;writing-mode:lr-tb;fill:#000000;fill-opacity:1;fill-rule:nonzero;stroke:none"
             transform="matrix(0,1,1,0,347.9,102.8)"><tspan
               id="tspan80"
               y="0"
               x="0 3.9000001 11.196 15.9">fork</tspan></text>
</g><g
           id="g84"><text
             id="text88"
             style="font-variant:normal;font-weight:bold;font-size:12px;font-family:Arial;-inkscape-font-specification:Arial-BoldMT;writing-mode:lr-tb;fill:#000000;fill-opacity:1;fill-rule:nonzero;stroke:none"
             transform="matrix(0,1,1,0,233.5,103.9)"><tspan
               id="tspan86"
               y="0"
               x="0 3.204 10.5 13.896">join</tspan></text>
</g><g
           id="g90"><text
             id="text94"
             style="font-variant:normal;font-weight:bold;font-size:12px;font-family:Arial;-inkscape-font-specification:Arial-BoldMT;writing-mode:lr-tb;fill:#000000;fill-opacity:1;fill-rule:nonzero;stroke:none"
             transform="matrix(0,1,1,0,463.1,103.9)"><tspan
               id="tspan92"
               y="0"
               x="0 3.204 10.608 13.908">join</tspan></text>
</g><g
           id="g96"><text
             id="text100"
             style="font-style:italic;font-variant:normal;font-weight:bold;font-size:12px;font-family:Arial;-inkscape-font-specification:Arial-BoldItalicMT;writing-mode:lr-tb;fill:#000000;fill-opacity:1;fill-rule:nonzero;stroke:none"
             transform="matrix(1,0,0,-1,345,35.6)"><tspan
               id="tspan98"
               y="0"
               x="0 6.6960001 13.992 18.695999 25.392 32.796001 43.391998">#pragma</tspan></text>
</g><g
           id="g102"><text
             id="text106"
             style="font-style:italic;font-variant:normal;font-size:12px;font-family:Arial;-inkscape-font-specification:Arial-ItalicMT;writing-mode:lr-tb;fill:#000000;fill-opacity:1;fill-rule:nonzero;stroke:none"
             transform="matrix(1,0,0,-1,398.596,35.6)"><tspan
               id="tspan104"
               y="0"
               x="0 6.6960001 16.5 23.195999 26.591999 33.287998 39.984001 43.98 50.675999 53.279999 55.98 62.675999">omp parallel</tspan></text>
</g></g></g></g></svg>