<?xml version="1.0" encoding="UTF-8" standalone="no"?>
<!-- Created with Inkscape (http://www.inkscape.org/) -->

<svg
   xmlns:dc="http://purl.org/dc/elements/1.1/"
   xmlns:cc="http://creativecommons.org/ns#"
   xmlns:rdf="http://www.w3.org/1999/02/22-rdf-syntax-ns#"
   xmlns:svg="http://www.w3.org/2000/svg"
   xmlns="http://www.w3.org/2000/svg"
   xmlns:sodipodi="http://sodipodi.sourceforge.net/DTD/sodipodi-0.dtd"
   xmlns:inkscape="http://www.inkscape.org/namespaces/inkscape"
   width="30.48mm"
   height="128.5mm"
   viewBox="0 0 30.480002 128.50002"
   version="1.1"
   id="svg8"
   inkscape:version="0.92.5 (2060ec1f9f, 2020-04-08)"
   sodipodi:docname="MyModule.svg">
  <defs
     id="defs2" />
  <sodipodi:namedview
     id="base"
     pagecolor="#ffffff"
     bordercolor="#666666"
     borderopacity="1.0"
     inkscape:pageopacity="0.0"
     inkscape:pageshadow="2"
     inkscape:zoom="2.8"
     inkscape:cx="7.0068892"
     inkscape:cy="437.73476"
     inkscape:document-units="mm"
     inkscape:current-layer="layer2"
     showgrid="false"
     units="mm"
     inkscape:snap-bbox="true"
     inkscape:snap-page="true"
     inkscape:bbox-nodes="false"
     inkscape:snap-bbox-edge-midpoints="false"
     inkscape:window-width="1338"
     inkscape:window-height="816"
     inkscape:window-x="18"
     inkscape:window-y="71"
     inkscape:window-maximized="0"
     inkscape:snap-bbox-midpoints="true"
     inkscape:snap-nodes="false" />
  <metadata
     id="metadata5">
    <rdf:RDF>
      <cc:Work
         rdf:about="">
        <dc:format>image/svg+xml</dc:format>
        <dc:type
           rdf:resource="http://purl.org/dc/dcmitype/StillImage" />
        <dc:title />
      </cc:Work>
    </rdf:RDF>
  </metadata>
  <g
     inkscape:label="Layer 1"
     id="layer1"
     transform="translate(0,-168.49998)"
     inkscape:groupmode="layer"
     style="display:inline">
    <rect
       style="display:inline;opacity:1;vector-effect:none;fill:#e6e6e6;fill-opacity:1;fill-rule:evenodd;stroke:none;stroke-width:0.65184718;stroke-linecap:butt;stroke-linejoin:miter;stroke-miterlimit:4;stroke-dasharray:none;stroke-dashoffset:0;stroke-opacity:1;paint-order:normal"
       id="rect420"
       width="30.668985"
       height="128.689"
       x="5.9211732e-17"
       y="168.49997" />
    <g
       transform="translate(93.69215,20.993504)"
       id="use45"
       style="font-style:normal;font-variant:normal;font-weight:300;font-stretch:normal;font-size:4.93888855px;line-height:6.61458302px;font-family:'Gotham Rounded';-inkscape-font-specification:'Gotham Rounded Light';font-variant-ligatures:normal;font-variant-caps:normal;font-variant-numeric:normal;font-feature-settings:normal;text-align:center;letter-spacing:0px;word-spacing:0px;writing-mode:lr-tb;text-anchor:middle;display:inline;fill:#000000;fill-opacity:1;stroke:none;stroke-width:0.26458332px;stroke-linecap:butt;stroke-linejoin:miter;stroke-opacity:1"
       aria-label="Vel">
      <path
         inkscape:connector-curvature="0"
         id="path7706"
         style="font-style:normal;font-variant:normal;font-weight:300;font-stretch:normal;font-size:4.23333311px;font-family:'Gotham Rounded';-inkscape-font-specification:'Gotham Rounded Light';text-align:center;text-anchor:middle;stroke-width:0.26458332px"
         d="m 10.377818,215.46915 c 0,0.0593 0.0508,0.11007 0.110067,0.11007 0.05927,0 0.110067,-0.0508 0.110067,-0.11007 v -1.01176 h 0.8001 c 0.618066,0 1.155699,-0.32174 1.155699,-0.94404 v -0.008 c 0,-0.5715 -0.448733,-0.90594 -1.100666,-0.90594 h -0.9652 c -0.05927,0 -0.110067,0.0508 -0.110067,0.11007 z m 0.220134,-1.21496 v -1.45204 h 0.8382 c 0.533399,0 0.897466,0.24554 0.897466,0.71544 v 0.008 c 0,0.44027 -0.372533,0.72814 -0.922866,0.72814 z" />
      <path
         inkscape:connector-curvature="0"
         id="path7708"
         style="font-style:normal;font-variant:normal;font-weight:300;font-stretch:normal;font-size:4.23333311px;font-family:'Gotham Rounded';-inkscape-font-specification:'Gotham Rounded Light';text-align:center;text-anchor:middle;stroke-width:0.26458332px"
         d="m 13.163219,212.73442 c 0,0.072 0.05503,0.127 0.127,0.127 0.07197,0 0.131233,-0.055 0.131233,-0.127 v -0.072 c 0,-0.072 -0.05927,-0.127 -0.131233,-0.127 -0.07197,0 -0.127,0.055 -0.127,0.127 z m 0.0254,2.73897 c 0,0.0635 0.04657,0.10583 0.105833,0.10583 0.05927,0 0.1016,-0.0423 0.1016,-0.10583 v -1.9812 c 0,-0.0635 -0.04657,-0.10584 -0.105833,-0.10584 -0.05927,0 -0.1016,0.0466 -0.1016,0.10584 z" />
      <path
         inkscape:connector-curvature="0"
         id="path7710"
         style="font-style:normal;font-variant:normal;font-weight:300;font-stretch:normal;font-size:4.23333311px;font-family:'Gotham Rounded';-inkscape-font-specification:'Gotham Rounded Light';text-align:center;text-anchor:middle;stroke-width:0.26458332px"
         d="m 14.928717,215.60039 c 0.122767,0 0.220134,-0.0254 0.3048,-0.055 0.04233,-0.0169 0.06773,-0.0466 0.06773,-0.0889 0,-0.0508 -0.04657,-0.0931 -0.09313,-0.0931 -0.02963,0 -0.09737,0.0423 -0.245533,0.0423 -0.249767,0 -0.4318,-0.11006 -0.4318,-0.4191 v -1.39276 h 0.677333 c 0.0508,0 0.09737,-0.0423 0.09737,-0.0931 0,-0.0508 -0.04657,-0.0974 -0.09737,-0.0974 h -0.677333 v -0.60114 c 0,-0.0593 -0.04657,-0.10583 -0.105833,-0.10583 -0.05927,0 -0.1016,0.0466 -0.1016,0.10583 v 0.60114 h -0.232833 c -0.0508,0 -0.09737,0.0423 -0.09737,0.0931 0,0.0508 0.04657,0.0974 0.09737,0.0974 h 0.232833 v 1.41393 c 0,0.41063 0.270933,0.59267 0.605366,0.59267 z" />
      <path
         inkscape:connector-curvature="0"
         id="path7712"
         style="font-style:normal;font-variant:normal;font-weight:300;font-stretch:normal;font-size:4.23333311px;font-family:'Gotham Rounded';-inkscape-font-specification:'Gotham Rounded Light';text-align:center;text-anchor:middle;stroke-width:0.26458332px"
         d="m 16.790392,215.61309 c 0.3683,0 0.618067,-0.1524 0.833967,-0.37254 0.01693,-0.0169 0.0254,-0.0423 0.0254,-0.0635 0,-0.0508 -0.0508,-0.1016 -0.1016,-0.1016 -0.02963,0 -0.0508,0.0169 -0.06773,0.0339 -0.173566,0.17357 -0.397933,0.30903 -0.677333,0.30903 -0.4953,0 -0.889,-0.41486 -0.889,-0.93556 v -0.008 c 0,-0.51647 0.381,-0.9271 0.872067,-0.9271 0.2921,0 0.4953,0.1397 0.668866,0.3048 0.01693,0.0169 0.04657,0.0254 0.07197,0.0254 0.05927,0 0.105833,-0.0466 0.105833,-0.10583 0,-0.0296 -0.0127,-0.0593 -0.02963,-0.0762 -0.194733,-0.18204 -0.440267,-0.3429 -0.8128,-0.3429 -0.618067,0 -1.100667,0.52493 -1.100667,1.1303 v 0.008 c 0,0.60537 0.478367,1.12184 1.100667,1.12184 z" />
      <path
         inkscape:connector-curvature="0"
         id="path7714"
         style="font-style:normal;font-variant:normal;font-weight:300;font-stretch:normal;font-size:4.23333311px;font-family:'Gotham Rounded';-inkscape-font-specification:'Gotham Rounded Light';text-align:center;text-anchor:middle;stroke-width:0.26458332px"
         d="m 18.252215,215.47339 c 0,0.0635 0.04657,0.10583 0.105833,0.10583 0.05927,0 0.1016,-0.0423 0.1016,-0.10583 v -1.15994 c 0,-0.44873 0.325967,-0.77046 0.7493,-0.77046 0.436033,0 0.6858,0.2921 0.6858,0.7366 v 1.1938 c 0,0.0635 0.04657,0.10583 0.105833,0.10583 0.05927,0 0.1016,-0.0423 0.1016,-0.10583 v -1.2319 c 0,-0.51647 -0.3175,-0.889 -0.8636,-0.889 -0.3937,0 -0.635,0.19896 -0.778933,0.45296 v -1.2446 c 0,-0.0593 -0.04657,-0.10583 -0.105833,-0.10583 -0.05927,0 -0.1016,0.0466 -0.1016,0.10583 z" />
    </g>
    <text
       xml:space="preserve"
       style="font-style:normal;font-weight:normal;font-size:10.58333302px;line-height:1.25;font-family:sans-serif;letter-spacing:0px;word-spacing:0px;fill:#000000;fill-opacity:1;stroke:none;stroke-width:0.26458332"
       x="9.0714283"
       y="242.19344"
       id="text53"><tspan
         sodipodi:role="line"
         id="tspan51"
         x="9.0714283"
         y="251.55721"
         style="stroke-width:0.26458332" /></text>
    <g
       aria-label="Processor"
       style="font-style:normal;font-weight:normal;font-size:10.58333302px;line-height:1.25;font-family:sans-serif;letter-spacing:0px;word-spacing:0px;fill:#000000;fill-opacity:1;stroke:none;stroke-width:0.26458332"
       id="text7720"
       transform="translate(0,4.3467262)">
      <path
         d="m 2.4377496,171.78567 h 1.5409912 q 0.6872966,0 1.0538548,0.30627 0.3689697,0.30386 0.3689697,0.86816 0,0.56672 -0.3689697,0.87299 -0.3665582,0.30386 -1.0538548,0.30386 h -0.612538 v 1.24919 H 2.4377496 Z m 0.9284532,0.67283 v 1.00562 h 0.5136638 q 0.2700955,0 0.4172011,-0.13022 0.1471055,-0.13264 0.1471055,-0.3738 0,-0.24115 -0.1471055,-0.37138 -0.1471056,-0.13022 -0.4172011,-0.13022 z"
         style="font-style:normal;font-variant:normal;font-weight:bold;font-stretch:normal;font-size:4.93888903px;font-family:sans-serif;-inkscape-font-specification:'sans-serif, Bold';font-variant-ligatures:normal;font-variant-caps:normal;font-variant-numeric:normal;font-feature-settings:normal;text-align:start;writing-mode:lr-tb;text-anchor:start;stroke-width:0.26458332"
         id="path7730"
         inkscape:connector-curvature="0" />
      <path
         d="m 8.0229385,173.42071 q -0.1133436,-0.0531 -0.2266873,-0.0772 -0.1109321,-0.0265 -0.2242757,-0.0265 -0.3327962,0 -0.5136637,0.21463 -0.178456,0.21222 -0.178456,0.61013 v 1.24437 h -0.863341 v -2.70096 h 0.863341 v 0.44373 q 0.1663981,-0.26527 0.3810276,-0.38585 0.217041,-0.12299 0.5184869,-0.12299 0.043408,0 0.094051,0.005 0.050643,0.002 0.1471055,0.0145 z"
         style="font-style:normal;font-variant:normal;font-weight:bold;font-stretch:normal;font-size:4.93888903px;font-family:sans-serif;-inkscape-font-specification:'sans-serif, Bold';font-variant-ligatures:normal;font-variant-caps:normal;font-variant-numeric:normal;font-feature-settings:normal;text-align:start;writing-mode:lr-tb;text-anchor:start;stroke-width:0.26458332"
         id="path7732"
         inkscape:connector-curvature="0" />
      <path
         d="m 9.7423858,173.23743 q -0.2869765,0 -0.4389052,0.2074 -0.1495172,0.20498 -0.1495172,0.59324 0,0.38827 0.1495172,0.59566 0.1519287,0.20498 0.4389052,0.20498 0.2821532,0 0.4316702,-0.20498 0.149517,-0.20739 0.149517,-0.59566 0,-0.38826 -0.149517,-0.59324 -0.149517,-0.2074 -0.4316702,-0.2074 z m 0,-0.61736 q 0.6969432,0 1.0876162,0.37621 0.393086,0.3762 0.393086,1.04179 0,0.6656 -0.393086,1.0418 -0.390673,0.3762 -1.0876162,0.3762 -0.6993545,0 -1.0948514,-0.3762 -0.3930854,-0.3762 -0.3930854,-1.0418 0,-0.66559 0.3930854,-1.04179 0.3954969,-0.37621 1.0948514,-0.37621 z"
         style="font-style:normal;font-variant:normal;font-weight:bold;font-stretch:normal;font-size:4.93888903px;font-family:sans-serif;-inkscape-font-specification:'sans-serif, Bold';font-variant-ligatures:normal;font-variant-caps:normal;font-variant-numeric:normal;font-feature-settings:normal;text-align:start;writing-mode:lr-tb;text-anchor:start;stroke-width:0.26458332"
         id="path7734"
         inkscape:connector-curvature="0" />
      <path
         d="m 14.034975,172.76959 v 0.70418 q -0.176044,-0.12058 -0.3545,-0.17846 -0.176045,-0.0579 -0.366559,-0.0579 -0.361735,0 -0.564306,0.21222 -0.20016,0.20981 -0.20016,0.58842 0,0.37862 0.20016,0.59084 0.202571,0.2098 0.564306,0.2098 0.202572,0 0.38344,-0.0603 0.183279,-0.0603 0.337619,-0.17845 v 0.70659 q -0.202572,0.0748 -0.412378,0.11093 -0.207395,0.0386 -0.417201,0.0386 -0.730705,0 -1.143083,-0.37379 -0.412378,-0.3762 -0.412378,-1.04421 0,-0.668 0.412378,-1.04179 0.412378,-0.37621 1.143083,-0.37621 0.212218,0 0.417201,0.0386 0.207395,0.0362 0.412378,0.11093 z"
         style="font-style:normal;font-variant:normal;font-weight:bold;font-stretch:normal;font-size:4.93888903px;font-family:sans-serif;-inkscape-font-specification:'sans-serif, Bold';font-variant-ligatures:normal;font-variant-caps:normal;font-variant-numeric:normal;font-feature-settings:normal;text-align:start;writing-mode:lr-tb;text-anchor:start;stroke-width:0.26458332"
         id="path7736"
         inkscape:connector-curvature="0" />
      <path
         d="m 17.481103,174.02843 v 0.24598 h -2.018481 q 0.03135,0.30385 0.219452,0.45578 0.188103,0.15193 0.525722,0.15193 0.272507,0 0.557072,-0.0796 0.286976,-0.082 0.588422,-0.24598 v 0.66559 q -0.306269,0.11576 -0.612538,0.17364 -0.306269,0.0603 -0.612538,0.0603 -0.733116,0 -1.140671,-0.37138 -0.405143,-0.37379 -0.405143,-1.04662 0,-0.66077 0.397908,-1.03938 0.400321,-0.37862 1.099675,-0.37862 0.636654,0 1.017681,0.38344 0.383439,0.38344 0.383439,1.02492 z m -0.887456,-0.28698 q 0,-0.24598 -0.144694,-0.3955 -0.142283,-0.15193 -0.373793,-0.15193 -0.250803,0 -0.407555,0.14229 -0.156752,0.13987 -0.195337,0.40514 z"
         style="font-style:normal;font-variant:normal;font-weight:bold;font-stretch:normal;font-size:4.93888903px;font-family:sans-serif;-inkscape-font-specification:'sans-serif, Bold';font-variant-ligatures:normal;font-variant-caps:normal;font-variant-numeric:normal;font-feature-settings:normal;text-align:start;writing-mode:lr-tb;text-anchor:start;stroke-width:0.26458332"
         id="path7738"
         inkscape:connector-curvature="0" />
      <path
         d="m 20.242348,172.76959 v 0.65595 q -0.27733,-0.11576 -0.535368,-0.17364 -0.258037,-0.0579 -0.487136,-0.0579 -0.24598,0 -0.366558,0.0627 -0.118167,0.0603 -0.118167,0.1881 0,0.10369 0.08923,0.15916 0.09164,0.0555 0.325561,0.082 l 0.151929,0.0217 q 0.663181,0.0844 0.89228,0.27733 0.229099,0.19292 0.229099,0.6053 0,0.43167 -0.318327,0.64871 -0.318327,0.21704 -0.950157,0.21704 -0.267684,0 -0.554661,-0.0434 -0.284565,-0.041 -0.586011,-0.12541 v -0.65594 q 0.258038,0.1254 0.528134,0.1881 0.272507,0.0627 0.552248,0.0627 0.253215,0 0.381028,-0.0699 0.127813,-0.0699 0.127813,-0.2074 0,-0.11575 -0.08923,-0.17122 -0.08682,-0.0579 -0.349677,-0.0892 l -0.151929,-0.0193 q -0.576364,-0.0724 -0.807875,-0.26768 -0.23151,-0.19534 -0.23151,-0.59325 0,-0.42926 0.294211,-0.63665 0.294211,-0.2074 0.901926,-0.2074 0.238745,0 0.501606,0.0362 0.262861,0.0362 0.571541,0.11334 z"
         style="font-style:normal;font-variant:normal;font-weight:bold;font-stretch:normal;font-size:4.93888903px;font-family:sans-serif;-inkscape-font-specification:'sans-serif, Bold';font-variant-ligatures:normal;font-variant-caps:normal;font-variant-numeric:normal;font-feature-settings:normal;text-align:start;writing-mode:lr-tb;text-anchor:start;stroke-width:0.26458332"
         id="path7740"
         inkscape:connector-curvature="0" />
      <path
         d="m 23.18446,172.76959 v 0.65595 q -0.27733,-0.11576 -0.535368,-0.17364 -0.258037,-0.0579 -0.487136,-0.0579 -0.24598,0 -0.366558,0.0627 -0.118167,0.0603 -0.118167,0.1881 0,0.10369 0.08923,0.15916 0.09164,0.0555 0.325561,0.082 l 0.151929,0.0217 q 0.663181,0.0844 0.89228,0.27733 0.229099,0.19292 0.229099,0.6053 0,0.43167 -0.318327,0.64871 -0.318327,0.21704 -0.950157,0.21704 -0.267684,0 -0.554661,-0.0434 -0.284565,-0.041 -0.586011,-0.12541 v -0.65594 q 0.258038,0.1254 0.528134,0.1881 0.272507,0.0627 0.552248,0.0627 0.253215,0 0.381028,-0.0699 0.127813,-0.0699 0.127813,-0.2074 0,-0.11575 -0.08923,-0.17122 -0.08682,-0.0579 -0.349677,-0.0892 l -0.151929,-0.0193 q -0.576364,-0.0724 -0.807875,-0.26768 -0.23151,-0.19534 -0.23151,-0.59325 0,-0.42926 0.294211,-0.63665 0.294211,-0.2074 0.901926,-0.2074 0.238745,0 0.501606,0.0362 0.262861,0.0362 0.571541,0.11334 z"
         style="font-style:normal;font-variant:normal;font-weight:bold;font-stretch:normal;font-size:4.93888903px;font-family:sans-serif;-inkscape-font-specification:'sans-serif, Bold';font-variant-ligatures:normal;font-variant-caps:normal;font-variant-numeric:normal;font-feature-settings:normal;text-align:start;writing-mode:lr-tb;text-anchor:start;stroke-width:0.26458332"
         id="path7742"
         inkscape:connector-curvature="0" />
      <path
         d="m 25.301816,173.23743 q -0.286976,0 -0.438905,0.2074 -0.149517,0.20498 -0.149517,0.59324 0,0.38827 0.149517,0.59566 0.151929,0.20498 0.438905,0.20498 0.282154,0 0.431671,-0.20498 0.149517,-0.20739 0.149517,-0.59566 0,-0.38826 -0.149517,-0.59324 -0.149517,-0.2074 -0.431671,-0.2074 z m 0,-0.61736 q 0.696943,0 1.087617,0.37621 0.393085,0.3762 0.393085,1.04179 0,0.6656 -0.393085,1.0418 -0.390674,0.3762 -1.087617,0.3762 -0.699354,0 -1.094851,-0.3762 -0.393085,-0.3762 -0.393085,-1.0418 0,-0.66559 0.393085,-1.04179 0.395497,-0.37621 1.094851,-0.37621 z"
         style="font-style:normal;font-variant:normal;font-weight:bold;font-stretch:normal;font-size:4.93888903px;font-family:sans-serif;-inkscape-font-specification:'sans-serif, Bold';font-variant-ligatures:normal;font-variant-caps:normal;font-variant-numeric:normal;font-feature-settings:normal;text-align:start;writing-mode:lr-tb;text-anchor:start;stroke-width:0.26458332"
         id="path7744"
         inkscape:connector-curvature="0" />
      <path
         d="m 29.41836,173.42071 q -0.113344,-0.0531 -0.226688,-0.0772 -0.110932,-0.0265 -0.224275,-0.0265 -0.332796,0 -0.513664,0.21463 -0.178456,0.21222 -0.178456,0.61013 v 1.24437 h -0.863341 v -2.70096 h 0.863341 v 0.44373 q 0.166398,-0.26527 0.381028,-0.38585 0.217041,-0.12299 0.518487,-0.12299 0.04341,0 0.09405,0.005 0.05064,0.002 0.147105,0.0145 z"
         style="font-style:normal;font-variant:normal;font-weight:bold;font-stretch:normal;font-size:4.93888903px;font-family:sans-serif;-inkscape-font-specification:'sans-serif, Bold';font-variant-ligatures:normal;font-variant-caps:normal;font-variant-numeric:normal;font-feature-settings:normal;text-align:start;writing-mode:lr-tb;text-anchor:start;stroke-width:0.26458332"
         id="path7746"
         inkscape:connector-curvature="0" />
    </g>
  </g>
  <g
     inkscape:groupmode="layer"
     id="layer2"
     inkscape:label="components"
     style="display:inline">
    <circle
       style="display:inline;opacity:1;vector-effect:none;fill:#ff0000;fill-opacity:1;fill-rule:evenodd;stroke:none;stroke-width:1;stroke-linecap:butt;stroke-linejoin:miter;stroke-miterlimit:4;stroke-dasharray:none;stroke-dashoffset:0;stroke-opacity:1;paint-order:normal"
       id="path4954"
       cx="8.0017557"
       cy="21.160709"
       r="4"
       inkscape:label="Param1" />
    <circle
       r="4"
       cy="75.336456"
       cx="8.5687218"
       id="circle4956"
       style="display:inline;opacity:1;vector-effect:none;fill:#00ff00;fill-opacity:1;fill-rule:evenodd;stroke:none;stroke-width:1;stroke-linecap:butt;stroke-linejoin:miter;stroke-miterlimit:4;stroke-dasharray:none;stroke-dashoffset:0;stroke-opacity:1;paint-order:normal"
       inkscape:label="Input1" />
    <circle
       style="display:inline;opacity:1;vector-effect:none;fill:#0000ff;fill-opacity:1;fill-rule:evenodd;stroke:none;stroke-width:1;stroke-linecap:butt;stroke-linejoin:miter;stroke-miterlimit:4;stroke-dasharray:none;stroke-dashoffset:0;stroke-opacity:1;paint-order:normal"
       id="circle4958"
       cx="8.3230371"
       cy="100.33228"
       r="4"
       inkscape:label="Output1" />
    <circle
       inkscape:label="Param3"
       r="4"
       cy="42.705345"
       cx="7.877027"
       id="circle40"
       style="display:inline;opacity:1;vector-effect:none;fill:#ff0000;fill-opacity:1;fill-rule:evenodd;stroke:none;stroke-width:1;stroke-linecap:butt;stroke-linejoin:miter;stroke-miterlimit:4;stroke-dasharray:none;stroke-dashoffset:0;stroke-opacity:1;paint-order:normal" />
    <circle
       inkscape:label="Param2"
       r="4"
       cy="21.160707"
       cx="22.70503"
       id="circle7722"
       style="display:inline;opacity:1;vector-effect:none;fill:#ff0000;fill-opacity:1;fill-rule:evenodd;stroke:none;stroke-width:1;stroke-linecap:butt;stroke-linejoin:miter;stroke-miterlimit:4;stroke-dasharray:none;stroke-dashoffset:0;stroke-opacity:1;paint-order:normal" />
    <circle
       style="display:inline;opacity:1;vector-effect:none;fill:#ff0000;fill-opacity:1;fill-rule:evenodd;stroke:none;stroke-width:1;stroke-linecap:butt;stroke-linejoin:miter;stroke-miterlimit:4;stroke-dasharray:none;stroke-dashoffset:0;stroke-opacity:1;paint-order:normal"
       id="circle7724"
       cx="22.920479"
       cy="42.856537"
       r="4"
       inkscape:label="Param4" />
    <circle
       inkscape:label="Input2"
       style="display:inline;opacity:1;vector-effect:none;fill:#00ff00;fill-opacity:1;fill-rule:evenodd;stroke:none;stroke-width:1;stroke-linecap:butt;stroke-linejoin:miter;stroke-miterlimit:4;stroke-dasharray:none;stroke-dashoffset:0;stroke-opacity:1;paint-order:normal"
       id="circle7726"
       cx="22.894016"
       cy="75.336456"
       r="4" />
    <circle
       inkscape:label="Output2"
       r="4"
       cy="100.33228"
       cx="22.920477"
       id="circle7728"
       style="display:inline;opacity:1;vector-effect:none;fill:#0000ff;fill-opacity:1;fill-rule:evenodd;stroke:none;stroke-width:1;stroke-linecap:butt;stroke-linejoin:miter;stroke-miterlimit:4;stroke-dasharray:none;stroke-dashoffset:0;stroke-opacity:1;paint-order:normal" />
    <g
       aria-label="P1"
       style="font-style:normal;font-weight:normal;font-size:10.58333302px;line-height:1.25;font-family:sans-serif;letter-spacing:0px;word-spacing:0px;fill:#000000;fill-opacity:1;stroke:none;stroke-width:0.26458332"
       id="text7753">
      <path
         d="m 6.9307938,28.318347 v 0.966349 h 0.4375271 q 0.2428792,0 0.3755154,-0.125746 0.1326362,-0.125746 0.1326362,-0.358289 0,-0.230822 -0.1326362,-0.356568 Q 7.6112001,28.318347 7.3683209,28.318347 Z M 6.5828392,28.032404 h 0.7854817 q 0.4323595,0 0.6528456,0.196371 0.2222086,0.194648 0.2222086,0.571886 0,0.380683 -0.2222086,0.57533 -0.2204861,0.194648 -0.6528456,0.194648 H 6.9307938 v 1.033529 H 6.5828392 Z"
         style="font-style:normal;font-variant:normal;font-weight:normal;font-stretch:normal;font-size:3.52777767px;font-family:sans-serif;-inkscape-font-specification:'sans-serif, Normal';font-variant-ligatures:normal;font-variant-caps:normal;font-variant-numeric:normal;font-feature-settings:normal;text-align:start;writing-mode:lr-tb;text-anchor:start;stroke-width:0.26458332"
         id="path7767"
         inkscape:connector-curvature="0" />
      <path
         d="m 8.803203,30.311335 h 0.5684408 v -1.961982 l -0.6183946,0.124023 v -0.316948 l 0.6149495,-0.124024 h 0.3479546 v 2.278931 h 0.5684407 v 0.292833 H 8.803203 Z"
         style="font-style:normal;font-variant:normal;font-weight:normal;font-stretch:normal;font-size:3.52777767px;font-family:sans-serif;-inkscape-font-specification:'sans-serif, Normal';font-variant-ligatures:normal;font-variant-caps:normal;font-variant-numeric:normal;font-feature-settings:normal;text-align:start;writing-mode:lr-tb;text-anchor:start;stroke-width:0.26458332"
         id="path7769"
         inkscape:connector-curvature="0" />
    </g>
    <g
       aria-label="P2"
       style="font-style:normal;font-weight:normal;font-size:10.58333302px;line-height:1.25;font-family:sans-serif;letter-spacing:0px;word-spacing:0px;fill:#000000;fill-opacity:1;stroke:none;stroke-width:0.26458332"
       id="text7757">
      <path
         d="m 21.29389,28.507335 v 0.966349 h 0.437527 q 0.242879,0 0.375515,-0.125746 0.132636,-0.125746 0.132636,-0.35829 0,-0.230821 -0.132636,-0.356567 -0.132636,-0.125746 -0.375515,-0.125746 z m -0.347955,-0.285943 h 0.785482 q 0.432359,0 0.652845,0.19637 0.222209,0.194648 0.222209,0.571886 0,0.380683 -0.222209,0.575331 -0.220486,0.194648 -0.652845,0.194648 H 21.29389 v 1.033529 h -0.347955 z"
         style="font-style:normal;font-variant:normal;font-weight:normal;font-stretch:normal;font-size:3.52777767px;font-family:sans-serif;-inkscape-font-specification:'sans-serif, Normal';font-variant-ligatures:normal;font-variant-caps:normal;font-variant-numeric:normal;font-feature-settings:normal;text-align:start;writing-mode:lr-tb;text-anchor:start;stroke-width:0.26458332"
         id="path7772"
         inkscape:connector-curvature="0" />
      <path
         d="m 23.405733,30.500323 h 1.214396 v 0.292833 h -1.632975 v -0.292833 q 0.198093,-0.204984 0.539157,-0.549493 0.342787,-0.346232 0.430637,-0.44614 0.167087,-0.187758 0.232544,-0.316949 0.06718,-0.130913 0.06718,-0.256659 0,-0.204984 -0.144694,-0.334175 -0.142971,-0.129191 -0.373792,-0.129191 -0.163642,0 -0.346232,0.05684 -0.180868,0.05684 -0.387574,0.172255 v -0.3514 q 0.210151,-0.0844 0.392741,-0.127468 0.18259,-0.04306 0.334174,-0.04306 0.399632,0 0.637343,0.199816 0.237712,0.199815 0.237712,0.533989 0,0.158475 -0.06029,0.301446 -0.05857,0.141249 -0.215319,0.334175 -0.04306,0.04995 -0.273885,0.289388 -0.230821,0.237711 -0.651123,0.666626 z"
         style="font-style:normal;font-variant:normal;font-weight:normal;font-stretch:normal;font-size:3.52777767px;font-family:sans-serif;-inkscape-font-specification:'sans-serif, Normal';font-variant-ligatures:normal;font-variant-caps:normal;font-variant-numeric:normal;font-feature-settings:normal;text-align:start;writing-mode:lr-tb;text-anchor:start;stroke-width:0.26458332"
         id="path7774"
         inkscape:connector-curvature="0" />
    </g>
    <g
       aria-label="P4"
       style="font-style:normal;font-weight:normal;font-size:10.58333302px;line-height:1.25;font-family:sans-serif;letter-spacing:0px;word-spacing:0px;fill:#000000;fill-opacity:1;stroke:none;stroke-width:0.26458332"
       id="text7761"
       transform="translate(0.52916667)">
      <path
         d="m 21.482877,50.392158 v 0.966349 h 0.437527 q 0.24288,0 0.375516,-0.125746 0.132636,-0.125746 0.132636,-0.35829 0,-0.230821 -0.132636,-0.356567 -0.132636,-0.125746 -0.375516,-0.125746 z m -0.347954,-0.285943 h 0.785481 q 0.43236,0 0.652846,0.19637 0.222209,0.194648 0.222209,0.571886 0,0.380683 -0.222209,0.575331 -0.220486,0.194648 -0.652846,0.194648 h -0.437527 v 1.033529 h -0.347954 z"
         style="font-style:normal;font-variant:normal;font-weight:normal;font-stretch:normal;font-size:3.52777767px;font-family:sans-serif;-inkscape-font-specification:'sans-serif, Normal';font-variant-ligatures:normal;font-variant-caps:normal;font-variant-numeric:normal;font-feature-settings:normal;text-align:start;writing-mode:lr-tb;text-anchor:start;stroke-width:0.26458332"
         id="path7782"
         inkscape:connector-curvature="0" />
      <path
         d="m 24.251011,50.409383 -0.878499,1.372871 h 0.878499 z m -0.09129,-0.303168 h 0.437527 v 1.676039 h 0.366903 v 0.289388 h -0.366903 v 0.606337 h -0.346232 v -0.606337 h -1.160997 v -0.335897 z"
         style="font-style:normal;font-variant:normal;font-weight:normal;font-stretch:normal;font-size:3.52777767px;font-family:sans-serif;-inkscape-font-specification:'sans-serif, Normal';font-variant-ligatures:normal;font-variant-caps:normal;font-variant-numeric:normal;font-feature-settings:normal;text-align:start;writing-mode:lr-tb;text-anchor:start;stroke-width:0.26458332"
         id="path7784"
         inkscape:connector-curvature="0" />
    </g>
    <g
       aria-label="P3"
       style="font-style:normal;font-weight:normal;font-size:10.58333302px;line-height:1.25;font-family:sans-serif;letter-spacing:0px;word-spacing:0px;fill:#000000;fill-opacity:1;stroke:none;stroke-width:0.26458332"
       id="text7765"
       transform="translate(-1.0583333)">
      <path
         d="m 7.4977579,50.240966 v 0.966349 h 0.4375272 q 0.2428792,0 0.3755154,-0.125746 0.1326361,-0.125746 0.1326361,-0.35829 0,-0.230821 -0.1326361,-0.356567 Q 8.1781643,50.240966 7.9352851,50.240966 Z M 7.1498033,49.955023 h 0.7854818 q 0.4323594,0 0.6528455,0.196371 0.2222087,0.194647 0.2222087,0.571885 0,0.380683 -0.2222087,0.575331 -0.2204861,0.194648 -0.6528455,0.194648 H 7.4977579 v 1.033529 H 7.1498033 Z"
         style="font-style:normal;font-variant:normal;font-weight:normal;font-stretch:normal;font-size:3.52777767px;font-family:sans-serif;-inkscape-font-specification:'sans-serif, Normal';font-variant-ligatures:normal;font-variant-caps:normal;font-variant-numeric:normal;font-feature-settings:normal;text-align:start;writing-mode:lr-tb;text-anchor:start;stroke-width:0.26458332"
         id="path7777"
         inkscape:connector-curvature="0" />
      <path
         d="m 10.364077,51.140136 q 0.24977,0.0534 0.389296,0.222209 0.141249,0.168809 0.141249,0.416856 0,0.380683 -0.261827,0.589111 -0.261828,0.208429 -0.744141,0.208429 -0.1619194,0 -0.3341742,-0.03273 -0.1705322,-0.03101 -0.3531223,-0.09474 v -0.335897 q 0.144694,0.08441 0.3169488,0.127469 0.1722548,0.04306 0.3600125,0.04306 0.3272842,0 0.4978162,-0.129191 0.172255,-0.129192 0.172255,-0.375516 0,-0.227376 -0.160197,-0.354845 Q 10.229718,51.29516 9.9454981,51.29516 H 9.6457748 v -0.285943 h 0.3135037 q 0.2566595,0 0.3927405,-0.10163 0.136082,-0.103353 0.136082,-0.296278 0,-0.198093 -0.141249,-0.303169 -0.139527,-0.106798 -0.4013539,-0.106798 -0.1429714,0 -0.3066135,0.03101 -0.163642,0.03101 -0.3600124,0.09646 v -0.310059 q 0.1980929,-0.05512 0.3703477,-0.08268 0.1739773,-0.02756 0.3272841,-0.02756 0.396186,0 0.627007,0.180868 0.230822,0.179145 0.230822,0.485758 0,0.213596 -0.122301,0.361735 -0.122301,0.146417 -0.347955,0.203261 z"
         style="font-style:normal;font-variant:normal;font-weight:normal;font-stretch:normal;font-size:3.52777767px;font-family:sans-serif;-inkscape-font-specification:'sans-serif, Normal';font-variant-ligatures:normal;font-variant-caps:normal;font-variant-numeric:normal;font-feature-settings:normal;text-align:start;writing-mode:lr-tb;text-anchor:start;stroke-width:0.26458332"
         id="path7779"
         inkscape:connector-curvature="0" />
    </g>
    <g
       aria-label="In1"
       style="font-style:normal;font-weight:normal;font-size:10.58333302px;line-height:1.25;font-family:sans-serif;letter-spacing:0px;word-spacing:0px;fill:#000000;fill-opacity:1;stroke:none;stroke-width:0.26458332"
       id="text7795"
       transform="translate(-0.52916667)">
      <path
         d="m 6.7718278,82.082999 h 0.3479547 v 2.571763 H 6.7718278 Z"
         style="font-style:normal;font-variant:normal;font-weight:normal;font-stretch:normal;font-size:3.52777767px;font-family:sans-serif;-inkscape-font-specification:'sans-serif, Normal';font-variant-ligatures:normal;font-variant-caps:normal;font-variant-numeric:normal;font-feature-settings:normal;text-align:start;writing-mode:lr-tb;text-anchor:start;stroke-width:0.26458332"
         id="path7809"
         inkscape:connector-curvature="0" />
      <path
         d="m 9.4021582,83.49032 v 1.164442 H 9.0852095 v -1.154107 q 0,-0.273885 -0.106798,-0.409966 -0.106798,-0.136081 -0.3203939,-0.136081 -0.2566596,0 -0.4047987,0.163642 -0.1481391,0.163642 -0.1481391,0.44614 v 1.090372 H 7.7864085 v -1.929253 h 0.3186713 v 0.299723 Q 8.218768,82.851255 8.3720747,82.765127 8.527104,82.679 8.7286421,82.679 q 0.3324517,0 0.5029839,0.206706 0.1705322,0.204983 0.1705322,0.604614 z"
         style="font-style:normal;font-variant:normal;font-weight:normal;font-stretch:normal;font-size:3.52777767px;font-family:sans-serif;-inkscape-font-specification:'sans-serif, Normal';font-variant-ligatures:normal;font-variant-caps:normal;font-variant-numeric:normal;font-feature-settings:normal;text-align:start;writing-mode:lr-tb;text-anchor:start;stroke-width:0.26458332"
         id="path7811"
         inkscape:connector-curvature="0" />
      <path
         d="m 10.142854,84.361929 h 0.56844 V 82.399947 L 10.0929,82.523971 v -0.316949 l 0.614949,-0.124023 h 0.347955 v 2.27893 h 0.568441 v 0.292833 h -1.481391 z"
         style="font-style:normal;font-variant:normal;font-weight:normal;font-stretch:normal;font-size:3.52777767px;font-family:sans-serif;-inkscape-font-specification:'sans-serif, Normal';font-variant-ligatures:normal;font-variant-caps:normal;font-variant-numeric:normal;font-feature-settings:normal;text-align:start;writing-mode:lr-tb;text-anchor:start;stroke-width:0.26458332"
         id="path7813"
         inkscape:connector-curvature="0" />
    </g>
    <g
       aria-label="In2"
       style="font-style:normal;font-weight:normal;font-size:10.58333302px;line-height:1.25;font-family:sans-serif;letter-spacing:0px;word-spacing:0px;fill:#000000;fill-opacity:1;stroke:none;stroke-width:0.26458332"
       id="text7799">
      <path
         d="m 20.870341,81.780615 h 0.347955 v 2.571764 h -0.347955 z"
         style="font-style:normal;font-variant:normal;font-weight:normal;font-stretch:normal;font-size:3.52777767px;font-family:sans-serif;-inkscape-font-specification:'sans-serif, Normal';font-variant-ligatures:normal;font-variant-caps:normal;font-variant-numeric:normal;font-feature-settings:normal;text-align:start;writing-mode:lr-tb;text-anchor:start;stroke-width:0.26458332"
         id="path7816"
         inkscape:connector-curvature="0" />
      <path
         d="m 23.500671,83.187937 v 1.164442 h -0.316948 v -1.154107 q 0,-0.273885 -0.106798,-0.409966 -0.106798,-0.136082 -0.320394,-0.136082 -0.25666,0 -0.404799,0.163642 -0.148139,0.163642 -0.148139,0.44614 v 1.090373 h -0.318671 v -1.929254 h 0.318671 v 0.299724 q 0.113688,-0.173978 0.266995,-0.260105 0.155029,-0.08613 0.356567,-0.08613 0.332452,0 0.502984,0.206705 0.170532,0.204984 0.170532,0.604615 z"
         style="font-style:normal;font-variant:normal;font-weight:normal;font-stretch:normal;font-size:3.52777767px;font-family:sans-serif;-inkscape-font-specification:'sans-serif, Normal';font-variant-ligatures:normal;font-variant-caps:normal;font-variant-numeric:normal;font-feature-settings:normal;text-align:start;writing-mode:lr-tb;text-anchor:start;stroke-width:0.26458332"
         id="path7818"
         inkscape:connector-curvature="0" />
      <path
         d="m 24.480801,84.059546 h 1.214396 v 0.292833 h -1.632975 v -0.292833 q 0.198093,-0.204983 0.539157,-0.549493 0.342787,-0.346232 0.430637,-0.44614 0.167087,-0.187758 0.232544,-0.316949 0.06718,-0.130913 0.06718,-0.256659 0,-0.204983 -0.144694,-0.334174 -0.142971,-0.129192 -0.373792,-0.129192 -0.163642,0 -0.346232,0.05684 -0.180868,0.05684 -0.387574,0.172254 v -0.351399 q 0.210151,-0.08441 0.392741,-0.127469 0.18259,-0.04306 0.334174,-0.04306 0.399632,0 0.637343,0.199816 0.237712,0.199815 0.237712,0.53399 0,0.158474 -0.06029,0.301446 -0.05857,0.141248 -0.215318,0.334174 -0.04306,0.04995 -0.273885,0.289388 -0.230821,0.237711 -0.651123,0.666626 z"
         style="font-style:normal;font-variant:normal;font-weight:normal;font-stretch:normal;font-size:3.52777767px;font-family:sans-serif;-inkscape-font-specification:'sans-serif, Normal';font-variant-ligatures:normal;font-variant-caps:normal;font-variant-numeric:normal;font-feature-settings:normal;text-align:start;writing-mode:lr-tb;text-anchor:start;stroke-width:0.26458332"
         id="path7820"
         inkscape:connector-curvature="0" />
    </g>
    <g
       aria-label="Out1"
       style="font-style:normal;font-weight:normal;font-size:10.58333302px;line-height:1.25;font-family:sans-serif;letter-spacing:0px;word-spacing:0px;fill:#000000;fill-opacity:1;stroke:none;stroke-width:0.26458332"
       id="text7803"
       transform="translate(-1.0583333)">
      <path
         d="m 7.1353348,107.83238 q -0.3789605,0 -0.6028917,0.2825 -0.2222087,0.28249 -0.2222087,0.76997 0,0.48576 0.2222087,0.76826 0.2239312,0.2825 0.6028917,0.2825 0.3789605,0 0.5994466,-0.2825 0.2222086,-0.2825 0.2222086,-0.76826 0,-0.48748 -0.2222086,-0.76997 -0.2204861,-0.2825 -0.5994466,-0.2825 z m 0,-0.2825 q 0.5408799,0 0.8647189,0.36346 0.323839,0.36173 0.323839,0.97151 0,0.60806 -0.323839,0.97152 -0.323839,0.36174 -0.8647189,0.36174 -0.5426026,0 -0.8681641,-0.36174 -0.3238389,-0.36173 -0.3238389,-0.97152 0,-0.60978 0.3238389,-0.97151 0.3255615,-0.36346 0.8681641,-0.36346 z"
         style="font-style:normal;font-variant:normal;font-weight:normal;font-stretch:normal;font-size:3.52777767px;font-family:sans-serif;-inkscape-font-specification:'sans-serif, Normal';font-variant-ligatures:normal;font-variant-caps:normal;font-variant-numeric:normal;font-feature-settings:normal;text-align:start;writing-mode:lr-tb;text-anchor:start;stroke-width:0.26458332"
         id="path7823"
         inkscape:connector-curvature="0" />
      <path
         d="m 8.8217091,109.40679 v -1.16789 h 0.3169487 v 1.15583 q 0,0.27388 0.106798,0.41169 0.106798,0.13608 0.3203939,0.13608 0.2566596,0 0.4047987,-0.16364 0.1498616,-0.16365 0.1498616,-0.44614 v -1.09382 h 0.316949 v 1.92925 H 10.12051 v -0.29628 q -0.115411,0.1757 -0.2687174,0.26183 -0.1515842,0.0844 -0.3531223,0.0844 -0.3324517,0 -0.5047065,-0.20671 -0.1722547,-0.20671 -0.1722547,-0.60461 z"
         style="font-style:normal;font-variant:normal;font-weight:normal;font-stretch:normal;font-size:3.52777767px;font-family:sans-serif;-inkscape-font-specification:'sans-serif, Normal';font-variant-ligatures:normal;font-variant-caps:normal;font-variant-numeric:normal;font-feature-settings:normal;text-align:start;writing-mode:lr-tb;text-anchor:start;stroke-width:0.26458332"
         id="path7825"
         inkscape:connector-curvature="0" />
      <path
         d="m 11.407253,107.69113 v 0.54777 h 0.652846 v 0.24632 h -0.652846 v 1.04731 q 0,0.23599 0.06373,0.30317 0.06546,0.0672 0.26355,0.0672 h 0.325562 v 0.26527 h -0.325562 q -0.366903,0 -0.506429,-0.13608 -0.139526,-0.1378 -0.139526,-0.49954 v -1.04731 h -0.232544 v -0.24632 h 0.232544 v -0.54777 z"
         style="font-style:normal;font-variant:normal;font-weight:normal;font-stretch:normal;font-size:3.52777767px;font-family:sans-serif;-inkscape-font-specification:'sans-serif, Normal';font-variant-ligatures:normal;font-variant-caps:normal;font-variant-numeric:normal;font-feature-settings:normal;text-align:start;writing-mode:lr-tb;text-anchor:start;stroke-width:0.26458332"
         id="path7827"
         inkscape:connector-curvature="0" />
      <path
         d="m 12.583753,109.87532 h 0.568441 v -1.96198 l -0.618395,0.12402 v -0.31695 l 0.61495,-0.12402 h 0.347954 v 2.27893 h 0.568441 v 0.29283 h -1.481391 z"
         style="font-style:normal;font-variant:normal;font-weight:normal;font-stretch:normal;font-size:3.52777767px;font-family:sans-serif;-inkscape-font-specification:'sans-serif, Normal';font-variant-ligatures:normal;font-variant-caps:normal;font-variant-numeric:normal;font-feature-settings:normal;text-align:start;writing-mode:lr-tb;text-anchor:start;stroke-width:0.26458332"
         id="path7829"
         inkscape:connector-curvature="0" />
    </g>
    <g
       aria-label="Out2"
       style="font-style:normal;font-weight:normal;font-size:10.58333302px;line-height:1.25;font-family:sans-serif;letter-spacing:0px;word-spacing:0px;fill:#000000;fill-opacity:1;stroke:none;stroke-width:0.26458332"
       id="text7807">
      <path
         d="m 19.797538,107.83238 q -0.37896,0 -0.602892,0.2825 -0.222208,0.28249 -0.222208,0.76997 0,0.48576 0.222208,0.76826 0.223932,0.2825 0.602892,0.2825 0.378961,0 0.599447,-0.2825 0.222208,-0.2825 0.222208,-0.76826 0,-0.48748 -0.222208,-0.76997 -0.220486,-0.2825 -0.599447,-0.2825 z m 0,-0.2825 q 0.54088,0 0.864719,0.36346 0.323839,0.36173 0.323839,0.97151 0,0.60806 -0.323839,0.97152 -0.323839,0.36174 -0.864719,0.36174 -0.542602,0 -0.868164,-0.36174 -0.323839,-0.36173 -0.323839,-0.97152 0,-0.60978 0.323839,-0.97151 0.325562,-0.36346 0.868164,-0.36346 z"
         style="font-style:normal;font-variant:normal;font-weight:normal;font-stretch:normal;font-size:3.52777767px;font-family:sans-serif;-inkscape-font-specification:'sans-serif, Normal';font-variant-ligatures:normal;font-variant-caps:normal;font-variant-numeric:normal;font-feature-settings:normal;text-align:start;writing-mode:lr-tb;text-anchor:start;stroke-width:0.26458332"
         id="path7832"
         inkscape:connector-curvature="0" />
      <path
         d="m 21.483912,109.40679 v -1.16789 h 0.316949 v 1.15583 q 0,0.27388 0.106798,0.41169 0.106798,0.13608 0.320394,0.13608 0.25666,0 0.404799,-0.16364 0.149861,-0.16365 0.149861,-0.44614 v -1.09382 h 0.316949 v 1.92925 h -0.316949 v -0.29628 q -0.11541,0.1757 -0.268717,0.26183 -0.151584,0.0844 -0.353122,0.0844 -0.332452,0 -0.504707,-0.20671 -0.172255,-0.20671 -0.172255,-0.60461 z"
         style="font-style:normal;font-variant:normal;font-weight:normal;font-stretch:normal;font-size:3.52777767px;font-family:sans-serif;-inkscape-font-specification:'sans-serif, Normal';font-variant-ligatures:normal;font-variant-caps:normal;font-variant-numeric:normal;font-feature-settings:normal;text-align:start;writing-mode:lr-tb;text-anchor:start;stroke-width:0.26458332"
         id="path7834"
         inkscape:connector-curvature="0" />
      <path
         d="m 24.069456,107.69113 v 0.54777 h 0.652846 v 0.24632 h -0.652846 v 1.04731 q 0,0.23599 0.06374,0.30317 0.06546,0.0672 0.263549,0.0672 h 0.325562 v 0.26527 H 24.39674 q -0.366902,0 -0.506429,-0.13608 -0.139526,-0.1378 -0.139526,-0.49954 v -1.04731 h -0.232544 v -0.24632 h 0.232544 v -0.54777 z"
         style="font-style:normal;font-variant:normal;font-weight:normal;font-stretch:normal;font-size:3.52777767px;font-family:sans-serif;-inkscape-font-specification:'sans-serif, Normal';font-variant-ligatures:normal;font-variant-caps:normal;font-variant-numeric:normal;font-feature-settings:normal;text-align:start;writing-mode:lr-tb;text-anchor:start;stroke-width:0.26458332"
         id="path7836"
         inkscape:connector-curvature="0" />
      <path
         d="m 25.48539,109.87532 h 1.214397 v 0.29283 h -1.632976 v -0.29283 q 0.198093,-0.20498 0.539158,-0.54949 0.342787,-0.34624 0.430637,-0.44614 0.167087,-0.18776 0.232544,-0.31695 0.06718,-0.13092 0.06718,-0.25666 0,-0.20499 -0.144694,-0.33418 -0.142971,-0.12919 -0.373793,-0.12919 -0.163642,0 -0.346232,0.0568 -0.180867,0.0568 -0.387573,0.17225 v -0.3514 q 0.210151,-0.0844 0.392741,-0.12747 0.18259,-0.0431 0.334174,-0.0431 0.399631,0 0.637343,0.19981 0.237711,0.19982 0.237711,0.53399 0,0.15848 -0.06029,0.30145 -0.05857,0.14125 -0.215318,0.33417 -0.04306,0.05 -0.273885,0.28939 -0.230822,0.23771 -0.651124,0.66663 z"
         style="font-style:normal;font-variant:normal;font-weight:normal;font-stretch:normal;font-size:3.52777767px;font-family:sans-serif;-inkscape-font-specification:'sans-serif, Normal';font-variant-ligatures:normal;font-variant-caps:normal;font-variant-numeric:normal;font-feature-settings:normal;text-align:start;writing-mode:lr-tb;text-anchor:start;stroke-width:0.26458332"
         id="path7838"
         inkscape:connector-curvature="0" />
    </g>
  </g>
</svg>
