<?xml version="1.0" encoding="UTF-8" standalone="no"?>
<!-- Created with Inkscape (http://www.inkscape.org/) -->

<svg
   xmlns:dc="http://purl.org/dc/elements/1.1/"
   xmlns:cc="http://creativecommons.org/ns#"
   xmlns:rdf="http://www.w3.org/1999/02/22-rdf-syntax-ns#"
   xmlns:svg="http://www.w3.org/2000/svg"
   xmlns="http://www.w3.org/2000/svg"
   xmlns:sodipodi="http://sodipodi.sourceforge.net/DTD/sodipodi-0.dtd"
   xmlns:inkscape="http://www.inkscape.org/namespaces/inkscape"
   width="718.84637mm"
   height="1021mm"
   viewBox="0 0 2547.0934 3617.7164"
   id="svg2"
   version="1.1"
   inkscape:version="0.91 r13725"
   sodipodi:docname="english.svg">
  <defs
     id="defs4" />
  <sodipodi:namedview
     id="base"
     pagecolor="#ffffff"
     bordercolor="#666666"
     borderopacity="1.0"
     inkscape:pageopacity="0.0"
     inkscape:pageshadow="2"
     inkscape:zoom="0.36"
     inkscape:cx="258.23843"
     inkscape:cy="3308.9268"
     inkscape:document-units="px"
     inkscape:current-layer="layer1"
     showgrid="false"
     fit-margin-top="10"
     fit-margin-left="10"
     fit-margin-right="10"
     fit-margin-bottom="10"
     inkscape:window-width="1600"
     inkscape:window-height="852"
     inkscape:window-x="0"
     inkscape:window-y="25"
     inkscape:window-maximized="1" />
  <metadata
     id="metadata7">
    <rdf:RDF>
      <cc:Work
         rdf:about="">
        <dc:format>image/svg+xml</dc:format>
        <dc:type
           rdf:resource="http://purl.org/dc/dcmitype/StillImage" />
        <dc:title></dc:title>
      </cc:Work>
    </rdf:RDF>
  </metadata>
  <g
     inkscape:label="Layer 1"
     inkscape:groupmode="layer"
     id="layer1"
     transform="translate(-159.57878,2773.9634)">
    <path
       style="fill:none;fill-rule:evenodd;stroke:#ff0000;stroke-width:7.044981px;stroke-linecap:butt;stroke-linejoin:miter;stroke-opacity:1"
       d="m 198.53434,-2536.4231 c 0,0 309.08959,-4.1304 460.086,24.4133 823.86916,155.7407 781.22556,299.9348 781.22556,299.9348 0,0 -1.6513,1100.8286 122.0665,1632.20351 330.9932,1421.63477 1105.5738,1384.58284 1105.5738,1384.58284 0,0 -21.8631,-328.72615 -292.9596,-558.01828 -79.5002,-67.2409 -572.5459,-346.93622 -739.3743,-1356.68197 -67.4117,-408.016 -59.2894,-1116.0366 -59.2894,-1116.0366 -36.2217,-124.6202 46.7586,-214.3052 -854.46545,-418.5137 -37.19137,-8.4271 -69.75243,-84.4687 -69.75243,-84.4687 -170.38761,-9.867 -453.11068,-6 -453.11068,-6 z"
       id="path3347"
       inkscape:connector-curvature="0"
       sodipodi:nodetypes="cscscsscsscc" />
  </g>
</svg>
